<?xml version="1.0" encoding="UTF-8"?>
<svg id="Layer_1" data-name="Layer 1" xmlns="http://www.w3.org/2000/svg" viewBox="0 0 67.89 93.55">
  <defs>
    <style>
      .cls-1 {
        font-family: Inter18pt-Medium, 'Inter 18pt';
        font-size: 10px;
      }

      .cls-2 {
        fill: #f1f1f2;
      }

      .cls-3 {
        fill: none;
        stroke: #404041;
        stroke-linecap: round;
        stroke-linejoin: round;
        stroke-width: .35px;
      }
    </style>
  </defs>
  <g>
    <g>
      <path class="cls-2" d="M67.89,17.87c0,.26,0,.57-.01,.95-.02,.85-.07,2.02-.15,3.22h0c-.06,.99-.13,1.97-.21,2.8-.18,1.84-.42,2.89-.68,3.58-.17,.44-.36,.73-.54,.93,.15-9.85,.23-14.05,.32-18.02,.08-3.98,.17-7.72,.05-10.62l.23-.07c.09,.1,.16,.22,.22,.38,.23,.56,.42,1.56,.48,3.23,.07,1.68,.02,4.06-.05,5.9-.06,1.85-.15,3.17-.19,4-.04,.81-.04,1.13,.04,1.4,.09,.26,.25,.48,.36,.84,.08,.28,.13,.63,.13,1.48Z"/>
      <path class="cls-2" d="M67.89,17.87c0-.85-.05-1.2-.13-1.48-.11-.36-.27-.58-.36-.84-.08-.27-.08-.59-.04-1.4,.04-.83,.13-2.15,.19-4,.07-1.84,.12-4.22,.05-5.9-.06-1.67-.25-2.67-.48-3.23-.06-.16-.13-.28-.22-.38h0c.98,0,.98,.26,.98,17.23Z"/>
      <path class="cls-2" d="M67.77,71.05c0,15.64,0,18.18-.03,19.63-.04,1.45-.1,1.81-.26,2.09-.15,.28-.4,.48-.69,.6-.28,.12-.61,.15-2.89,.17-1.99,.01-5.5,0-18.07,0H27.5c-17.14,0-21.36,.01-23.62,0-2.28-.02-2.61-.05-2.89-.17-.29-.12-.54-.32-.69-.6-.16-.28-.23-.64-.26-2.09-.03-1.3-.04-3.48-.04-15.93,0-3.43,0-5.24,.02-6.39v-.34c0-.39,.02-.68,.02-.95,.03-2.08,.09-2.44,.25-2.72,.15-.28,.41-.49,.7-.61s.62-.15,2.78-.17h6.33c.28,.01,.56,.01,.82,0h.25c.12,0,.22-.01,.31-.01,1.14-.06,2.04-.23,2.81-.42,.78-.18,1.43-.39,1.93-.68,.35-.2,.62-.45,.74-1.28h0c.05-.37,.07-.85,.05-1.5V21.73c.06,1.08,.14,2.19,.23,3.11,.19,1.84,.42,2.89,.69,3.58,.17,.44,.35,.73,.53,.93,.09,.11,.19,.18,.27,.24,.26,.17,.44,.19,1.79,.16s3.89-.09,7.2-.28c2.56-.15,5.58-.37,11.21-.38h6.9c5.63,0,8.66,.23,11.22,.38,3.31,.19,5.84,.25,7.19,.28s1.54,.01,1.79-.16c.08-.06,.18-.13,.27-.24,.18-.2,.37-.49,.54-.93,.26-.69,.5-1.74,.68-3.58,.08-.83,.15-1.81,.21-2.79,0,12.45,.03,35.97,.04,49Z"/>
      <path class="cls-2" d="M66.9,.64l-.23,.07c.12,2.9,.03,6.64-.05,10.62-.09,3.97-.17,8.17-.32,18.02-.09,.11-.19,.18-.27,.24-.25,.17-.44,.19-1.79,.16s-3.88-.09-7.19-.28c-2.56-.15-5.59-.37-11.22-.38h-6.9c-5.63,0-8.65,.23-11.21,.38-3.31,.19-5.85,.25-7.2,.28s-1.53,.01-1.79-.16c-.08-.06-.18-.13-.27-.24-.15-9.85-.23-14.05-.32-18.02-.08-3.98-.17-7.72-.05-10.62l-.22-.09c.08-.1,.16-.18,.26-.24,.14-.09,.31-.14,.51-.19C19.09,.09,19.69,.01,38.93,0h6.9C64.96,0,65.63,.08,66.12,.19c.35,.08,.6,.18,.78,.45Z"/>
      <path class="cls-2" d="M18.14,11.33c.09,3.97,.17,8.17,.32,18.02-.18-.2-.36-.49-.53-.93-.27-.69-.5-1.74-.69-3.58-.09-.92-.17-2.03-.23-3.11h0v-.03c-.06-1.08-.11-2.11-.13-2.88-.04-1.57,.01-2.07,.12-2.43s.28-.58,.36-.84c.08-.27,.08-.59,.04-1.4-.04-.83-.12-2.15-.19-3.99-.07-1.85-.12-4.22-.05-5.91,.07-1.67,.25-2.67,.48-3.23,0,0,.01,0,.01-.02,.07-.16,.14-.28,.22-.38l.22,.09c-.12,2.9-.03,6.64,.05,10.62Z"/>
      <path class="cls-2" d="M9.57,63.57H3.77c-2.16,.02-2.49,.05-2.78,.17s-.55,.33-.7,.61c-.16,.28-.22,.64-.25,2.72,0,.27-.01,.56-.02,.95v.34c-.01,1.15-.02,2.96-.02,6.39V19.52C0,16.88,.02,14.34,.05,12.41c.05-3.1,.13-4.64,.22-5.8,.08-1.18,.17-1.97,.35-2.67s.46-1.31,.74-1.8c.29-.49,.58-.85,1.02-1.17S3.41,.37,4.74,.37h13.39c-.1,.07-.18,.15-.26,.25s-.15,.22-.22,.38H4.44c-.99,0-1.31,.16-1.56,.36-.26,.21-.45,.45-.55,.77-.1,.33-.12,.73-.12,1.73s.02,2.6-.02,5.17c-.03,2.57-.12,6.1-.16,11.17-.03,5.07,0,11.68,.07,16.86s.17,8.92,.29,12.31,.25,6.42,.33,8.22c.07,1.79,.09,2.33,.16,2.75,.08,.41,.22,.7,.41,.94,.2,.24,.44,.44,.75,.58s.69,.22,1.43,.26c.73,.05,1.83,.06,3.11,.04,1.87-.01,4.53-.06,6.1-.11,1.57-.06,2.07-.12,2.28-.87-.12,.83-.39,1.08-.74,1.28-.5,.29-1.15,.5-1.93,.68-.77,.19-1.67,.36-2.81,.42-.09,0-.19,.01-.31,.01h-1.6Z"/>
      <path class="cls-2" d="M17.65,1s-.01,.01-.01,.02c-.23,.56-.41,1.56-.48,3.23-.07,1.69-.02,4.06,.05,5.91,.07,1.84,.15,3.16,.19,3.99,.04,.81,.04,1.13-.04,1.4-.08,.26-.25,.48-.36,.84s-.16,.86-.12,2.43c.02,.77,.07,1.8,.13,2.88v.02h0V59.68c.02,.65,0,1.13-.05,1.49h0c-.21,.76-.71,.82-2.28,.88-1.57,.05-4.23,.1-6.1,.11-1.28,.02-2.38,.01-3.11-.04-.74-.04-1.12-.12-1.43-.26s-.55-.34-.75-.58c-.19-.24-.33-.53-.41-.94-.07-.42-.09-.96-.16-2.75-.08-1.8-.21-4.83-.33-8.22s-.22-7.13-.29-12.31-.1-11.79-.07-16.86c.04-5.07,.13-8.6,.16-11.17,.04-2.57,.02-4.17,.02-5.17s.02-1.4,.12-1.73c.1-.32,.29-.56,.55-.77,.25-.2,.57-.36,1.56-.36h13.21Z"/>
      <path class="cls-2" d="M10.92,63.57c-.26,.01-.54,.01-.82,0h.82Z"/>
    </g>
    <g>
      <line class="cls-3" x1="45.83" y1="93.54" x2="40.17" y2="93.54"/>
      <line class="cls-3" x1="45.83" y1="29.09" x2="38.93" y2="29.09"/>
      <line class="cls-3" x1="45.83" y1="0" x2="38.93" y2="0"/>
      <line class="cls-3" x1="40.17" y1="93.54" x2="38.93" y2="93.54"/>
      <line class="cls-3" x1="0" y1="74.75" x2="0" y2="20.21"/>
      <path class="cls-3" d="M18.09,.71c-.12,2.9-.03,6.64,.05,10.62,.09,3.97,.17,8.17,.32,18.02"/>
      <path class="cls-3" d="M10.98,63.57h.19"/>
      <path class="cls-3" d="M9.8,63.57h1.12"/>
      <path class="cls-3" d="M0,74.75c0-3.43,0-5.24,.02-6.39v-.34c0-.39,.02-.68,.02-.95,.03-2.08,.09-2.44,.25-2.72,.15-.28,.41-.49,.7-.61s.62-.15,2.78-.17h5.8"/>
      <path class="cls-3" d="M.54,54.25c.03,.43,.06,.87,.09,1.3,.1,1.25,.24,2.48,.57,3.7,.19,.7,.41,1.36,.82,1.98,.35,.52,.78,.91,1.31,1.24,.62,.39,1.28,.61,1.99,.74,1.07,.21,3.06,.33,4.25,.36h.23"/>
      <path class="cls-3" d="M4.44,1c-.99,0-1.31,.16-1.56,.36-.26,.21-.45,.45-.55,.77-.1,.33-.12,.73-.12,1.73s.02,2.6-.02,5.17c-.03,2.57-.12,6.1-.16,11.17-.03,5.07,0,11.68,.07,16.86s.17,8.92,.29,12.31,.25,6.42,.33,8.22c.07,1.79,.09,2.33,.16,2.75,.08,.41,.22,.7,.41,.94,.2,.24,.44,.44,.75,.58s.69,.22,1.43,.26c.73,.05,1.83,.06,3.11,.04,1.87-.01,4.53-.06,6.1-.11,1.57-.06,2.07-.12,2.28-.87h0"/>
      <path class="cls-3" d="M4.74,.37c-1.33,0-1.92,.28-2.36,.6s-.73,.68-1.02,1.17c-.28,.49-.56,1.1-.74,1.8s-.27,1.49-.35,2.67c-.09,1.16-.17,2.7-.22,5.8C.02,14.34,0,16.88,0,19.52v.69C0,21.58,0,22.98,.02,24.31c.03,4.14,.11,7.77,.17,11.79,.07,4.01,.11,8.42,.16,11.83,.05,2.62,.1,4.66,.19,6.26"/>
      <polyline class="cls-3" points="18.13 .37 4.74 .37 4.14 .37"/>
      <polyline class="cls-3" points="17.65 1 4.44 1 3.84 1"/>
      <polyline class="cls-3" points="17.01 59.68 17.01 21.73 17.01 21.72 17.01 21.7"/>
      <path class="cls-3" d="M10.1,63.57c.28,.01,.56,.01,.82,0h.06"/>
      <path class="cls-3" d="M11.17,63.57c.12,0,.22-.01,.31-.01,1.14-.06,2.04-.23,2.81-.42,.78-.18,1.43-.39,1.93-.68,.35-.2,.62-.45,.74-1.28"/>
      <path class="cls-3" d="M16.96,61.17c.05-.36,.07-.84,.05-1.49"/>
      <path class="cls-3" d="M0,74.75C0,87.2,0,89.38,.04,90.68c.03,1.45,.1,1.81,.26,2.09,.15,.28,.4,.48,.69,.6,.28,.12,.61,.15,2.89,.17,2.26,.01,6.48,0,23.62,0"/>
      <path class="cls-3" d="M38.93,29.09c-5.63,0-8.65,.23-11.21,.38-3.31,.19-5.85,.25-7.2,.28s-1.53,.01-1.79-.16c-.08-.06-.18-.13-.27-.24-.18-.2-.36-.49-.53-.93-.27-.69-.5-1.74-.69-3.58-.09-.92-.17-2.03-.23-3.11"/>
      <path class="cls-3" d="M17.01,21.7c-.06-1.08-.11-2.11-.13-2.88-.04-1.57,.01-2.07,.12-2.43s.28-.58,.36-.84c.08-.27,.08-.59,.04-1.4-.04-.83-.12-2.15-.19-3.99-.07-1.85-.12-4.22-.05-5.91,.07-1.67,.25-2.67,.48-3.23,0,0,.01,0,.01-.02,.07-.16,.14-.28,.22-.38s.16-.18,.26-.24c.14-.09,.31-.14,.51-.19C19.09,.09,19.69,.01,38.93,0"/>
      <polyline class="cls-3" points="38.93 93.54 38.92 93.54 27.5 93.54"/>
      <path class="cls-3" d="M66.67,.71c.12,2.9,.03,6.64-.05,10.62-.09,3.97-.17,8.17-.32,18.02"/>
      <path class="cls-3" d="M67.89,17.87c0-16.97,0-17.24-.98-17.24"/>
      <path class="cls-3" d="M45.83,29.09c5.63,0,8.66,.23,11.22,.38,3.31,.19,5.84,.25,7.19,.28s1.54,.01,1.79-.16c.08-.06,.18-.13,.27-.24,.18-.2,.37-.49,.54-.93,.26-.69,.5-1.74,.68-3.58,.08-.83,.15-1.81,.21-2.79"/>
      <path class="cls-3" d="M67.73,22.04h0c0,12.46,.03,35.98,.04,49.01,0,15.64,0,18.18-.03,19.63-.04,1.45-.1,1.81-.26,2.09-.15,.28-.4,.48-.69,.6-.28,.12-.61,.15-2.89,.17-1.99,.01-5.5,0-18.07,0"/>
      <path class="cls-3" d="M67.73,22.04c.08-1.2,.13-2.37,.15-3.22,.01-.38,.01-.69,.01-.95,0-.85-.05-1.2-.13-1.48-.11-.36-.27-.58-.36-.84-.08-.27-.08-.59-.04-1.4,.04-.83,.13-2.15,.19-4,.07-1.84,.12-4.22,.05-5.9-.06-1.67-.25-2.67-.48-3.23-.06-.16-.13-.28-.22-.38-.18-.27-.43-.37-.78-.45C65.63,.08,64.96,0,45.83,0"/>
    </g>
  </g>
  <text class="cls-1" transform="translate(35.47 45.49)"><tspan x="0" y="0">90</tspan></text>
</svg>