<?xml version="1.0" encoding="UTF-8"?>
<svg id="Layer_1" data-name="Layer 1" xmlns="http://www.w3.org/2000/svg" viewBox="0 0 79.22 93.54">
  <defs>
    <style>
      .cls-1 {
        font-family: Inter18pt-Medium, 'Inter 18pt';
        font-size: 10px;
      }

      .cls-2 {
        fill: #f1f1f2;
      }

      .cls-3 {
        fill: none;
        stroke: #404041;
        stroke-linecap: round;
        stroke-linejoin: round;
        stroke-width: .35px;
      }
    </style>
  </defs>
  <g>
    <g>
      <path class="cls-2" d="M.34,10.15c-.07-1.85-.12-4.22-.05-5.91,.06-1.67,.25-2.66,.48-3.23,.06-.16,.13-.28,.23-.38h-.02C0,.62,0,.89,0,17.86c0-.85,.05-1.2,.13-1.48,.11-.36,.27-.58,.36-.84,.08-.27,.08-.59,.04-1.4-.04-.82-.13-2.15-.19-3.99Z"/>
      <path class="cls-2" d="M.29,4.24c-.07,1.69-.02,4.06,.05,5.91,.06,1.84,.15,3.17,.19,3.99,.04,.81,.04,1.13-.04,1.4-.09,.26-.25,.48-.36,.84-.08,.28-.13,.63-.13,1.48C0,18.12,0,18.43,0,18.81c.02,.85,.07,2.02,.15,3.22H.16c.06,.99,.13,1.97,.21,2.81,.18,1.83,.42,2.88,.69,3.57,.17,.45,.36,.74,.54,.93-.15-9.85-.23-14.05-.32-18.02-.08-3.98-.17-7.72-.05-10.62l-.23-.07c-.1,.1-.17,.22-.23,.38-.23,.57-.42,1.56-.48,3.23Z"/>
      <path class="cls-2" d="M34.64,0h-6.92C2.93,0,2.26,.07,1.78,.18c-.35,.08-.6,.18-.78,.45l.23,.07c-.12,2.9-.03,6.64,.05,10.62,.09,3.97,.17,8.17,.32,18.02,.09,.11,.19,.18,.27,.24,.24,.17,.43,.19,1.78,.16,1.36-.03,3.88-.09,7.19-.28s7.4-.49,16.88-.34h6.92c9.47-.15,13.56,.15,16.87,.34s5.85,.25,7.2,.28c1.36,.03,1.54,.01,1.79-.16,.08-.06,.18-.13,.27-.24,.15-9.85,.23-14.05,.32-18.02,.08-3.98,.17-7.72,.05-10.62l.22-.09c-.07-.1-.16-.18-.26-.24-.14-.09-.31-.14-.51-.19-.48-.11-1.16-.19-25.95-.19Z"/>
      <path class="cls-2" d="M61.09,11.32c-.09,3.97-.17,8.17-.32,18.02,.18-.19,.36-.48,.53-.93,.27-.69,.5-1.74,.69-3.57,.09-.93,.17-2.04,.23-3.12v-.03c.06-1.07,.11-2.11,.13-2.88,.04-1.57,0-2.07-.12-2.43s-.28-.58-.36-.84c-.08-.27-.08-.59-.04-1.4,.04-.82,.12-2.15,.19-3.99,.07-1.85,.12-4.22,.05-5.91-.07-1.67-.25-2.66-.48-3.23,0,0-.01,0-.01-.02-.07-.16-.14-.28-.22-.38l-.22,.09c.12,2.9,.03,6.64-.05,10.62Z"/>
      <path class="cls-2" d="M62.22,21.72V59.68c-.02,.64,0,1.12,.05,1.48h0c.21,.76,.71,.82,2.28,.88,1.57,.05,4.23,.1,6.1,.11,1.28,.02,2.38,.01,3.11-.04,.74-.04,1.12-.12,1.43-.26s.55-.34,.76-.58c.19-.24,.33-.53,.41-.94,.07-.41,.09-.96,.16-2.75,.08-1.8,.2-4.83,.32-8.22s.22-7.13,.29-12.3c.07-5.19,.1-11.79,.07-16.87-.04-5.07-.13-8.6-.16-11.17-.04-2.56-.02-4.17-.02-5.17s-.02-1.4-.12-1.72-.29-.56-.54-.78c-.26-.2-.58-.36-1.57-.36h-13.21s.01,.01,.01,.02c.23,.57,.41,1.56,.48,3.23,.07,1.69,.02,4.06-.05,5.91-.07,1.84-.15,3.17-.19,3.99-.04,.81-.04,1.13,.04,1.4,.08,.26,.25,.48,.36,.84s.16,.86,.12,2.43c-.02,.77-.07,1.81-.13,2.88v.03Z"/>
      <path class="cls-2" d="M68.31,63.57c.26,.01,.54,.01,.82,0h-.82Z"/>
      <path class="cls-2" d="M78.25,63.74c-.3-.12-.63-.15-2.78-.17h-6.34c-.28,.01-.56,.01-.82,0h-.25c-.11,0-.21-.01-.31-.01-1.14-.06-2.04-.24-2.81-.43-.78-.18-1.43-.39-1.93-.68-.35-.2-.62-.45-.74-1.28h0c-.05-.37-.07-.85-.05-1.49V21.72c-.06,1.08-.14,2.19-.23,3.12-.19,1.83-.42,2.88-.69,3.57-.17,.45-.35,.74-.53,.93-.09,.11-.19,.18-.27,.24-.25,.17-.43,.19-1.79,.16-1.35-.03-3.89-.09-7.2-.28s-7.4-.49-16.87-.34h-6.92c-9.48-.15-13.57,.15-16.88,.34s-5.83,.25-7.19,.28c-1.35,.03-1.54,.01-1.78-.16-.08-.06-.18-.13-.27-.24-.18-.19-.37-.48-.54-.93-.27-.69-.51-1.74-.69-3.57-.08-.84-.15-1.82-.21-2.8,0,12.45-.03,35.97-.04,49.01-.01,15.64,0,18.17,.03,19.63,.04,1.44,.1,1.8,.26,2.08,.15,.28,.4,.48,.69,.6s.62,.15,2.89,.17c2.27,.01,6.49,0,23.73,0h24.01c17.14,0,21.36,.01,23.63,0,2.27-.02,2.6-.05,2.88-.17,.29-.12,.54-.32,.7-.6s.22-.64,.26-2.08c.02-1.31,.03-3.48,.03-15.93,0-3.43-.01-5.25-.02-6.4v-.34c-.01-.38-.02-.68-.02-.95-.03-2.08-.09-2.44-.25-2.72-.15-.28-.4-.48-.69-.6Z"/>
      <path class="cls-2" d="M73.76,62.11c-.73,.05-1.83,.06-3.11,.04-1.87-.01-4.53-.06-6.1-.11-1.57-.06-2.07-.12-2.28-.87,.12,.83,.39,1.08,.74,1.28,.5,.29,1.15,.5,1.93,.68,.77,.19,1.67,.37,2.81,.43,.1,0,.2,.01,.31,.01h7.41c2.15,.02,2.48,.05,2.78,.17,.29,.12,.54,.32,.69,.6,.16,.28,.22,.64,.25,2.72,0,.27,.01,.57,.02,.95v.34c.01,1.15,.02,2.97,.02,6.4V19.51c0-2.64-.02-5.18-.05-7.11-.05-3.1-.13-4.64-.22-5.8-.08-1.17-.17-1.97-.35-2.67s-.46-1.31-.74-1.79c-.29-.5-.58-.86-1.02-1.18-.43-.32-1.03-.6-2.36-.6h-13.39c.1,.07,.19,.15,.26,.25,.08,.1,.15,.22,.22,.38h13.21c.99,0,1.31,.16,1.57,.36,.25,.22,.44,.46,.54,.78s.12,.72,.12,1.72-.02,2.61,.02,5.17c.03,2.57,.12,6.1,.16,11.17,.03,5.08,0,11.68-.07,16.87-.07,5.17-.17,8.91-.29,12.3s-.24,6.42-.32,8.22c-.07,1.79-.09,2.34-.16,2.75-.08,.41-.22,.7-.41,.94-.21,.24-.45,.44-.76,.58s-.69,.22-1.43,.26Z"/>
    </g>
    <g>
      <line class="cls-3" x1="33.25" y1="0" x2="27.72" y2="0"/>
      <line class="cls-3" x1="33.25" y1="29.12" x2="27.72" y2="29.12"/>
      <line class="cls-3" x1="27.72" y1="93.53" x2="33.25" y2="93.53"/>
      <line class="cls-3" x1="79.23" y1="74.75" x2="79.23" y2="20.2"/>
      <path class="cls-3" d="M79.23,74.75c0,12.45-.01,14.62-.03,15.93-.04,1.44-.1,1.8-.26,2.08s-.41,.48-.7,.6c-.28,.12-.61,.15-2.88,.17-2.27,.01-6.49,0-23.63,0"/>
      <line class="cls-3" x1="34.64" y1="93.53" x2="51.73" y2="93.53"/>
      <path class="cls-3" d="M.16,22.03H.16c0,12.46-.03,35.98-.04,49.02-.01,15.64,0,18.17,.03,19.63,.04,1.44,.1,1.8,.26,2.08,.15,.28,.4,.48,.69,.6s.62,.15,2.89,.17c2.27,.01,6.49,0,23.73,0"/>
      <line class="cls-3" x1="33.25" y1="93.53" x2="34.64" y2="93.53"/>
      <path class="cls-3" d="M0,17.86C0,.89,0,.62,.98,.62"/>
      <path class="cls-3" d="M.16,22.03c-.08-1.2-.13-2.37-.15-3.22-.01-.38-.01-.69-.01-.95,0-.85,.05-1.2,.13-1.48,.11-.36,.27-.58,.36-.84,.08-.27,.08-.59,.04-1.4-.04-.82-.13-2.15-.19-3.99-.07-1.85-.12-4.22-.05-5.91,.06-1.67,.25-2.66,.48-3.23,.06-.16,.13-.28,.23-.38,.18-.27,.43-.37,.78-.45C2.26,.07,2.93,0,27.72,0"/>
      <path class="cls-3" d="M27.72,29.12c-9.48-.15-13.57,.15-16.88,.34s-5.83,.25-7.19,.28c-1.35,.03-1.54,.01-1.78-.16-.08-.06-.18-.13-.27-.24-.18-.19-.37-.48-.54-.93-.27-.69-.51-1.74-.69-3.57-.08-.84-.15-1.82-.21-2.8"/>
      <path class="cls-3" d="M1.23,.7c-.12,2.9-.03,6.64,.05,10.62,.09,3.97,.17,8.17,.32,18.02"/>
      <path class="cls-3" d="M62.22,21.69c.06-1.07,.11-2.11,.13-2.88,.04-1.57,0-2.07-.12-2.43s-.28-.58-.36-.84c-.08-.27-.08-.59-.04-1.4,.04-.82,.12-2.15,.19-3.99,.07-1.85,.12-4.22,.05-5.91-.07-1.67-.25-2.66-.48-3.23,0,0-.01,0-.01-.02-.07-.16-.14-.28-.22-.38-.07-.1-.16-.18-.26-.24-.14-.09-.31-.14-.51-.19-.48-.11-1.16-.19-25.95-.19"/>
      <path class="cls-3" d="M34.64,29.12c9.47-.15,13.56,.15,16.87,.34s5.85,.25,7.2,.28c1.36,.03,1.54,.01,1.79-.16,.08-.06,.18-.13,.27-.24,.18-.19,.36-.48,.53-.93,.27-.69,.5-1.74,.69-3.57,.09-.93,.17-2.04,.23-3.12"/>
      <line class="cls-3" x1="34.64" y1="0" x2="33.25" y2="0"/>
      <line class="cls-3" x1="33.25" y1="29.12" x2="34.64" y2="29.12"/>
      <path class="cls-3" d="M62.27,61.16c-.05-.36-.07-.84-.05-1.48"/>
      <path class="cls-3" d="M68.06,63.57c-.11,0-.21-.01-.31-.01-1.14-.06-2.04-.24-2.81-.43-.78-.18-1.43-.39-1.93-.68-.35-.2-.62-.45-.74-1.28"/>
      <path class="cls-3" d="M69.13,63.57c-.28,.01-.56,.01-.82,0"/>
      <polyline class="cls-3" points="62.22 59.68 62.22 21.72 62.22 21.69"/>
      <polyline class="cls-3" points="61.58 .99 74.79 .99 75.39 .99"/>
      <polyline class="cls-3" points="61.1 .36 74.49 .36 75.09 .36"/>
      <path class="cls-3" d="M74.49,.36c1.33,0,1.93,.28,2.36,.6,.44,.32,.73,.68,1.02,1.18,.28,.48,.56,1.09,.74,1.79s.27,1.5,.35,2.67c.09,1.16,.17,2.7,.22,5.8,.03,1.93,.05,4.47,.05,7.11v.69c0,1.37-.01,2.77-.02,4.1-.03,4.14-.11,7.77-.17,11.79-.07,4.01-.11,8.42-.16,11.83-.05,2.62-.1,4.66-.19,6.26"/>
      <path class="cls-3" d="M74.79,.99c.99,0,1.31,.16,1.57,.36,.25,.22,.44,.46,.54,.78s.12,.72,.12,1.72-.02,2.61,.02,5.17c.03,2.57,.12,6.1,.16,11.17,.03,5.08,0,11.68-.07,16.87-.07,5.17-.17,8.91-.29,12.3s-.24,6.42-.32,8.22c-.07,1.79-.09,2.34-.16,2.75-.08,.41-.22,.7-.41,.94-.21,.24-.45,.44-.76,.58s-.69,.22-1.43,.26c-.73,.05-1.83,.06-3.11,.04-1.87-.01-4.53-.06-6.1-.11-1.57-.06-2.07-.12-2.28-.87h0"/>
      <path class="cls-3" d="M78.69,54.24c-.03,.44-.06,.87-.09,1.31-.1,1.25-.24,2.48-.57,3.7-.19,.7-.41,1.36-.82,1.97-.35,.52-.78,.91-1.31,1.24-.62,.39-1.27,.61-1.99,.75-1.14,.21-3.33,.34-4.48,.36"/>
      <path class="cls-3" d="M79.23,74.75c0-3.43-.01-5.25-.02-6.4v-.34c-.01-.38-.02-.68-.02-.95-.03-2.08-.09-2.44-.25-2.72-.15-.28-.4-.48-.69-.6-.3-.12-.63-.15-2.78-.17h-7.41"/>
      <path class="cls-3" d="M61.14,.7c.12,2.9,.03,6.64-.05,10.62-.09,3.97-.17,8.17-.32,18.02"/>
    </g>
  </g>
  <text class="cls-1" transform="translate(25.46 45.49)"><tspan x="0" y="0">110</tspan></text>
</svg>