<?xml version="1.0" encoding="UTF-8"?>
<svg id="Layer_1" data-name="Layer 1" xmlns="http://www.w3.org/2000/svg" viewBox="0 0 73.55 93.55">
  <defs>
    <style>
      .cls-1 {
        font-family: Inter18pt-Medium, 'Inter 18pt';
        font-size: 10px;
      }

      .cls-2 {
        fill: #f1f1f2;
      }

      .cls-3 {
        fill: none;
        stroke: #404041;
        stroke-linecap: round;
        stroke-linejoin: round;
        stroke-width: .35px;
      }
    </style>
  </defs>
  <g>
    <g>
      <path class="cls-2" d="M.35,10.16c-.07-1.85-.12-4.22-.05-5.91,.06-1.67,.25-2.66,.48-3.23,.06-.16,.13-.28,.22-.38h-.01C.02,.63,0,.89,0,17.3c.02-.46,.07-.7,.13-.91,.11-.36,.27-.58,.36-.84,.08-.27,.08-.59,.04-1.4-.04-.82-.13-2.15-.19-3.99Z"/>
      <path class="cls-2" d="M.3,4.25c-.07,1.69-.02,4.06,.05,5.91,.06,1.84,.15,3.17,.19,3.99,.04,.81,.04,1.13-.04,1.4-.09,.26-.25,.48-.36,.84-.06,.21-.11,.45-.13,.91v.02c0,.16,0,.34,0,.55,0,.26,0,.57,.02,.95,.02,.85,.07,2.02,.15,3.22H.17c.06,.99,.13,1.97,.21,2.81,.18,1.83,.42,2.88,.68,3.57,.17,.45,.36,.74,.54,.93-.15-9.85-.23-14.05-.32-18.02-.08-3.98-.17-7.72-.05-10.62l-.23-.07c-.09,.1-.16,.22-.22,.38-.23,.57-.42,1.56-.48,3.23Z"/>
      <path class="cls-2" d="M27.73,29.13h1.24c9.48-.15,13.57,.15,16.88,.34s5.84,.25,7.19,.28c1.36,.03,1.54,.01,1.79-.16,.08-.06,.18-.13,.27-.24,.15-9.85,.23-14.05,.32-18.02,.08-3.98,.17-7.72,.05-10.62l.22-.09c-.07-.1-.16-.18-.26-.24-.14-.09-.31-.14-.51-.19C54.44,.08,53.77,0,28.97,0h-1.24C2.93,0,2.26,.08,1.78,.19c-.35,.08-.6,.18-.78,.45l.23,.07c-.12,2.9-.03,6.64,.05,10.62,.09,3.97,.17,8.17,.32,18.02,.09,.11,.19,.18,.27,.24,.24,.17,.43,.19,1.78,.16,1.36-.03,3.89-.09,7.19-.28,3.31-.19,7.4-.49,16.89-.34Z"/>
      <path class="cls-2" d="M56.2,15.55c-.08-.27-.08-.59-.04-1.4,.04-.82,.12-2.15,.19-3.99,.07-1.85,.12-4.22,.05-5.91-.07-1.67-.25-2.66-.48-3.23,0,0-.01,0-.01-.02-.07-.16-.14-.28-.22-.38l-.22,.09c.12,2.9,.03,6.64-.05,10.62-.09,3.97-.17,8.17-.32,18.02,.18-.19,.36-.48,.53-.93,.27-.69,.5-1.74,.69-3.57,.09-.93,.17-2.04,.23-3.12v-.03c.06-1.07,.11-2.11,.13-2.88,.04-1.57,0-2.07-.11-2.43-.12-.36-.29-.58-.37-.84Z"/>
      <path class="cls-2" d="M56.6,61.17h0c.22,.76,.72,.82,2.28,.88,1.58,.05,4.23,.1,6.11,.11,1.28,.02,2.37,.01,3.1-.04,.74-.04,1.12-.12,1.44-.26,.31-.14,.55-.34,.75-.58,.19-.24,.33-.53,.41-.94,.07-.41,.09-.96,.16-2.75,.08-1.8,.2-4.83,.32-8.22s.22-7.13,.29-12.3c.07-5.19,.1-11.79,.07-16.87-.04-5.07-.13-8.6-.16-11.17-.04-2.56-.02-4.17-.02-5.17s-.02-1.4-.12-1.72-.29-.56-.54-.78c-.25-.2-.57-.36-1.57-.36h-13.21s.01,.01,.01,.02c.23,.57,.41,1.56,.48,3.23,.07,1.69,.02,4.06-.05,5.91-.07,1.84-.15,3.17-.19,3.99-.04,.81-.04,1.13,.04,1.4,.08,.26,.25,.48,.37,.84,.1,.36,.15,.86,.11,2.43-.02,.77-.07,1.81-.13,2.88V59.69c-.02,.64,0,1.12,.05,1.48Z"/>
      <path class="cls-2" d="M62.65,63.58c.26,.01,.53,.01,.81,0h-.81Z"/>
      <path class="cls-2" d="M28.97,29.13h-1.24c-9.49-.15-13.58,.15-16.89,.34-3.3,.19-5.83,.25-7.19,.28-1.35,.03-1.54,.01-1.78-.16-.08-.06-.18-.13-.27-.24-.18-.19-.37-.48-.54-.93-.26-.69-.5-1.74-.68-3.57-.08-.84-.15-1.82-.21-2.8,0,12.45-.03,35.97-.04,49.01-.01,15.64,0,18.17,.03,19.63,.03,1.44,.1,1.8,.26,2.08,.15,.28,.4,.48,.69,.6,.28,.12,.61,.15,2.89,.17,2.26,.01,6.48,0,23.73,0h18.34c17.13,0,21.35,.01,23.62,0,2.28-.02,2.61-.05,2.89-.17,.29-.12,.54-.32,.69-.6,.16-.28,.22-.64,.26-2.08,.03-1.31,.04-3.48,.03-15.93,0-3.43-.01-5.25-.02-6.4v-.34c-.01-.38-.02-.68-.02-.95-.03-2.08-.09-2.44-.25-2.72-.15-.28-.4-.48-.69-.6s-.62-.15-2.78-.17h-6.34c-.28,.01-.55,.01-.81,0h-.26c-.11,0-.21-.01-.31-.01-1.14-.06-2.04-.24-2.81-.43-.78-.18-1.42-.39-1.92-.68-.36-.2-.63-.45-.75-1.28h0c-.05-.37-.07-.85-.05-1.49V21.73c-.06,1.08-.14,2.19-.23,3.12-.19,1.83-.42,2.88-.69,3.57-.17,.45-.35,.74-.53,.93-.09,.11-.19,.18-.27,.24-.25,.17-.43,.19-1.79,.16-1.35-.03-3.88-.09-7.19-.28s-7.4-.49-16.88-.34Z"/>
      <path class="cls-2" d="M70.85,57.59c-.07,1.79-.09,2.34-.16,2.75-.08,.41-.22,.7-.41,.94-.2,.24-.44,.44-.75,.58-.32,.14-.7,.22-1.44,.26-.73,.05-1.82,.06-3.1,.04-1.88-.01-4.53-.06-6.11-.11-1.56-.06-2.06-.12-2.28-.87,.12,.83,.39,1.08,.75,1.28,.5,.29,1.14,.5,1.92,.68,.77,.19,1.67,.37,2.81,.43,.1,0,.2,.01,.31,.01h7.41c2.16,.02,2.49,.05,2.78,.17s.54,.32,.69,.6c.16,.28,.22,.64,.25,2.72,0,.27,.01,.57,.02,.95v.34c.01,1.15,.02,2.97,.02,6.4V23.13c.02-3.82,0-7.91-.04-10.72-.05-3.1-.13-4.64-.22-5.8-.08-1.17-.18-1.97-.35-2.67-.19-.7-.47-1.31-.75-1.79-.29-.5-.58-.86-1.02-1.18-.43-.32-1.02-.6-2.36-.6h-13.39c.1,.07,.19,.15,.26,.25,.08,.1,.15,.22,.22,.38h13.21c1,0,1.32,.16,1.57,.36,.25,.22,.44,.46,.54,.78s.12,.72,.12,1.72-.02,2.61,.02,5.17c.03,2.57,.12,6.1,.16,11.17,.03,5.08,0,11.68-.07,16.87-.07,5.17-.17,8.91-.29,12.3s-.24,6.42-.32,8.22Z"/>
    </g>
    <g>
      <line class="cls-3" x1="27.73" y1="0" x2="28.97" y2="0"/>
      <line class="cls-3" x1="27.73" y1="29.13" x2="28.97" y2="29.13"/>
      <line class="cls-3" x1="27.73" y1="93.54" x2="28.97" y2="93.54"/>
      <polyline class="cls-3" points="73.56 74.76 73.56 23.13 73.56 19.52"/>
      <path class="cls-3" d="M73.56,74.76c0,12.45,0,14.62-.03,15.93-.04,1.44-.1,1.8-.26,2.08-.15,.28-.4,.48-.69,.6-.28,.12-.61,.15-2.89,.17-2.27,.01-6.49,0-23.62,0"/>
      <line class="cls-3" x1="28.97" y1="93.54" x2="46.07" y2="93.54"/>
      <path class="cls-3" d="M56.55,21.7c.06-1.07,.11-2.11,.13-2.88,.04-1.57,0-2.07-.11-2.43-.12-.36-.29-.58-.37-.84-.08-.27-.08-.59-.04-1.4,.04-.82,.12-2.15,.19-3.99,.07-1.85,.12-4.22,.05-5.91-.07-1.67-.25-2.66-.48-3.23,0,0-.01,0-.01-.02-.07-.16-.14-.28-.22-.38-.07-.1-.16-.18-.26-.24-.14-.09-.31-.14-.51-.19C54.44,.08,53.77,0,28.97,0"/>
      <path class="cls-3" d="M28.97,29.13c9.48-.15,13.57,.15,16.88,.34s5.84,.25,7.19,.28c1.36,.03,1.54,.01,1.79-.16,.08-.06,.18-.13,.27-.24,.18-.19,.36-.48,.53-.93,.27-.69,.5-1.74,.69-3.57,.09-.93,.17-2.04,.23-3.12"/>
      <path class="cls-3" d="M56.6,61.17c-.05-.36-.07-.84-.05-1.48"/>
      <path class="cls-3" d="M62.39,63.58c-.11,0-.21-.01-.31-.01-1.14-.06-2.04-.24-2.81-.43-.78-.18-1.42-.39-1.92-.68-.36-.2-.63-.45-.75-1.28"/>
      <path class="cls-3" d="M63.46,63.58c-.28,.01-.55,.01-.81,0"/>
      <polyline class="cls-3" points="56.55 59.69 56.55 21.73 56.55 21.7"/>
      <polyline class="cls-3" points="55.91 1 69.12 1 69.73 1"/>
      <polyline class="cls-3" points="55.43 .37 68.82 .37 69.43 .37"/>
      <path class="cls-3" d="M68.82,.37c1.34,0,1.93,.28,2.36,.6,.44,.32,.73,.68,1.02,1.18,.28,.48,.56,1.09,.75,1.79,.17,.7,.27,1.5,.35,2.67,.09,1.16,.17,2.7,.22,5.8,.05,2.81,.06,6.9,.04,10.72,0,.4-.01,.79-.01,1.18-.03,4.14-.11,7.77-.17,11.79-.07,4.01-.11,8.42-.16,11.83-.06,2.62-.11,4.66-.19,6.26"/>
      <path class="cls-3" d="M69.12,1c1,0,1.32,.16,1.57,.36,.25,.22,.44,.46,.54,.78s.12,.72,.12,1.72-.02,2.61,.02,5.17c.03,2.57,.12,6.1,.16,11.17,.03,5.08,0,11.68-.07,16.87-.07,5.17-.17,8.91-.29,12.3s-.24,6.42-.32,8.22c-.07,1.79-.09,2.34-.16,2.75-.08,.41-.22,.7-.41,.94-.2,.24-.44,.44-.75,.58-.32,.14-.7,.22-1.44,.26-.73,.05-1.82,.06-3.1,.04-1.88-.01-4.53-.06-6.11-.11-1.56-.06-2.06-.12-2.28-.87h0"/>
      <path class="cls-3" d="M73.03,54.25c-.03,.44-.06,.87-.1,1.31-.1,1.25-.24,2.48-.57,3.7-.19,.7-.41,1.36-.82,1.97-.35,.52-.77,.91-1.3,1.24-.63,.39-1.28,.61-2,.75-1.13,.21-3.33,.34-4.48,.36"/>
      <path class="cls-3" d="M73.56,74.76c0-3.43-.01-5.25-.02-6.4v-.34c-.01-.38-.02-.68-.02-.95-.03-2.08-.09-2.44-.25-2.72-.15-.28-.4-.48-.69-.6s-.62-.15-2.78-.17h-7.41"/>
      <path class="cls-3" d="M55.47,.71c.12,2.9,.03,6.64-.05,10.62-.09,3.97-.17,8.17-.32,18.02"/>
      <path class="cls-3" d="M.17,22.04H.17c0,12.46-.03,35.98-.04,49.02-.01,15.64,0,18.17,.03,19.63,.03,1.44,.1,1.8,.26,2.08,.15,.28,.4,.48,.69,.6,.28,.12,.61,.15,2.89,.17,2.26,.01,6.48,0,23.73,0"/>
      <path class="cls-3" d="M0,17.3C0,.89,.02,.63,.99,.63"/>
      <path class="cls-3" d="M0,17.87v-.55"/>
      <path class="cls-3" d="M.17,22.04c-.08-1.2-.13-2.37-.15-3.22-.02-.38-.02-.69-.02-.95,0-.21,0-.39,0-.55v-.02c.02-.46,.07-.7,.13-.91,.11-.36,.27-.58,.36-.84,.08-.27,.08-.59,.04-1.4-.04-.82-.13-2.15-.19-3.99-.07-1.85-.12-4.22-.05-5.91,.06-1.67,.25-2.66,.48-3.23,.06-.16,.13-.28,.22-.38,.18-.27,.43-.37,.78-.45C2.26,.08,2.93,0,27.73,0"/>
      <path class="cls-3" d="M27.73,29.13c-9.49-.15-13.58,.15-16.89,.34-3.3,.19-5.83,.25-7.19,.28-1.35,.03-1.54,.01-1.78-.16-.08-.06-.18-.13-.27-.24-.18-.19-.37-.48-.54-.93-.26-.69-.5-1.74-.68-3.57-.08-.84-.15-1.82-.21-2.8"/>
      <path class="cls-3" d="M1.23,.71c-.12,2.9-.03,6.64,.05,10.62,.09,3.97,.17,8.17,.32,18.02"/>
    </g>
  </g>
  <text class="cls-1" transform="translate(20.53 45.49)"><tspan x="0" y="0">100</tspan></text>
</svg>