<?xml version="1.0" encoding="UTF-8"?>
<svg id="Layer_1" data-name="Layer 1" xmlns="http://www.w3.org/2000/svg" viewBox="0 0 79.22 93.54">
  <defs>
    <style>
      .cls-1 {
        font-family: Inter18pt-Medium, 'Inter 18pt';
        font-size: 10px;
      }

      .cls-2 {
        fill: #f1f1f2;
      }

      .cls-3 {
        fill: none;
        stroke: #404041;
        stroke-linecap: round;
        stroke-linejoin: round;
        stroke-width: .35px;
      }
    </style>
  </defs>
  <g>
    <g>
      <path class="cls-2" d="M78.25,.62c.98,0,.98,.27,.98,17.24,0-.85-.05-1.2-.13-1.48-.11-.36-.27-.58-.36-.84-.08-.27-.08-.59-.04-1.4,.04-.82,.13-2.15,.19-3.99,.07-1.85,.12-4.22,.05-5.91-.06-1.67-.25-2.66-.48-3.23-.07-.16-.13-.28-.23-.38h.02Z"/>
      <path class="cls-2" d="M77.63,29.34c.15-9.85,.23-14.05,.32-18.02,.08-3.98,.17-7.72,.05-10.62l.23-.07c.1,.1,.16,.22,.23,.38,.23,.57,.42,1.56,.48,3.23,.07,1.69,.02,4.06-.05,5.91-.06,1.84-.15,3.17-.19,3.99-.04,.81-.04,1.13,.04,1.4,.09,.26,.25,.48,.36,.84,.08,.28,.13,.63,.13,1.48,0,.26,0,.57-.01,.95-.02,.85-.07,2.02-.15,3.22h0c-.06,.99-.13,1.97-.21,2.81-.18,1.83-.42,2.88-.69,3.57-.17,.45-.36,.74-.54,.93Z"/>
      <path class="cls-2" d="M44.59,0h6.92C76.3,0,76.97,.07,77.45,.18c.35,.08,.6,.18,.78,.45l-.23,.07c.12,2.9,.03,6.64-.05,10.62-.09,3.97-.17,8.17-.32,18.02-.09,.11-.19,.18-.27,.24-.24,.17-.43,.19-1.78,.16-1.36-.03-3.88-.09-7.19-.28s-7.4-.49-16.88-.34h-6.92c-9.47-.15-13.56,.15-16.87,.34s-5.85,.25-7.2,.28c-1.36,.03-1.54,.01-1.79-.16-.08-.06-.18-.13-.27-.24-.15-9.85-.23-14.05-.32-18.02-.08-3.98-.17-7.72-.05-10.62l-.22-.09c.07-.1,.16-.18,.26-.24,.14-.09,.31-.14,.51-.19,.48-.11,1.16-.19,25.95-.19Z"/>
      <path class="cls-2" d="M18.09,.7c-.12,2.9-.03,6.64,.05,10.62,.09,3.97,.17,8.17,.32,18.02-.18-.19-.36-.48-.53-.93-.27-.69-.5-1.74-.69-3.57-.09-.93-.17-2.04-.23-3.12v-.03c-.06-1.07-.11-2.11-.13-2.88-.04-1.57,0-2.07,.12-2.43s.28-.58,.36-.84c.08-.27,.08-.59,.04-1.4-.04-.82-.12-2.15-.19-3.99-.07-1.85-.12-4.22-.05-5.91,.07-1.67,.25-2.66,.48-3.23,0,0,.01,0,.01-.02,.07-.16,.14-.28,.22-.38l.22,.09Z"/>
      <path class="cls-2" d="M16.96,61.17c-.21,.75-.71,.81-2.28,.87-1.57,.05-4.23,.1-6.1,.11-1.28,.02-2.38,.01-3.11-.04-.74-.04-1.12-.12-1.43-.26s-.55-.34-.76-.58c-.19-.24-.33-.53-.41-.94-.07-.41-.09-.96-.16-2.75-.08-1.8-.2-4.83-.32-8.22s-.22-7.13-.29-12.3c-.07-5.19-.1-11.79-.07-16.87,.04-5.07,.13-8.6,.16-11.17,.04-2.56,.02-4.17,.02-5.17s.02-1.4,.12-1.72,.29-.56,.54-.78c.26-.2,.58-.36,1.57-.36h13.21s-.01,.01-.01,.02c-.23,.57-.41,1.56-.48,3.23-.07,1.69-.02,4.06,.05,5.91,.07,1.84,.15,3.17,.19,3.99,.04,.81,.04,1.13-.04,1.4-.08,.26-.25,.48-.36,.84s-.16,.86-.12,2.43c.02,.77,.07,1.81,.13,2.88V59.68c.02,.64,0,1.12-.05,1.48h0Z"/>
      <path class="cls-2" d="M10.92,63.57c-.26,.01-.54,.01-.82,0h.82Z"/>
      <path class="cls-2" d="M18.73,29.58c.25,.17,.43,.19,1.79,.16,1.35-.03,3.89-.09,7.2-.28s7.4-.49,16.87-.34h6.92c9.48-.15,13.57,.15,16.88,.34s5.83,.25,7.19,.28c1.35,.03,1.54,.01,1.78-.16,.08-.06,.18-.13,.27-.24,.18-.19,.37-.48,.54-.93,.27-.69,.51-1.74,.69-3.57,.08-.84,.15-1.82,.21-2.8,0,12.45,.03,35.97,.04,49.01,0,15.64,0,18.17-.03,19.63-.04,1.44-.1,1.8-.26,2.08s-.4,.48-.69,.6-.62,.15-2.89,.17c-2.27,.01-6.49,0-23.73,0H27.5c-17.14,0-21.36,.01-23.63,0-2.27-.02-2.6-.05-2.88-.17-.29-.12-.54-.32-.7-.6s-.22-.64-.26-2.08C0,89.37,0,87.2,0,74.75c0-3.43,0-5.25,.02-6.4v-.34c.01-.38,.02-.68,.02-.95,.03-2.08,.09-2.44,.25-2.72,.15-.28,.4-.48,.69-.6,.3-.12,.63-.15,2.78-.17h6.34c.28,.01,.56,.01,.82,0h.25c.11,0,.21-.01,.31-.01,1.14-.06,2.04-.24,2.81-.43,.78-.18,1.43-.39,1.93-.68,.35-.2,.62-.45,.74-1.28h0c.05-.37,.07-.85,.05-1.49V21.72c.06,1.08,.14,2.19,.23,3.12,.19,1.83,.42,2.88,.69,3.57,.17,.45,.35,.74,.53,.93,.09,.11,.19,.18,.27,.24Z"/>
      <path class="cls-2" d="M1.36,2.14c.29-.5,.58-.86,1.02-1.18,.43-.32,1.03-.6,2.36-.6h13.39c-.1,.07-.19,.15-.26,.25-.08,.1-.15,.22-.22,.38H4.44c-.99,0-1.31,.16-1.57,.36-.25,.22-.44,.46-.54,.78s-.12,.72-.12,1.72,.02,2.61-.02,5.17c-.03,2.57-.12,6.1-.16,11.17-.03,5.08,0,11.68,.07,16.87,.07,5.17,.17,8.91,.29,12.3s.24,6.42,.32,8.22c.07,1.79,.09,2.34,.16,2.75,.08,.41,.22,.7,.41,.94,.21,.24,.45,.44,.76,.58s.69,.22,1.43,.26c.73,.05,1.83,.06,3.11,.04,1.87-.01,4.53-.06,6.1-.11,1.57-.06,2.07-.12,2.28-.87-.12,.83-.39,1.08-.74,1.28-.5,.29-1.15,.5-1.93,.68-.77,.19-1.67,.37-2.81,.43-.1,0-.2,.01-.31,.01H3.76c-2.15,.02-2.48,.05-2.78,.17-.29,.12-.54,.32-.69,.6-.16,.28-.22,.64-.25,2.72,0,.27,0,.57-.02,.95v.34c-.01,1.15-.02,2.97-.02,6.4V19.51C0,16.87,.02,14.33,.05,12.4c.05-3.1,.13-4.64,.22-5.8,.08-1.17,.17-1.97,.35-2.67s.46-1.31,.74-1.79Z"/>
    </g>
    <g>
      <line class="cls-3" x1="45.98" y1="0" x2="51.51" y2="0"/>
      <line class="cls-3" x1="45.98" y1="29.12" x2="51.51" y2="29.12"/>
      <line class="cls-3" x1="51.51" y1="93.53" x2="45.98" y2="93.53"/>
      <line class="cls-3" x1="0" y1="74.75" x2="0" y2="20.2"/>
      <path class="cls-3" d="M0,74.75C0,87.2,0,89.37,.03,90.68c.04,1.44,.1,1.8,.26,2.08s.41,.48,.7,.6c.28,.12,.61,.15,2.88,.17,2.27,.01,6.49,0,23.63,0"/>
      <line class="cls-3" x1="44.59" y1="93.53" x2="27.5" y2="93.53"/>
      <path class="cls-3" d="M79.07,22.03h0c0,12.46,.03,35.98,.04,49.02,0,15.64,0,18.17-.03,19.63-.04,1.44-.1,1.8-.26,2.08s-.4,.48-.69,.6-.62,.15-2.89,.17c-2.27,.01-6.49,0-23.73,0"/>
      <line class="cls-3" x1="45.98" y1="93.53" x2="44.59" y2="93.53"/>
      <path class="cls-3" d="M79.23,17.86c0-16.97,0-17.24-.98-17.24"/>
      <path class="cls-3" d="M79.07,22.03c.08-1.2,.13-2.37,.15-3.22,.01-.38,.01-.69,.01-.95,0-.85-.05-1.2-.13-1.48-.11-.36-.27-.58-.36-.84-.08-.27-.08-.59-.04-1.4,.04-.82,.13-2.15,.19-3.99,.07-1.85,.12-4.22,.05-5.91-.06-1.67-.25-2.66-.48-3.23-.07-.16-.13-.28-.23-.38-.18-.27-.43-.37-.78-.45-.48-.11-1.15-.19-25.94-.19"/>
      <path class="cls-3" d="M51.51,29.12c9.48-.15,13.57,.15,16.88,.34s5.83,.25,7.19,.28c1.35,.03,1.54,.01,1.78-.16,.08-.06,.18-.13,.27-.24,.18-.19,.37-.48,.54-.93,.27-.69,.51-1.74,.69-3.57,.08-.84,.15-1.82,.21-2.8"/>
      <path class="cls-3" d="M78,.7c.12,2.9,.03,6.64-.05,10.62-.09,3.97-.17,8.17-.32,18.02"/>
      <path class="cls-3" d="M17.01,21.69c-.06-1.07-.11-2.11-.13-2.88-.04-1.57,0-2.07,.12-2.43s.28-.58,.36-.84c.08-.27,.08-.59,.04-1.4-.04-.82-.12-2.15-.19-3.99-.07-1.85-.12-4.22-.05-5.91,.07-1.67,.25-2.66,.48-3.23,0,0,.01,0,.01-.02,.07-.16,.14-.28,.22-.38,.07-.1,.16-.18,.26-.24,.14-.09,.31-.14,.51-.19,.48-.11,1.16-.19,25.95-.19"/>
      <path class="cls-3" d="M44.59,29.12c-9.47-.15-13.56,.15-16.87,.34s-5.85,.25-7.2,.28c-1.36,.03-1.54,.01-1.79-.16-.08-.06-.18-.13-.27-.24-.18-.19-.36-.48-.53-.93-.27-.69-.5-1.74-.69-3.57-.09-.93-.17-2.04-.23-3.12"/>
      <line class="cls-3" x1="44.59" y1="0" x2="45.98" y2="0"/>
      <line class="cls-3" x1="45.98" y1="29.12" x2="44.59" y2="29.12"/>
      <path class="cls-3" d="M16.96,61.16c.05-.36,.07-.84,.05-1.48"/>
      <path class="cls-3" d="M11.17,63.57c.11,0,.21-.01,.31-.01,1.14-.06,2.04-.24,2.81-.43,.78-.18,1.43-.39,1.93-.68,.35-.2,.62-.45,.74-1.28"/>
      <path class="cls-3" d="M10.1,63.57c.28,.01,.56,.01,.82,0"/>
      <polyline class="cls-3" points="17.01 59.68 17.01 21.72 17.01 21.69"/>
      <polyline class="cls-3" points="17.65 .99 4.44 .99 3.84 .99"/>
      <polyline class="cls-3" points="18.13 .36 4.74 .36 4.14 .36"/>
      <path class="cls-3" d="M4.74,.36c-1.33,0-1.93,.28-2.36,.6-.44,.32-.73,.68-1.02,1.18-.28,.48-.56,1.09-.74,1.79s-.27,1.5-.35,2.67c-.09,1.16-.17,2.7-.22,5.8C.02,14.33,0,16.87,0,19.51v.69C0,21.57,0,22.97,.02,24.3c.03,4.14,.11,7.77,.17,11.79,.07,4.01,.11,8.42,.16,11.83,.05,2.62,.1,4.66,.19,6.26"/>
      <path class="cls-3" d="M4.44,.99c-.99,0-1.31,.16-1.57,.36-.25,.22-.44,.46-.54,.78s-.12,.72-.12,1.72,.02,2.61-.02,5.17c-.03,2.57-.12,6.1-.16,11.17-.03,5.08,0,11.68,.07,16.87,.07,5.17,.17,8.91,.29,12.3s.24,6.42,.32,8.22c.07,1.79,.09,2.34,.16,2.75,.08,.41,.22,.7,.41,.94,.21,.24,.45,.44,.76,.58s.69,.22,1.43,.26c.73,.05,1.83,.06,3.11,.04,1.87-.01,4.53-.06,6.1-.11,1.57-.06,2.07-.12,2.28-.87h0"/>
      <path class="cls-3" d="M.54,54.24c.03,.44,.06,.87,.09,1.31,.1,1.25,.24,2.48,.57,3.7,.19,.7,.41,1.36,.82,1.97,.35,.52,.78,.91,1.31,1.24,.62,.39,1.27,.61,1.99,.75,1.14,.21,3.33,.34,4.48,.36"/>
      <path class="cls-3" d="M0,74.75c0-3.43,0-5.25,.02-6.4v-.34c.01-.38,.02-.68,.02-.95,.03-2.08,.09-2.44,.25-2.72,.15-.28,.4-.48,.69-.6,.3-.12,.63-.15,2.78-.17h7.41"/>
      <path class="cls-3" d="M18.09,.7c-.12,2.9-.03,6.64,.05,10.62,.09,3.97,.17,8.17,.32,18.02"/>
    </g>
  </g>
  <text class="cls-1" transform="translate(40.52 45.49)"><tspan x="0" y="0">110</tspan></text>
</svg>