<?xml version="1.0" encoding="UTF-8"?>
<svg id="Layer_1" data-name="Layer 1" xmlns="http://www.w3.org/2000/svg" viewBox="0 0 62.21 93.55">
  <defs>
    <style>
      .cls-1 {
        font-family: Inter18pt-Medium, 'Inter 18pt';
        font-size: 10px;
      }

      .cls-2 {
        fill: #f1f1f2;
      }

      .cls-3 {
        fill: none;
        stroke: #404041;
        stroke-linecap: round;
        stroke-linejoin: round;
        stroke-width: .35px;
      }
    </style>
  </defs>
  <g>
    <g>
      <path class="cls-2" d="M62.21,17.32c.01,.16,.01,.34,.01,.55,0,.26,0,.57-.02,.95-.02,.85-.07,2.02-.15,3.22h0c-.06,.99-.13,1.97-.21,2.8-.18,1.84-.42,2.89-.68,3.58-.17,.44-.36,.73-.54,.93,.15-9.85,.23-14.05,.32-18.02,.08-3.98,.17-7.72,.05-10.62l.23-.07c.09,.1,.16,.22,.22,.38,.23,.56,.42,1.56,.48,3.23,.07,1.68,.02,4.06-.05,5.9-.06,1.85-.15,3.17-.19,4-.04,.81-.04,1.13,.04,1.4,.09,.26,.25,.48,.36,.84,.06,.21,.11,.45,.13,.91v.02Z"/>
      <path class="cls-2" d="M62.21,17.3c-.02-.46-.07-.7-.13-.91-.11-.36-.27-.58-.36-.84-.08-.27-.08-.59-.04-1.4,.04-.83,.13-2.15,.19-4,.07-1.84,.12-4.22,.05-5.9-.06-1.67-.25-2.67-.48-3.23-.06-.16-.13-.28-.22-.38h0c.97,0,.98,.25,.98,16.66Z"/>
      <path class="cls-2" d="M62.09,71.05c0,15.64,0,18.18-.03,19.63s-.1,1.81-.26,2.09c-.15,.28-.4,.48-.69,.6-.28,.12-.61,.15-2.89,.17-1.99,.01-5.5,0-18.06,0h-12.67c-17.13,0-21.36,.01-23.62,0-2.28-.02-2.61-.05-2.89-.17-.29-.12-.54-.32-.69-.6-.16-.28-.22-.64-.26-2.09-.03-1.3-.04-3.48-.03-15.93,0-3.43,.01-5.24,.02-6.39v-.34c.01-.39,.02-.68,.02-.95,.03-2.08,.09-2.44,.25-2.72,.15-.28,.4-.49,.69-.61s.62-.15,2.78-.17h6.34c.28,.01,.55,.01,.81,0h.26c.11,0,.21-.01,.31-.01,1.13-.06,2.03-.23,2.81-.42,.78-.18,1.42-.39,1.92-.68,.35-.2,.62-.45,.74-1.28h0c.05-.37,.07-.85,.05-1.5V21.73c.06,1.08,.14,2.19,.23,3.11,.19,1.84,.43,2.89,.7,3.58,.17,.44,.35,.73,.53,.93,.09,.11,.19,.18,.27,.24,.25,.17,.43,.19,1.78,.16,1.36-.03,3.89-.09,7.2-.28,2.56-.15,5.59-.37,11.21-.38h1.23c5.64,0,8.67,.23,11.23,.38,3.3,.19,5.83,.25,7.18,.28,1.36,.03,1.55,.01,1.79-.16,.08-.06,.18-.13,.27-.24,.18-.2,.37-.49,.54-.93,.26-.69,.5-1.74,.68-3.58,.08-.83,.15-1.81,.21-2.79,0,12.45,.03,35.97,.04,49Z"/>
      <path class="cls-2" d="M61.22,.64l-.23,.07c.12,2.9,.03,6.64-.05,10.62-.09,3.97-.17,8.17-.32,18.02-.09,.11-.19,.18-.27,.24-.24,.17-.43,.19-1.79,.16-1.35-.03-3.88-.09-7.18-.28-2.56-.15-5.59-.37-11.23-.38h-1.23c-5.62,0-8.65,.23-11.21,.38-3.31,.19-5.84,.25-7.2,.28-1.35,.03-1.53,.01-1.78-.16-.08-.06-.18-.13-.27-.24-.15-9.85-.23-14.05-.32-18.02-.08-3.98-.17-7.72-.05-10.62l-.22-.09c.07-.1,.16-.18,.26-.24,.14-.09,.31-.14,.51-.19C19.08,.09,19.68,.01,38.92,0h1.23C59.29,0,59.96,.08,60.44,.19c.35,.08,.6,.18,.78,.45Z"/>
      <path class="cls-2" d="M18.14,11.33c.09,3.97,.17,8.17,.32,18.02-.18-.2-.36-.49-.53-.93-.27-.69-.51-1.74-.7-3.58-.09-.92-.17-2.03-.23-3.11h0v-.03c-.06-1.08-.11-2.11-.13-2.88-.04-1.57,0-2.07,.12-2.43s.28-.58,.37-.84c.07-.27,.07-.59,.03-1.4-.03-.83-.12-2.15-.19-3.99-.07-1.85-.12-4.22-.05-5.91,.07-1.67,.25-2.67,.49-3.23,0,0,0,0,0-.02,.07-.16,.14-.28,.22-.38l.22,.09c-.12,2.9-.03,6.64,.05,10.62Z"/>
      <path class="cls-2" d="M4.43,1c-.99,0-1.31,.16-1.56,.36-.25,.21-.44,.45-.54,.77-.1,.33-.12,.73-.12,1.73s.02,2.6-.02,5.17c-.03,2.57-.12,6.1-.16,11.17-.03,5.07,0,11.68,.07,16.86s.17,8.92,.29,12.31,.24,6.42,.32,8.22c.07,1.79,.09,2.33,.16,2.75,.08,.41,.22,.7,.41,.94,.2,.24,.44,.44,.75,.58s.69,.22,1.44,.26c.73,.05,1.82,.06,3.1,.04,1.88-.01,4.53-.06,6.11-.11,1.56-.06,2.06-.12,2.27-.87-.12,.83-.39,1.08-.74,1.28-.5,.29-1.14,.5-1.92,.68-.78,.19-1.68,.36-2.81,.42-.1,0-.2,.01-.31,.01H3.76c-2.16,.02-2.49,.05-2.78,.17s-.54,.33-.69,.61c-.16,.28-.22,.64-.25,2.72,0,.27,0,.56-.02,.95v.34c0,1.15-.02,2.96-.02,6.39V23.13c-.02-3.82,0-7.91,.04-10.72,.05-3.1,.13-4.64,.22-5.8,.08-1.18,.17-1.97,.35-2.67s.47-1.31,.75-1.8c.29-.49,.58-.85,1.02-1.17,.43-.32,1.02-.6,2.35-.6h13.4c-.1,.07-.19,.15-.26,.25-.08,.1-.15,.22-.22,.38H4.43Z"/>
      <path class="cls-2" d="M17.65,1s0,.01,0,.02c-.24,.56-.42,1.56-.49,3.23-.07,1.69-.02,4.06,.05,5.91,.07,1.84,.16,3.16,.19,3.99,.04,.81,.04,1.13-.03,1.4-.09,.26-.26,.48-.37,.84s-.16,.86-.12,2.43c.02,.77,.07,1.8,.13,2.88v.02h0V59.68c.02,.65,0,1.13-.05,1.49h0c-.21,.76-.71,.82-2.27,.88-1.58,.05-4.23,.1-6.11,.11-1.28,.02-2.37,.01-3.1-.04-.75-.04-1.13-.12-1.44-.26s-.55-.34-.75-.58c-.19-.24-.33-.53-.41-.94-.07-.42-.09-.96-.16-2.75-.08-1.8-.2-4.83-.32-8.22s-.22-7.13-.29-12.31-.1-11.79-.07-16.86c.04-5.07,.13-8.6,.16-11.17,.04-2.57,.02-4.17,.02-5.17s.02-1.4,.12-1.73c.1-.32,.29-.56,.54-.77,.25-.2,.57-.36,1.56-.36h13.22Z"/>
      <path class="cls-2" d="M10.91,63.57c-.26,.01-.53,.01-.81,0h.81Z"/>
    </g>
    <g>
      <line class="cls-3" x1="40.15" y1="0" x2="38.92" y2="0"/>
      <line class="cls-3" x1="40.15" y1="29.09" x2="38.92" y2="29.09"/>
      <line class="cls-3" x1="40.15" y1="93.54" x2="27.49" y2="93.54"/>
      <polyline class="cls-3" points="0 74.75 0 23.13 0 19.52"/>
      <path class="cls-3" d="M17,21.7c-.06-1.08-.11-2.11-.13-2.88-.04-1.57,0-2.07,.12-2.43s.28-.58,.37-.84c.07-.27,.07-.59,.03-1.4-.03-.83-.12-2.15-.19-3.99-.07-1.85-.12-4.22-.05-5.91,.07-1.67,.25-2.67,.49-3.23,0,0,0,0,0-.02,.07-.16,.14-.28,.22-.38,.07-.1,.16-.18,.26-.24,.14-.09,.31-.14,.51-.19C19.08,.09,19.68,.01,38.92,0"/>
      <path class="cls-3" d="M38.92,29.09c-5.62,0-8.65,.23-11.21,.38-3.31,.19-5.84,.25-7.2,.28-1.35,.03-1.53,.01-1.78-.16-.08-.06-.18-.13-.27-.24-.18-.2-.36-.49-.53-.93-.27-.69-.51-1.74-.7-3.58-.09-.92-.17-2.03-.23-3.11"/>
      <path class="cls-3" d="M0,74.75c0,12.45,0,14.63,.03,15.93,.04,1.45,.1,1.81,.26,2.09,.15,.28,.4,.48,.69,.6,.28,.12,.61,.15,2.89,.17,2.26,.01,6.49,0,23.62,0"/>
      <path class="cls-3" d="M16.95,61.17c.05-.36,.07-.84,.05-1.49"/>
      <path class="cls-3" d="M11.17,63.57c.11,0,.21-.01,.31-.01,1.13-.06,2.03-.23,2.81-.42,.78-.18,1.42-.39,1.92-.68,.35-.2,.62-.45,.74-1.28"/>
      <path class="cls-3" d="M10.1,63.57c.28,.01,.55,.01,.81,0"/>
      <polyline class="cls-3" points="17 59.68 17 21.73 17 21.72 17 21.7"/>
      <polyline class="cls-3" points="17.65 1 4.43 1 3.83 1"/>
      <polyline class="cls-3" points="18.13 .37 4.73 .37 4.13 .37"/>
      <path class="cls-3" d="M4.73,.37c-1.33,0-1.92,.28-2.35,.6-.44,.32-.73,.68-1.02,1.17-.28,.49-.57,1.1-.75,1.8s-.27,1.49-.35,2.67c-.09,1.16-.17,2.7-.22,5.8C0,15.22-.02,19.31,0,23.13c0,.4,.01,.79,.01,1.18,.03,4.14,.11,7.77,.17,11.79,.07,4.01,.11,8.42,.16,11.83,.05,2.62,.1,4.66,.19,6.26"/>
      <path class="cls-3" d="M4.43,1c-.99,0-1.31,.16-1.56,.36-.25,.21-.44,.45-.54,.77-.1,.33-.12,.73-.12,1.73s.02,2.6-.02,5.17c-.03,2.57-.12,6.1-.16,11.17-.03,5.07,0,11.68,.07,16.86s.17,8.92,.29,12.31,.24,6.42,.32,8.22c.07,1.79,.09,2.33,.16,2.75,.08,.41,.22,.7,.41,.94,.2,.24,.44,.44,.75,.58s.69,.22,1.44,.26c.73,.05,1.82,.06,3.1,.04,1.88-.01,4.53-.06,6.11-.11,1.56-.06,2.06-.12,2.27-.87h0"/>
      <path class="cls-3" d="M.53,54.25c.03,.43,.06,.87,.09,1.3,.1,1.25,.24,2.48,.58,3.7,.18,.7,.41,1.36,.82,1.98,.35,.52,.77,.91,1.3,1.24,.63,.39,1.28,.61,2,.74,1.06,.21,3.06,.33,4.25,.36"/>
      <path class="cls-3" d="M0,74.75c0-3.43,.01-5.24,.02-6.39v-.34c.01-.39,.02-.68,.02-.95,.03-2.08,.09-2.44,.25-2.72,.15-.28,.4-.49,.69-.61s.62-.15,2.78-.17h7.41"/>
      <path class="cls-3" d="M18.09,.71c-.12,2.9-.03,6.64,.05,10.62,.09,3.97,.17,8.17,.32,18.02"/>
      <path class="cls-3" d="M62.21,17.3c-.02-.46-.07-.7-.13-.91-.11-.36-.27-.58-.36-.84-.08-.27-.08-.59-.04-1.4,.04-.83,.13-2.15,.19-4,.07-1.84,.12-4.22,.05-5.9-.06-1.67-.25-2.67-.48-3.23-.06-.16-.13-.28-.22-.38-.18-.27-.43-.37-.78-.45C59.96,.08,59.29,0,40.15,0"/>
      <path class="cls-3" d="M62.05,22.04c.08-1.2,.13-2.37,.15-3.22,.02-.38,.02-.69,.02-.95,0-.21,0-.39-.01-.55"/>
      <path class="cls-3" d="M62.05,22.04h0c0,12.46,.03,35.98,.04,49.01,0,15.64,0,18.18-.03,19.63s-.1,1.81-.26,2.09c-.15,.28-.4,.48-.69,.6-.28,.12-.61,.15-2.89,.17-1.99,.01-5.5,0-18.06,0h-.01"/>
      <path class="cls-3" d="M40.15,29.09c5.64,0,8.67,.23,11.23,.38,3.3,.19,5.83,.25,7.18,.28,1.36,.03,1.55,.01,1.79-.16,.08-.06,.18-.13,.27-.24,.18-.2,.37-.49,.54-.93,.26-.69,.5-1.74,.68-3.58,.08-.83,.15-1.81,.21-2.79"/>
      <path class="cls-3" d="M62.21,17.87v-.57c0-16.41,0-16.67-.98-16.67"/>
      <path class="cls-3" d="M60.99,.71c.12,2.9,.03,6.64-.05,10.62-.09,3.97-.17,8.17-.32,18.02"/>
    </g>
  </g>
  <text class="cls-1" transform="translate(33.23 45.49)"><tspan x="0" y="0">80</tspan></text>
</svg>