<?xml version="1.0" encoding="UTF-8"?>
<svg id="Layer_1" data-name="Layer 1" xmlns="http://www.w3.org/2000/svg" viewBox="0 0 56.69 63.52">
  <defs>
    <style>
      .cls-1 {
        font-family: Inter18pt-Medium, 'Inter 18pt';
        font-size: 10px;
      }

      .cls-2 {
        fill: #f1f1f2;
      }

      .cls-3 {
        fill: none;
        stroke: #404041;
        stroke-linecap: round;
        stroke-linejoin: round;
        stroke-width: .35px;
      }
    </style>
  </defs>
  <g>
    <g>
      <path class="cls-2" d="M56.69,17.78v.1c0,.26-.01,.57-.02,.94-.02,.87-.07,2.04-.14,3.23-.06,.98-.13,1.98-.21,2.8-.19,1.84-.42,2.9-.69,3.58-.17,.44-.36,.73-.54,.93,.16-9.84,.24-14.06,.33-18.03,.08-3.97,.17-7.71,.05-10.6l.23-.09c.08,.1,.15,.23,.22,.39,.23,.57,.41,1.55,.48,3.24,.07,1.67,.02,4.05-.05,5.89-.07,1.86-.15,3.17-.19,3.99s-.04,1.13,.04,1.41c.08,.27,.25,.48,.36,.84,.08,.26,.13,.61,.13,1.38Z"/>
      <path class="cls-2" d="M56.69,17.78c0-.77-.05-1.12-.13-1.38-.11-.36-.28-.57-.36-.84-.08-.28-.08-.59-.04-1.41s.12-2.13,.19-3.99c.07-1.84,.12-4.22,.05-5.89-.07-1.69-.25-2.67-.48-3.24-.07-.16-.14-.29-.22-.39,.99,0,.99,.28,.99,17.14Z"/>
      <path class="cls-2" d="M56.57,50.48c.01,6.17,0,8.72-.04,10.16-.03,1.46-.09,1.81-.25,2.09-.15,.28-.4,.48-.69,.6s-.62,.16-2.88,.17c-2.27,0-6.47,0-23.67,0h-1.39c-17.2,0-21.41,0-23.67,0-2.27-.01-2.6-.05-2.88-.17-.29-.12-.54-.32-.7-.6-.15-.28-.21-.63-.25-2.09-.03-1.44-.04-3.99-.03-10.16,.01-6.18,.03-15.98,.03-28.43h.01c.06,.98,.13,1.98,.21,2.8,.18,1.84,.42,2.9,.68,3.58,.17,.44,.36,.72,.54,.92h0c.1,.11,.19,.19,.27,.25,.24,.16,.43,.18,1.78,.15,1.35-.02,3.87-.09,7.17-.28,3.3-.18,7.38-.49,16.84-.34h1.39c9.45-.15,13.53,.16,16.83,.34,3.3,.19,5.82,.26,7.18,.28,1.35,.03,1.53,0,1.77-.15,.08-.06,.17-.13,.27-.23h0c.18-.21,.37-.5,.54-.94,.27-.68,.5-1.74,.69-3.58,.08-.82,.15-1.82,.21-2.8,0,12.45,.03,22.25,.04,28.43Z"/>
      <path class="cls-2" d="M1.59,29.35c-.18-.2-.37-.48-.54-.92-.26-.68-.5-1.74-.68-3.58-.08-.82-.15-1.82-.21-2.8-.08-1.19-.13-2.36-.15-3.23-.01-.37-.01-.68-.01-.94,0-.85,.05-1.2,.13-1.48,.11-.36,.27-.57,.36-.84,.08-.28,.08-.59,.04-1.41s-.13-2.13-.19-3.99c-.07-1.84-.12-4.22-.05-5.89,.06-1.69,.25-2.67,.48-3.24,.06-.16,.13-.28,.22-.38,.18-.27,.43-.37,.78-.45C2.24,.08,2.92,0,27.65,0h1.39C53.76,0,54.44,.08,54.92,.2c.34,.08,.59,.18,.78,.44l-.23,.09c.12,2.89,.03,6.63-.05,10.6-.09,3.97-.17,8.19-.33,18.03h0c-.1,.11-.19,.18-.27,.24-.24,.16-.42,.18-1.77,.15-1.36-.02-3.88-.09-7.18-.28-3.3-.18-7.38-.49-16.83-.34h-1.39c-9.46-.15-13.54,.16-16.84,.34-3.3,.19-5.82,.26-7.17,.28-1.35,.03-1.54,0-1.78-.15-.08-.06-.17-.14-.27-.24h0Z"/>
      <path class="cls-2" d="M.98,.64h.01c-.09,.11-.16,.23-.22,.39-.23,.57-.42,1.55-.48,3.24-.07,1.67-.02,4.05,.05,5.89,.06,1.86,.15,3.17,.19,3.99s.04,1.13-.04,1.41c-.09,.27-.25,.48-.36,.84-.08,.28-.13,.63-.13,1.48C0,.92,0,.64,.98,.64Z"/>
    </g>
    <g>
      <path class="cls-3" d="M56.69,17.88v-.1c0-16.86,0-17.14-.99-17.14"/>
      <path class="cls-3" d="M0,17.88C0,.92,0,.64,.98,.64"/>
      <line class="cls-3" x1="29.04" y1="63.5" x2="27.65" y2="63.5"/>
      <line class="cls-3" x1="29.04" y1="29.13" x2="27.65" y2="29.13"/>
      <line class="cls-3" x1="27.65" y1="0" x2="29.04" y2="0"/>
      <path class="cls-3" d="M1.59,29.35c-.18-.2-.37-.48-.54-.92-.26-.68-.5-1.74-.68-3.58-.08-.82-.15-1.82-.21-2.8-.08-1.19-.13-2.36-.15-3.23-.01-.37-.01-.68-.01-.94,0-.85,.05-1.2,.13-1.48,.11-.36,.27-.57,.36-.84,.08-.28,.08-.59,.04-1.41s-.13-2.13-.19-3.99c-.07-1.84-.12-4.22-.05-5.89,.06-1.69,.25-2.67,.48-3.24,.06-.16,.13-.28,.22-.38,.18-.27,.43-.37,.78-.45C2.24,.08,2.92,0,27.65,0"/>
      <path class="cls-3" d="M27.65,29.13c-9.46-.15-13.54,.16-16.84,.34-3.3,.19-5.82,.26-7.17,.28-1.35,.03-1.54,0-1.78-.15-.08-.06-.17-.14-.27-.24"/>
      <path class="cls-3" d="M.15,22.05c0,12.45-.02,22.25-.03,28.43,0,6.17,0,8.72,.03,10.16,.04,1.46,.1,1.81,.25,2.09,.16,.28,.41,.48,.7,.6,.28,.12,.61,.16,2.88,.17,2.26,0,6.47,0,23.67,0"/>
      <path class="cls-3" d="M56.53,22.05c0,12.45,.03,22.25,.04,28.43,.01,6.17,0,8.72-.04,10.16-.03,1.46-.09,1.81-.25,2.09-.15,.28-.4,.48-.69,.6s-.62,.16-2.88,.17c-2.27,0-6.47,0-23.67,0"/>
      <path class="cls-3" d="M55.09,29.36c.18-.2,.37-.49,.54-.93,.27-.68,.5-1.74,.69-3.58,.08-.82,.15-1.82,.21-2.8,.07-1.19,.12-2.36,.14-3.23,0-.37,.02-.68,.02-.94"/>
      <path class="cls-3" d="M29.04,29.13c9.45-.15,13.53,.16,16.83,.34,3.3,.19,5.82,.26,7.18,.28,1.35,.03,1.53,0,1.77-.15,.08-.06,.17-.13,.27-.23"/>
      <path class="cls-3" d="M56.69,17.78c0-.77-.05-1.12-.13-1.38-.11-.36-.28-.57-.36-.84-.08-.28-.08-.59-.04-1.41s.12-2.13,.19-3.99c.07-1.84,.12-4.22,.05-5.89-.07-1.69-.25-2.67-.48-3.24-.07-.16-.14-.29-.22-.39-.19-.26-.44-.36-.78-.44-.48-.12-1.16-.2-25.88-.2"/>
      <path class="cls-3" d="M1.22,.73c-.12,2.89-.04,6.63,.05,10.6,.08,3.97,.17,8.19,.32,18.02h0"/>
      <path class="cls-3" d="M55.47,.73c.12,2.89,.03,6.63-.05,10.6-.09,3.97-.17,8.19-.33,18.03h0"/>
    </g>
  </g>
  <text class="cls-1" transform="translate(19.91 45.49)"><tspan x="0" y="0">100</tspan></text>
</svg>