<?xml version="1.0" encoding="UTF-8"?>
<svg id="Layer_1" data-name="Layer 1" xmlns="http://www.w3.org/2000/svg" viewBox="0 0 62.36 63.52">
  <defs>
    <style>
      .cls-1 {
        font-family: Inter18pt-Medium, 'Inter 18pt';
        font-size: 10px;
      }

      .cls-2 {
        fill: #f1f1f2;
      }

      .cls-3 {
        fill: none;
        stroke: #404041;
        stroke-linecap: round;
        stroke-linejoin: round;
        stroke-width: .35px;
      }
    </style>
  </defs>
  <g>
    <g>
      <path class="cls-2" d="M62.36,17.78v.1c0,.26,0,.57-.02,.94-.03,.87-.08,2.04-.16,3.23-.06,.98-.14,1.98-.23,2.8-.21,1.84-.46,2.9-.76,3.58-.18,.45-.39,.74-.59,.93,.17-9.84,.26-14.06,.36-18.03,.09-3.97,.19-7.71,.06-10.6l.25-.09c.09,.1,.17,.23,.24,.39,.25,.57,.45,1.55,.53,3.24,.08,1.67,.02,4.05-.05,5.89-.08,1.86-.17,3.17-.21,3.99-.05,.82-.05,1.13,.04,1.41,.09,.27,.27,.48,.4,.84,.08,.26,.14,.61,.14,1.38Z"/>
      <path class="cls-2" d="M62.36,17.78c0-.77-.06-1.12-.14-1.38-.13-.36-.31-.57-.4-.84-.09-.28-.09-.59-.04-1.41,.04-.82,.13-2.13,.21-3.99,.07-1.84,.13-4.22,.05-5.89-.08-1.69-.28-2.67-.53-3.24-.07-.16-.15-.29-.24-.39,1.09,0,1.09,.28,1.09,17.14Z"/>
      <path class="cls-2" d="M62.23,50.48c.01,6.17,0,8.72-.05,10.16-.03,1.46-.1,1.81-.27,2.09s-.44,.48-.76,.6-.68,.16-3.17,.17c-2.5,0-7.12,0-26.04,0h-1.53c-18.92,0-23.55,0-26.04,0s-2.85-.05-3.16-.17c-.32-.12-.6-.32-.77-.6s-.23-.63-.28-2.09c-.03-1.44-.04-3.99-.03-10.16,.01-6.18,.03-15.98,.03-28.43h0c.07,.98,.15,1.98,.23,2.8,.2,1.84,.47,2.9,.75,3.58,.2,.45,.41,.74,.6,.93,.1,.11,.2,.18,.29,.24,.27,.16,.48,.18,1.96,.15,1.49-.02,4.26-.09,7.89-.28,3.63-.18,8.12-.49,18.52-.34h1.53c10.4-.15,14.89,.16,18.52,.34,3.63,.19,6.4,.26,7.89,.28,1.49,.03,1.69,0,1.95-.15,.1-.06,.2-.13,.3-.23h0c.2-.2,.41-.49,.59-.94,.3-.68,.55-1.74,.76-3.58,.09-.82,.17-1.82,.23-2.8,0,12.45,.04,22.25,.05,28.43Z"/>
      <path class="cls-2" d="M1.75,29.36c-.19-.19-.4-.48-.6-.93-.28-.68-.55-1.74-.75-3.58-.08-.82-.16-1.82-.23-2.8-.08-1.19-.14-2.36-.16-3.23,0-.37,0-.68,0-.94,0-.85,.05-1.2,.14-1.48,.12-.36,.3-.57,.4-.84,.09-.28,.09-.59,.04-1.41-.04-.82-.14-2.13-.21-3.99-.07-1.84-.13-4.22-.05-5.89,.06-1.69,.27-2.67,.52-3.24,.07-.16,.15-.28,.25-.38,.19-.27,.47-.37,.85-.45C2.46,.08,3.21,0,30.41,0h1.53C59.14,0,59.88,.08,60.41,.2c.38,.08,.65,.18,.86,.44l-.25,.09c.13,2.89,.03,6.63-.06,10.6-.1,3.97-.19,8.19-.36,18.03h0c-.1,.11-.2,.18-.3,.24-.26,.16-.46,.18-1.95,.15-1.49-.02-4.26-.09-7.89-.28-3.63-.18-8.12-.49-18.52-.34h-1.53c-10.4-.15-14.89,.16-18.52,.34-3.63,.19-6.4,.26-7.89,.28-1.48,.03-1.69,0-1.96-.15-.09-.06-.19-.13-.29-.24Z"/>
      <path class="cls-2" d="M1.08,.64h0c-.1,.11-.18,.23-.25,.39-.25,.57-.46,1.55-.52,3.24-.08,1.67-.02,4.05,.05,5.89,.07,1.86,.17,3.17,.21,3.99,.05,.82,.05,1.13-.04,1.41-.1,.27-.28,.48-.4,.84-.09,.28-.14,.63-.14,1.48C0,.92,0,.64,1.08,.64Z"/>
    </g>
    <g>
      <path class="cls-3" d="M61.02,.73c.13,2.89,.03,6.63-.06,10.6-.1,3.97-.19,8.19-.36,18.03"/>
      <path class="cls-3" d="M1.34,.73c-.13,2.89-.04,6.63,.05,10.6s.19,8.19,.36,18.03"/>
      <path class="cls-3" d="M62.36,17.78c0-.77-.06-1.12-.14-1.38-.13-.36-.31-.57-.4-.84-.09-.28-.09-.59-.04-1.41,.04-.82,.13-2.13,.21-3.99,.07-1.84,.13-4.22,.05-5.89-.08-1.69-.28-2.67-.53-3.24-.07-.16-.15-.29-.24-.39-.21-.26-.48-.36-.86-.44-.53-.12-1.27-.2-28.47-.2"/>
      <path class="cls-3" d="M31.94,29.13c10.4-.15,14.89,.16,18.52,.34,3.63,.19,6.4,.26,7.89,.28,1.49,.03,1.69,0,1.95-.15,.1-.06,.2-.13,.3-.23h0c.2-.2,.41-.49,.59-.94,.3-.68,.55-1.74,.76-3.58,.09-.82,.17-1.82,.23-2.8,.08-1.19,.13-2.36,.16-3.23,.01-.37,.02-.68,.02-.94"/>
      <path class="cls-3" d="M62.18,22.05c0,12.45,.04,22.25,.05,28.43,.01,6.17,0,8.72-.05,10.16-.03,1.46-.1,1.81-.27,2.09s-.44,.48-.76,.6-.68,.16-3.17,.17c-2.5,0-7.12,0-26.04,0"/>
      <path class="cls-3" d="M.16,22.05c0,12.45-.02,22.25-.03,28.43-.01,6.17,0,8.72,.03,10.16,.05,1.46,.11,1.81,.28,2.09s.45,.48,.77,.6c.31,.12,.67,.16,3.16,.17s7.12,0,26.04,0"/>
      <path class="cls-3" d="M30.41,29.13c-10.4-.15-14.89,.16-18.52,.34-3.63,.19-6.4,.26-7.89,.28-1.48,.03-1.69,0-1.96-.15-.09-.06-.19-.13-.29-.24-.19-.19-.4-.48-.6-.93-.28-.68-.55-1.74-.75-3.58-.08-.82-.16-1.82-.23-2.8-.08-1.19-.14-2.36-.16-3.23,0-.37,0-.68,0-.94,0-.85,.05-1.2,.14-1.48,.12-.36,.3-.57,.4-.84,.09-.28,.09-.59,.04-1.41-.04-.82-.14-2.13-.21-3.99-.07-1.84-.13-4.22-.05-5.89,.06-1.69,.27-2.67,.52-3.24,.07-.16,.15-.28,.25-.38,.19-.27,.47-.37,.85-.45C2.46,.08,3.21,0,30.41,0"/>
      <line class="cls-3" x1="30.41" y1="0" x2="31.94" y2="0"/>
      <line class="cls-3" x1="31.94" y1="29.13" x2="30.41" y2="29.13"/>
      <line class="cls-3" x1="31.94" y1="63.5" x2="30.41" y2="63.5"/>
      <path class="cls-3" d="M0,17.88C0,.92,0,.64,1.08,.64"/>
      <path class="cls-3" d="M62.36,17.88v-.1c0-16.86,0-17.14-1.09-17.14"/>
    </g>
  </g>
  <text class="cls-1" transform="translate(23.92 45.49)"><tspan x="0" y="0">110</tspan></text>
</svg>