<?xml version="1.0" encoding="UTF-8"?>
<svg id="Layer_1" data-name="Layer 1" xmlns="http://www.w3.org/2000/svg" viewBox="0 0 73.55 63.52">
  <defs>
    <style>
      .cls-1 {
        font-family: Inter18pt-Medium, 'Inter 18pt';
        font-size: 10px;
      }

      .cls-2 {
        fill: #f1f1f2;
      }

      .cls-3 {
        fill: none;
        stroke: #404041;
        stroke-linecap: round;
        stroke-linejoin: round;
        stroke-width: .35px;
      }
    </style>
  </defs>
  <g>
    <g>
      <path class="cls-2" d="M0,17.88C0,18.14,0,18.45,0,18.82c.02,.85,.07,2.04,.15,3.22H.16c.06,.99,.13,1.97,.21,2.81,.18,1.83,.42,2.88,.69,3.58,.17,.44,.36,.72,.54,.92-.15-9.84-.23-14.05-.32-18.02-.08-3.97-.17-7.71-.05-10.62l-.23-.07c-.1,.1-.17,.22-.23,.38-.23,.58-.42,1.56-.48,3.24-.07,1.68-.02,4.05,.05,5.9,.06,1.84,.15,3.17,.19,3.99s.04,1.13-.04,1.4c-.09,.27-.25,.48-.36,.84C.05,16.67,0,17.03,0,17.88Z"/>
      <path class="cls-2" d="M0,17.88c0-.85,.05-1.21,.13-1.49,.11-.36,.27-.57,.36-.84,.08-.27,.08-.58,.04-1.4s-.13-2.15-.19-3.99c-.07-1.85-.12-4.22-.05-5.9,.06-1.68,.25-2.66,.48-3.24,.06-.16,.13-.28,.23-.38h-.02C0,.63,0,.9,0,17.88Z"/>
      <path class="cls-2" d="M56.54,60.38v-.17c0-.16,.01-.33,.01-.52,.02-1.58,.03-4.19,.02-9.22-.02-6.17-.04-15.97-.04-28.42-.07,.98-.14,1.96-.22,2.8-.19,1.83-.42,2.88-.69,3.58-.17,.44-.36,.73-.54,.93-.09,.1-.18,.18-.27,.24-.24,.16-.42,.18-1.77,.15-1.37-.02-3.89-.09-7.2-.28-3.31-.18-7.4-.49-16.88-.34h-1.24c-9.48-.15-13.57,.16-16.88,.34-3.31,.19-5.83,.26-7.19,.28-1.35,.03-1.54,.01-1.78-.15-.09-.06-.18-.14-.27-.25-.18-.2-.37-.48-.54-.92-.27-.7-.51-1.75-.69-3.58-.08-.84-.15-1.82-.21-2.8,0,12.45-.03,22.25-.04,28.42,0,6.18,0,8.72,.03,10.17,.04,1.44,.1,1.8,.26,2.08,.15,.28,.4,.49,.7,.61,.28,.12,.61,.16,2.88,.17s6.49,0,23.73,0h1.24c17.25,0,21.46,.01,23.74,0,2.27,0,2.59-.05,2.88-.17s.54-.32,.69-.61c.16-.28,.23-.64,.26-2.08,0-.08,0-.17,0-.26Z"/>
      <path class="cls-2" d="M1,.64l.23,.07c-.12,2.91-.03,6.65,.05,10.62,.09,3.97,.17,8.18,.32,18.02,.09,.11,.18,.19,.27,.25,.24,.16,.43,.18,1.78,.15,1.36-.02,3.88-.09,7.19-.28,3.31-.18,7.4-.49,16.88-.34h1.24c9.48-.15,13.57,.16,16.88,.34,3.31,.19,5.83,.26,7.2,.28,1.35,.03,1.53,.01,1.77-.15,.09-.06,.18-.14,.27-.24,.16-9.85,.24-14.06,.33-18.03,.08-3.97,.17-7.71,.05-10.62l.22-.09c-.07-.1-.16-.18-.26-.24-.14-.09-.31-.14-.51-.19C54.43,.08,53.76,0,28.96,0h-1.24C2.93,0,2.26,.08,1.78,.19c-.35,.08-.61,.18-.78,.45Z"/>
      <path class="cls-2" d="M55.41,11.33c-.09,3.97-.17,8.18-.33,18.03,.18-.2,.37-.49,.54-.93,.27-.7,.5-1.75,.69-3.58,.08-.84,.15-1.82,.22-2.8h0c.07-1.19,.12-2.38,.15-3.23,.04-1.56-.01-2.07-.13-2.43-.11-.36-.28-.57-.36-.84s-.08-.58-.04-1.4,.12-2.15,.19-3.99c.07-1.85,.12-4.22,.05-5.9s-.25-2.67-.48-3.24c0-.01-.01-.01-.01-.02-.07-.16-.14-.28-.22-.38l-.22,.09c.12,2.91,.03,6.65-.05,10.62Z"/>
      <path class="cls-2" d="M68.81,.38h-13.39c.1,.06,.19,.14,.26,.24,.08,.1,.15,.22,.22,.38h13.21c.28,0,.55,.01,.82,.06,.28,.04,.52,.13,.74,.31,.27,.21,.44,.44,.55,.77,.09,.28,.1,.56,.11,.85s.01,.58,.01,.87c0,2.41-.02,2.77,.02,5.18,.02,1.86,.06,3.72,.09,5.58s.05,3.72,.07,5.58c.03,5.13,0,11.75-.07,16.87-.06,4.1-.16,8.2-.29,12.3-.1,2.74-.2,5.48-.32,8.22l-.06,1.38c-.02,.37-.04,1-.11,1.37-.06,.35-.18,.65-.41,.94-.21,.25-.44,.44-.75,.58-.42,.19-.99,.24-1.43,.27-1.37,.08-3.24,.05-4.6,.02-1.54-.02-3.07-.05-4.61-.1-.37-.01-.94-.03-1.32-.1-.5-.08-.81-.24-.95-.77,.12,.84,.39,1.08,.74,1.28,.5,.3,1.14,.5,1.92,.7,.77,.17,1.68,.35,2.81,.41s2.83,0,3.56-.06c.72-.06,1.77-.14,2.6-.29,.84-.17,1.46-.42,1.99-.75,.54-.32,.97-.73,1.31-1.24s.59-1.12,.82-1.97c.23-.86,.43-1.94,.57-3.71,.14-1.76,.22-4.2,.28-7.61,.05-3.42,.09-7.82,.16-11.83,.06-4.02,.14-7.64,.17-11.8,.03-4.14,.02-8.79-.03-11.9-.05-3.09-.13-4.64-.22-5.8-.08-1.16-.17-1.96-.35-2.66s-.46-1.31-.74-1.8c-.29-.5-.58-.86-1.02-1.18s-1.03-.59-2.36-.59Z"/>
      <path class="cls-2" d="M55.9,1s.01,.01,.01,.02c.23,.57,.41,1.56,.48,3.24s.02,4.05-.05,5.9c-.07,1.84-.15,3.17-.19,3.99s-.04,1.13,.04,1.4,.25,.48,.36,.84c.12,.36,.17,.87,.13,2.43-.03,.85-.08,2.04-.15,3.22h0c0,12.46,.02,22.26,.04,28.43,.01,5.03,0,7.64-.02,9.22,0,.19-.01,.36-.01,.52v.17c0,.31,.03,.57,.06,.79h0c.14,.54,.45,.7,.95,.78,.38,.07,.95,.09,1.32,.1,1.54,.05,3.07,.08,4.61,.1,1.36,.03,3.23,.06,4.6-.02,.44-.03,1.01-.08,1.43-.27,.31-.14,.54-.33,.75-.58,.23-.29,.35-.59,.41-.94,.07-.37,.09-1,.11-1.37l.06-1.38c.12-2.74,.22-5.48,.32-8.22,.13-4.1,.23-8.2,.29-12.3,.07-5.12,.1-11.74,.07-16.87-.02-1.86-.04-3.72-.07-5.58s-.07-3.72-.09-5.58c-.04-2.41-.02-2.77-.02-5.18,0-.29,0-.58-.01-.87s-.02-.57-.11-.85c-.11-.33-.28-.56-.55-.77-.22-.18-.46-.27-.74-.31-.27-.05-.54-.06-.82-.06h-13.21Z"/>
    </g>
    <g>
      <line class="cls-3" x1="27.72" y1="29.13" x2="28.96" y2="29.13"/>
      <line class="cls-3" x1="27.72" y1="0" x2="28.96" y2="0"/>
      <line class="cls-3" x1="27.72" y1="63.5" x2="28.96" y2="63.5"/>
      <path class="cls-3" d="M0,17.88C0,.9,0,.63,.98,.63"/>
      <path class="cls-3" d="M27.72,29.13c-9.48-.15-13.57,.16-16.88,.34-3.31,.19-5.83,.26-7.19,.28-1.35,.03-1.54,.01-1.78-.15-.09-.06-.18-.14-.27-.25-.18-.2-.37-.48-.54-.92-.27-.7-.51-1.75-.69-3.58-.08-.84-.15-1.82-.21-2.8H.16c-.08-1.19-.13-2.38-.15-3.23-.01-.37-.01-.68-.01-.94,0-.85,.05-1.21,.13-1.49,.11-.36,.27-.57,.36-.84,.08-.27,.08-.58,.04-1.4s-.13-2.15-.19-3.99c-.07-1.85-.12-4.22-.05-5.9,.06-1.68,.25-2.66,.48-3.24,.06-.16,.13-.28,.23-.38,.17-.27,.43-.37,.78-.45C2.26,.08,2.93,0,27.72,0"/>
      <path class="cls-3" d="M.16,22.05c0,12.45-.03,22.25-.04,28.42,0,6.18,0,8.72,.03,10.17,.04,1.44,.1,1.8,.26,2.08,.15,.28,.4,.49,.7,.61,.28,.12,.61,.16,2.88,.17s6.49,0,23.73,0"/>
      <path class="cls-3" d="M1.23,.71c-.12,2.91-.03,6.65,.05,10.62,.09,3.97,.17,8.18,.32,18.02"/>
      <path class="cls-3" d="M55.46,.71c.12,2.91,.03,6.65-.05,10.62-.09,3.97-.17,8.18-.33,18.03"/>
      <path class="cls-3" d="M68.81,.38c1.33,0,1.92,.27,2.36,.59s.73,.68,1.02,1.18c.28,.49,.56,1.1,.74,1.8s.27,1.5,.35,2.66c.09,1.16,.17,2.71,.22,5.8,.05,3.11,.06,7.76,.03,11.9-.03,4.16-.11,7.78-.17,11.8-.07,4.01-.11,8.41-.16,11.83-.06,3.41-.14,5.85-.28,7.61-.14,1.77-.34,2.85-.57,3.71-.23,.85-.48,1.46-.82,1.97s-.77,.92-1.31,1.24c-.53,.33-1.15,.58-1.99,.75-.83,.15-1.88,.23-2.6,.29-.73,.06-2.43,.12-3.56,.06s-2.04-.24-2.81-.41c-.78-.2-1.42-.4-1.92-.7-.35-.2-.62-.44-.74-1.28h0c-.03-.23-.06-.49-.06-.8,0-.05,0-.11,0-.17"/>
      <path class="cls-3" d="M69.11,1c.28,0,.55,.01,.82,.06,.28,.04,.52,.13,.74,.31,.27,.21,.44,.44,.55,.77,.09,.28,.1,.56,.11,.85s.01,.58,.01,.87c0,2.41-.02,2.77,.02,5.18,.02,1.86,.06,3.72,.09,5.58s.05,3.72,.07,5.58c.03,5.13,0,11.75-.07,16.87-.06,4.1-.16,8.2-.29,12.3-.1,2.74-.2,5.48-.32,8.22l-.06,1.38c-.02,.37-.04,1-.11,1.37-.06,.35-.18,.65-.41,.94-.21,.25-.44,.44-.75,.58-.42,.19-.99,.24-1.43,.27-1.37,.08-3.24,.05-4.6,.02-1.54-.02-3.07-.05-4.61-.1-.37-.01-.94-.03-1.32-.1-.5-.08-.81-.24-.95-.77"/>
      <line class="cls-3" x1="55.9" y1="1" x2="69.11" y2="1"/>
      <line class="cls-3" x1="55.42" y1=".38" x2="68.81" y2=".38"/>
      <path class="cls-3" d="M56.53,22.04c.07-1.18,.12-2.37,.15-3.22,.04-1.56-.01-2.07-.13-2.43-.11-.36-.28-.57-.36-.84s-.08-.58-.04-1.4,.12-2.15,.19-3.99c.07-1.85,.12-4.22,.05-5.9s-.25-2.67-.48-3.24c0-.01-.01-.01-.01-.02-.07-.16-.14-.28-.22-.38-.07-.1-.16-.18-.26-.24-.14-.09-.31-.14-.51-.19C54.43,.08,53.76,0,28.96,0"/>
      <path class="cls-3" d="M28.96,29.13c9.48-.15,13.57,.16,16.88,.34,3.31,.19,5.83,.26,7.2,.28,1.35,.03,1.53,.01,1.77-.15,.09-.06,.18-.14,.27-.24,.18-.2,.37-.49,.54-.93,.27-.7,.5-1.75,.69-3.58,.08-.84,.15-1.82,.22-2.8"/>
      <path class="cls-3" d="M56.53,22.04h0c0,12.46,.02,22.26,.04,28.43,.01,5.03,0,7.64-.02,9.22,0,.19-.01,.36-.01,.52v.17c0,.09,0,.18,0,.26-.03,1.44-.1,1.8-.26,2.08-.15,.29-.4,.49-.69,.61s-.61,.16-2.88,.17c-2.28,.01-6.49,0-23.74,0"/>
    </g>
  </g>
  <text class="cls-1" transform="translate(20.52 45.49)"><tspan x="0" y="0">100</tspan></text>
</svg>