<?xml version="1.0" encoding="UTF-8"?>
<svg id="Layer_1" data-name="Layer 1" xmlns="http://www.w3.org/2000/svg" viewBox="0 0 68.04 63.52">
  <defs>
    <style>
      .cls-1 {
        font-family: Inter18pt-Medium, 'Inter 18pt';
        font-size: 10px;
      }

      .cls-2 {
        fill: #f1f1f2;
      }

      .cls-3 {
        fill: none;
        stroke: #404041;
        stroke-linecap: round;
        stroke-linejoin: round;
        stroke-width: .35px;
      }
    </style>
  </defs>
  <g>
    <g>
      <path class="cls-2" d="M0,17.88C0,18.14,0,18.45,0,18.82c.02,.85,.07,2.03,.15,3.22H.16c.06,.99,.13,1.97,.21,2.8,.18,1.84,.42,2.89,.69,3.58,.17,.43,.36,.72,.53,.92-.14-9.83-.23-14.04-.32-18.01-.08-3.97-.16-7.71-.05-10.62l-.23-.07c-.09,.1-.16,.22-.22,.38-.23,.57-.42,1.56-.48,3.24-.07,1.68-.02,4.05,.05,5.9,.06,1.84,.15,3.16,.19,3.99,.04,.82,.04,1.13-.04,1.4-.09,.27-.25,.48-.36,.84C.05,16.67,0,17.02,0,17.88Z"/>
      <path class="cls-2" d="M0,17.88c0-.86,.05-1.21,.13-1.49,.11-.36,.27-.57,.36-.84,.08-.27,.08-.58,.04-1.4-.04-.83-.13-2.15-.19-3.99-.07-1.85-.12-4.22-.05-5.9,.06-1.68,.25-2.67,.48-3.24,.06-.16,.13-.28,.22-.38h0C0,.63,0,.9,0,17.88Z"/>
      <path class="cls-2" d="M.12,50.47c-.01,6.18,0,8.71,.03,10.17,.04,1.44,.1,1.8,.26,2.08,.15,.28,.4,.49,.69,.6,.28,.12,.62,.17,2.89,.17,2.05,0,5.68,0,19.01,0h5.17c13.34,0,16.96,0,19.01,0,2.28-.01,2.6-.05,2.89-.17s.54-.32,.69-.6c.16-.28,.22-.64,.25-2.08,0-.13,.01-.28,.01-.43,0-.16,.01-.33,.01-.53,.02-1.57,.03-4.19,.02-9.21,0-6.18-.04-15.97-.04-28.42-.06,.98-.13,1.96-.21,2.79-.19,1.84-.42,2.89-.69,3.58-.17,.45-.36,.74-.54,.94-.09,.11-.18,.18-.27,.24-.24,.16-.42,.18-1.78,.15-1.36-.02-3.89-.09-7.19-.28-2.7-.15-5.92-.38-12.16-.38h-5.17c-6.24,0-9.46,.23-12.16,.38-3.31,.19-5.83,.26-7.19,.28-1.35,.03-1.54,.01-1.78-.15-.08-.06-.18-.14-.28-.25h0c-.17-.21-.36-.5-.53-.93-.27-.69-.51-1.74-.69-3.58-.08-.83-.15-1.81-.21-2.79,0,12.45-.03,22.24-.04,28.42Z"/>
      <path class="cls-2" d="M.99,.64l.23,.07c-.11,2.91-.03,6.65,.05,10.62,.09,3.97,.18,8.18,.32,18.01h0c.1,.12,.2,.2,.28,.26,.24,.16,.43,.18,1.78,.15,1.36-.02,3.88-.09,7.19-.28,2.7-.15,5.92-.38,12.16-.38h5.17c6.24,0,9.46,.23,12.16,.38,3.3,.19,5.83,.26,7.19,.28,1.36,.03,1.54,.01,1.78-.15,.09-.06,.18-.13,.27-.24,.16-9.85,.24-14.06,.33-18.03,.08-3.97,.17-7.71,.05-10.62l.22-.09c-.07-.1-.16-.18-.26-.24-.14-.09-.31-.14-.51-.19C48.95,.09,48.34,0,28.17,0h-5.17C2.84,0,2.22,.09,1.78,.19c-.35,.08-.61,.18-.79,.45Z"/>
      <path class="cls-2" d="M49.9,11.33c-.09,3.97-.17,8.18-.33,18.03,.18-.2,.37-.49,.54-.94,.27-.69,.5-1.74,.69-3.58,.08-.83,.15-1.81,.21-2.79h0c.07-1.2,.12-2.38,.15-3.23,.04-1.57,0-2.07-.12-2.43s-.28-.57-.36-.84-.08-.58-.04-1.4c.04-.83,.12-2.15,.19-3.99,.07-1.85,.12-4.23,.05-5.9-.07-1.68-.25-2.67-.48-3.24,0-.01-.01-.01-.01-.02-.07-.16-.14-.28-.22-.38l-.22,.09c.12,2.91,.03,6.65-.05,10.62Z"/>
      <path class="cls-2" d="M63.3,.38h-13.39c.1,.06,.19,.14,.26,.24,.08,.1,.15,.22,.22,.38h13.21c.27,0,.55,.01,.82,.06,.28,.04,.52,.12,.74,.31,.26,.21,.44,.44,.55,.77,.08,.28,.09,.56,.1,.85s.01,.58,.01,.87c0,2.41-.01,2.76,.02,5.17,.03,1.87,.07,3.73,.1,5.59s.05,3.72,.07,5.58c.03,5.12,0,11.74-.07,16.87-.06,4.1-.16,8.2-.3,12.3-.09,2.74-.2,5.48-.32,8.22-.01,.46-.03,.92-.05,1.38-.02,.37-.04,1-.11,1.37-.06,.35-.18,.65-.41,.94-.21,.25-.45,.44-.75,.58-.42,.19-.99,.24-1.43,.27-1.37,.08-3.24,.05-4.61,.02-1.53-.02-3.07-.05-4.6-.1-.38-.01-.95-.03-1.32-.1-.5-.08-.81-.24-.96-.77,.12,.84,.39,1.08,.74,1.28,.51,.3,1.15,.5,1.93,.69,.77,.18,1.67,.36,2.81,.41,1.13,.07,2.82,0,3.55-.06s1.77-.13,2.61-.29,1.46-.41,1.99-.74c.53-.32,.96-.73,1.31-1.24,.34-.51,.59-1.12,.82-1.98,.23-.85,.43-1.93,.57-3.7,.14-1.76,.22-4.2,.28-7.62,.05-3.41,.09-7.82,.16-11.83,.06-4.01,.14-7.64,.17-11.79,.03-4.14,.02-8.79-.03-11.9-.05-3.1-.13-4.64-.22-5.8-.08-1.17-.17-1.96-.35-2.66s-.46-1.31-.74-1.8c-.29-.5-.58-.86-1.02-1.18-.45-.32-1.03-.59-2.36-.59Z"/>
      <path class="cls-2" d="M50.39,1s.01,.01,.01,.02c.23,.57,.41,1.56,.48,3.24,.07,1.67,.02,4.05-.05,5.9-.07,1.84-.15,3.16-.19,3.99-.04,.82-.04,1.13,.04,1.4s.25,.48,.36,.84,.16,.86,.12,2.43c-.03,.85-.08,2.03-.15,3.22h0c0,12.46,.03,22.25,.04,28.43,.01,5.02,0,7.64-.02,9.21,0,.2-.01,.37-.01,.53,0,.39,.02,.7,.06,.96h0c.15,.54,.46,.7,.96,.78,.37,.07,.94,.09,1.32,.1,1.53,.05,3.07,.08,4.6,.1,1.37,.03,3.24,.06,4.61-.02,.44-.03,1.01-.08,1.43-.27,.3-.14,.54-.33,.75-.58,.23-.29,.35-.59,.41-.94,.07-.37,.09-1,.11-1.37,.02-.46,.04-.92,.05-1.38,.12-2.74,.23-5.48,.32-8.22,.14-4.1,.24-8.2,.3-12.3,.07-5.13,.1-11.75,.07-16.87-.02-1.86-.04-3.72-.07-5.58s-.07-3.72-.1-5.59c-.03-2.41-.02-2.76-.02-5.17,0-.29,0-.58-.01-.87s-.02-.57-.1-.85c-.11-.33-.29-.56-.55-.77-.22-.19-.46-.27-.74-.31-.27-.05-.55-.06-.82-.06h-13.21Z"/>
    </g>
    <g>
      <line class="cls-3" x1="23" y1="0" x2="28.17" y2="0"/>
      <line class="cls-3" x1="23" y1="29.09" x2="28.17" y2="29.09"/>
      <line class="cls-3" x1="23" y1="63.49" x2="28.17" y2="63.5"/>
      <path class="cls-3" d="M.16,22.05c0,12.45-.03,22.24-.04,28.42s0,8.71,.03,10.17c.04,1.44,.1,1.8,.26,2.08,.15,.28,.4,.49,.69,.6,.28,.12,.62,.17,2.89,.17,2.05,0,5.68,0,19.01,0"/>
      <path class="cls-3" d="M1.59,29.34c-.17-.2-.36-.49-.53-.92-.27-.69-.51-1.74-.69-3.58-.08-.83-.15-1.81-.21-2.79H.16c-.08-1.2-.13-2.38-.15-3.23-.01-.37-.01-.68-.01-.94,0-.86,.05-1.21,.13-1.49,.11-.36,.27-.57,.36-.84,.08-.27,.08-.58,.04-1.4-.04-.83-.13-2.15-.19-3.99-.07-1.85-.12-4.22-.05-5.9,.06-1.68,.25-2.67,.48-3.24,.06-.16,.13-.28,.22-.38,.18-.27,.44-.37,.79-.45C2.22,.09,2.84,0,23,0"/>
      <path class="cls-3" d="M23,29.09c-6.24,0-9.46,.23-12.16,.38-3.31,.19-5.83,.26-7.19,.28-1.35,.03-1.54,.01-1.78-.15-.08-.06-.18-.14-.28-.25"/>
      <path class="cls-3" d="M1.22,.71c-.11,2.91-.03,6.65,.05,10.62,.09,3.97,.18,8.18,.32,18.01h0"/>
      <path class="cls-3" d="M0,17.88C0,.9,0,.63,.98,.63"/>
      <path class="cls-3" d="M51.01,22.04h0c0,12.46,.03,22.25,.04,28.43,.01,5.02,0,7.64-.02,9.21,0,.2-.01,.37-.01,.53,0,.15-.01,.3-.01,.43-.03,1.44-.09,1.8-.25,2.08-.15,.28-.4,.48-.69,.6s-.61,.16-2.89,.17c-2.05,0-5.67,0-19.01,0"/>
      <path class="cls-3" d="M28.17,29.09c6.24,0,9.46,.23,12.16,.38,3.3,.19,5.83,.26,7.19,.28,1.36,.03,1.54,.01,1.78-.15,.09-.06,.18-.13,.27-.24,.18-.2,.37-.49,.54-.94,.27-.69,.5-1.74,.69-3.58,.08-.83,.15-1.81,.21-2.79"/>
      <path class="cls-3" d="M51.01,22.04c.07-1.19,.12-2.37,.15-3.22,.04-1.57,0-2.07-.12-2.43s-.28-.57-.36-.84-.08-.58-.04-1.4c.04-.83,.12-2.15,.19-3.99,.07-1.85,.12-4.23,.05-5.9-.07-1.68-.25-2.67-.48-3.24,0-.01-.01-.01-.01-.02-.07-.16-.14-.28-.22-.38-.07-.1-.16-.18-.26-.24-.14-.09-.31-.14-.51-.19C48.95,.09,48.34,0,28.17,0"/>
      <line class="cls-3" x1="49.91" y1=".38" x2="63.3" y2=".38"/>
      <line class="cls-3" x1="50.39" y1="1" x2="63.6" y2="1"/>
      <path class="cls-3" d="M63.6,1c.27,0,.55,.01,.82,.06,.28,.04,.52,.12,.74,.31,.26,.21,.44,.44,.55,.77,.08,.28,.09,.56,.1,.85s.01,.58,.01,.87c0,2.41-.01,2.76,.02,5.17,.03,1.87,.07,3.73,.1,5.59s.05,3.72,.07,5.58c.03,5.12,0,11.74-.07,16.87-.06,4.1-.16,8.2-.3,12.3-.09,2.74-.2,5.48-.32,8.22-.01,.46-.03,.92-.05,1.38-.02,.37-.04,1-.11,1.37-.06,.35-.18,.65-.41,.94-.21,.25-.45,.44-.75,.58-.42,.19-.99,.24-1.43,.27-1.37,.08-3.24,.05-4.61,.02-1.53-.02-3.07-.05-4.6-.1-.38-.01-.95-.03-1.32-.1-.5-.08-.81-.24-.96-.77"/>
      <path class="cls-3" d="M63.3,.38c1.33,0,1.91,.27,2.36,.59,.44,.32,.73,.68,1.02,1.18,.28,.49,.56,1.1,.74,1.8s.27,1.49,.35,2.66c.09,1.16,.17,2.7,.22,5.8,.05,3.11,.06,7.76,.03,11.9-.03,4.15-.11,7.78-.17,11.79-.07,4.01-.11,8.42-.16,11.83-.06,3.42-.14,5.86-.28,7.62-.14,1.77-.34,2.85-.57,3.7-.23,.86-.48,1.47-.82,1.98-.35,.51-.78,.92-1.31,1.24-.53,.33-1.15,.58-1.99,.74s-1.88,.23-2.61,.29-2.42,.13-3.55,.06c-1.14-.05-2.04-.23-2.81-.41-.78-.19-1.42-.39-1.93-.69-.35-.2-.62-.44-.74-1.28h0c-.04-.27-.06-.58-.06-.97"/>
      <path class="cls-3" d="M49.95,.71c.12,2.91,.03,6.65-.05,10.62-.09,3.97-.17,8.18-.33,18.03"/>
    </g>
  </g>
  <text class="cls-1" transform="translate(19.27 45.49)"><tspan x="0" y="0">90</tspan></text>
</svg>