<?xml version="1.0" encoding="UTF-8"?>
<svg id="Layer_1" data-name="Layer 1" xmlns="http://www.w3.org/2000/svg" viewBox="0 0 62.21 63.52">
  <defs>
    <style>
      .cls-1 {
        font-family: Inter18pt-Medium, 'Inter 18pt';
        font-size: 10px;
      }

      .cls-2 {
        fill: #f1f1f2;
      }

      .cls-3 {
        fill: none;
        stroke: #404041;
        stroke-linecap: round;
        stroke-linejoin: round;
        stroke-width: .35px;
      }
    </style>
  </defs>
  <g>
    <g>
      <path class="cls-2" d="M0,17.88C0,18.14,0,18.45,.01,18.82c.02,.85,.07,2.03,.15,3.22H.16c.06,.99,.13,1.97,.21,2.8,.18,1.84,.42,2.89,.68,3.58,.17,.44,.36,.73,.54,.93-.15-9.84-.23-14.05-.32-18.02-.08-3.97-.17-7.71-.05-10.62l-.23-.07c-.09,.1-.16,.22-.22,.38-.23,.57-.42,1.56-.48,3.24-.07,1.67-.02,4.05,.05,5.9,.06,1.84,.15,3.16,.19,3.99,.04,.82,.04,1.13-.04,1.4-.09,.27-.25,.48-.36,.84C.05,16.67,0,17.02,0,17.88Z"/>
      <path class="cls-2" d="M0,17.88c0-.86,.05-1.21,.13-1.49,.11-.36,.27-.57,.36-.84,.08-.27,.08-.58,.04-1.4-.04-.83-.13-2.15-.19-3.99-.07-1.85-.12-4.23-.05-5.9,.06-1.68,.25-2.67,.48-3.24,.06-.16,.13-.28,.22-.38h-.01C0,.63,0,.9,0,17.88Z"/>
      <path class="cls-2" d="M.12,50.47c-.01,6.18,0,8.71,.03,10.17,.04,1.44,.1,1.8,.26,2.08,.15,.28,.4,.48,.69,.6,.28,.12,.61,.17,2.89,.17,2.04,0,5.68,0,19.01,0,12.68,0,16.31,0,18.36,0,2.27-.01,2.6-.05,2.89-.17s.54-.32,.69-.6c.16-.28,.22-.64,.25-2.08,0-.13,.01-.28,.01-.43,0-.16,0-.33,0-.53,.02-1.57,.03-4.19,.02-9.21,0-6.18-.04-15.97-.04-28.42-.06,.98-.13,1.96-.21,2.79-.19,1.84-.42,2.89-.69,3.58-.17,.45-.36,.74-.55,.94-.09,.11-.18,.18-.27,.24-.24,.16-.42,.18-1.77,.15-1.36-.02-3.89-.09-7.2-.28-2.7-.15-5.92-.38-11.5-.38-6.24,0-9.46,.23-12.16,.38-3.31,.19-5.84,.26-7.19,.28-1.36,.03-1.55,.01-1.79-.15-.08-.06-.18-.14-.27-.25-.18-.2-.37-.49-.54-.93-.26-.69-.5-1.74-.68-3.58-.08-.83-.15-1.81-.21-2.79,0,12.45-.03,22.24-.04,28.42Z"/>
      <path class="cls-2" d="M.99,.64l.23,.07c-.12,2.91-.03,6.65,.05,10.62,.09,3.97,.17,8.18,.32,18.02,.09,.11,.19,.19,.27,.25,.24,.16,.43,.18,1.79,.15,1.35-.02,3.88-.09,7.19-.28,2.7-.15,5.92-.38,12.16-.38,5.58,0,8.8,.23,11.5,.38,3.31,.19,5.84,.26,7.2,.28,1.35,.03,1.53,.01,1.77-.15,.09-.06,.18-.13,.27-.24,.17-9.85,.25-14.06,.34-18.03,.08-3.97,.16-7.71,.05-10.62l.22-.09c-.08-.1-.16-.18-.26-.24-.15-.09-.31-.14-.52-.19C43.13,.09,42.51,0,23,0,2.84,0,2.22,.09,1.77,.19c-.35,.08-.6,.18-.78,.45Z"/>
      <path class="cls-2" d="M44.08,11.33c-.09,3.97-.17,8.18-.34,18.03,.19-.2,.38-.49,.55-.94,.27-.69,.5-1.74,.69-3.58,.08-.83,.15-1.81,.21-2.79h0c.07-1.2,.12-2.38,.15-3.23,.04-1.57-.01-2.07-.12-2.43s-.28-.57-.36-.84-.08-.58-.04-1.4c.04-.83,.12-2.15,.19-3.99,.07-1.85,.12-4.23,.05-5.9-.07-1.68-.25-2.67-.48-3.24,0-.01-.01-.01-.01-.02-.07-.16-.14-.28-.22-.38l-.22,.09c.11,2.91,.03,6.65-.05,10.62Z"/>
      <path class="cls-2" d="M57.47,.38h-13.38c.1,.06,.18,.14,.26,.24s.15,.22,.22,.38h13.2c.28,0,.55,.01,.82,.06,.28,.04,.52,.12,.75,.31,.26,.21,.44,.44,.54,.76,.09,.29,.1,.57,.11,.86s.01,.58,.01,.87c0,2.41-.02,2.76,.02,5.17,.02,1.86,.06,3.73,.09,5.59s.06,3.72,.07,5.58c.03,5.12,0,11.74-.07,16.87-.06,4.1-.16,8.2-.29,12.3-.1,2.74-.2,5.48-.32,8.22l-.06,1.38c-.01,.37-.04,1-.1,1.37-.07,.35-.19,.65-.41,.94-.21,.25-.45,.44-.75,.58-.43,.19-.99,.24-1.44,.27-1.37,.08-3.23,.05-4.6,.02-1.54-.02-3.07-.05-4.61-.1-.37-.01-.94-.03-1.31-.1-.51-.08-.81-.24-.96-.77,.12,.84,.39,1.08,.74,1.28,.5,.3,1.14,.5,1.93,.69,.77,.18,1.67,.36,2.8,.41,1.13,.07,2.83,0,3.56-.06s1.77-.13,2.6-.29c.84-.16,1.47-.41,2-.74,.53-.32,.96-.73,1.3-1.24s.59-1.12,.82-1.98c.23-.85,.43-1.93,.57-3.7,.14-1.76,.22-4.2,.29-7.62,.04-3.41,.08-7.82,.16-11.83,.06-4.01,.14-7.64,.17-11.79,.03-4.14,.02-8.79-.03-11.9-.05-3.1-.14-4.64-.23-5.8-.07-1.17-.16-1.96-.35-2.66-.18-.7-.46-1.31-.74-1.8-.29-.5-.58-.86-1.02-1.18s-1.02-.59-2.36-.59Z"/>
      <path class="cls-2" d="M44.57,1s.01,.01,.01,.02c.23,.57,.41,1.56,.48,3.24,.07,1.67,.02,4.05-.05,5.9-.07,1.84-.15,3.16-.19,3.99-.04,.82-.04,1.13,.04,1.4s.25,.48,.36,.84,.16,.86,.12,2.43c-.03,.85-.08,2.03-.15,3.22h0c0,12.46,.03,22.25,.04,28.43,.01,5.02,0,7.64-.02,9.21,0,.2,0,.37,0,.53,0,.39,.02,.7,.06,.96h0c.15,.54,.45,.7,.96,.78,.37,.07,.94,.09,1.31,.1,1.54,.05,3.07,.08,4.61,.1,1.37,.03,3.23,.06,4.6-.02,.45-.03,1.01-.08,1.44-.27,.3-.14,.54-.33,.75-.58,.22-.29,.34-.59,.41-.94,.06-.37,.09-1,.1-1.37l.06-1.38c.12-2.74,.22-5.48,.32-8.22,.13-4.1,.23-8.2,.29-12.3,.07-5.13,.1-11.75,.07-16.87-.01-1.86-.04-3.72-.07-5.58s-.07-3.73-.09-5.59c-.04-2.41-.02-2.76-.02-5.17,0-.29,0-.58-.01-.87s-.02-.57-.11-.86c-.1-.32-.28-.55-.54-.76-.23-.19-.47-.27-.75-.31-.27-.05-.54-.06-.82-.06h-13.2Z"/>
    </g>
    <g>
      <path class="cls-3" d="M45.19,22.04h0c0,12.46,.03,22.25,.04,28.43,.01,5.02,0,7.64-.02,9.21,0,.2,0,.37,0,.53,0,.15-.01,.3-.01,.43-.03,1.44-.09,1.8-.25,2.08-.15,.28-.4,.48-.69,.6s-.62,.16-2.89,.17c-2.05,0-5.68,0-18.36,0"/>
      <path class="cls-3" d="M23,29.09c5.58,0,8.8,.23,11.5,.38,3.31,.19,5.84,.26,7.2,.28,1.35,.03,1.53,.01,1.77-.15,.09-.06,.18-.13,.27-.24,.19-.2,.38-.49,.55-.94,.27-.69,.5-1.74,.69-3.58,.08-.83,.15-1.81,.21-2.79"/>
      <path class="cls-3" d="M45.19,22.04c.07-1.19,.12-2.37,.15-3.22,.04-1.57-.01-2.07-.12-2.43s-.28-.57-.36-.84-.08-.58-.04-1.4c.04-.83,.12-2.15,.19-3.99,.07-1.85,.12-4.23,.05-5.9-.07-1.68-.25-2.67-.48-3.24,0-.01-.01-.01-.01-.02-.07-.16-.14-.28-.22-.38s-.16-.18-.26-.24c-.15-.09-.31-.14-.52-.19C43.13,.09,42.51,0,23,0"/>
      <path class="cls-3" d="M0,17.88C0,.9,0,.63,.98,.63"/>
      <path class="cls-3" d="M1.22,.71c-.12,2.91-.03,6.65,.05,10.62,.09,3.97,.17,8.18,.32,18.02"/>
      <path class="cls-3" d="M23,29.09c-6.24,0-9.46,.23-12.16,.38-3.31,.19-5.84,.26-7.19,.28-1.36,.03-1.55,.01-1.79-.15-.08-.06-.18-.14-.27-.25-.18-.2-.37-.49-.54-.93-.26-.69-.5-1.74-.68-3.58-.08-.83-.15-1.81-.21-2.79H.16c-.08-1.2-.13-2.38-.15-3.23-.01-.37-.01-.68-.01-.94,0-.86,.05-1.21,.13-1.49,.11-.36,.27-.57,.36-.84,.08-.27,.08-.58,.04-1.4-.04-.83-.13-2.15-.19-3.99-.07-1.85-.12-4.23-.05-5.9,.06-1.68,.25-2.67,.48-3.24,.06-.16,.13-.28,.22-.38,.18-.27,.43-.37,.78-.45C2.22,.09,2.84,0,23,0"/>
      <path class="cls-3" d="M.16,22.05c0,12.45-.03,22.24-.04,28.42s0,8.71,.03,10.17c.04,1.44,.1,1.8,.26,2.08,.15,.28,.4,.48,.69,.6,.28,.12,.61,.17,2.89,.17,2.04,0,5.68,0,19.01,0"/>
      <path class="cls-3" d="M44.13,.71c.11,2.91,.03,6.65-.05,10.62-.09,3.97-.17,8.18-.34,18.03"/>
      <path class="cls-3" d="M57.47,.38c1.34,0,1.92,.27,2.36,.59s.73,.68,1.02,1.18c.28,.49,.56,1.1,.74,1.8,.19,.7,.28,1.49,.35,2.66,.09,1.16,.18,2.7,.23,5.8,.05,3.11,.06,7.76,.03,11.9-.03,4.15-.11,7.78-.17,11.79-.08,4.01-.12,8.42-.16,11.83-.07,3.42-.15,5.86-.29,7.62-.14,1.77-.34,2.85-.57,3.7-.23,.86-.48,1.47-.82,1.98s-.77,.92-1.3,1.24c-.53,.33-1.16,.58-2,.74-.83,.16-1.87,.23-2.6,.29s-2.43,.13-3.56,.06c-1.13-.05-2.03-.23-2.8-.41-.79-.19-1.43-.39-1.93-.69-.35-.2-.62-.44-.74-1.28h0c-.04-.27-.06-.58-.06-.97"/>
      <path class="cls-3" d="M57.77,1c.28,0,.55,.01,.82,.06,.28,.04,.52,.12,.75,.31,.26,.21,.44,.44,.54,.76,.09,.29,.1,.57,.11,.86s.01,.58,.01,.87c0,2.41-.02,2.76,.02,5.17,.02,1.86,.06,3.73,.09,5.59s.06,3.72,.07,5.58c.03,5.12,0,11.74-.07,16.87-.06,4.1-.16,8.2-.29,12.3-.1,2.74-.2,5.48-.32,8.22l-.06,1.38c-.01,.37-.04,1-.1,1.37-.07,.35-.19,.65-.41,.94-.21,.25-.45,.44-.75,.58-.43,.19-.99,.24-1.44,.27-1.37,.08-3.23,.05-4.6,.02-1.54-.02-3.07-.05-4.61-.1-.37-.01-.94-.03-1.31-.1-.51-.08-.81-.24-.96-.77"/>
      <line class="cls-3" x1="44.57" y1="1" x2="57.77" y2="1"/>
      <line class="cls-3" x1="44.09" y1=".38" x2="57.47" y2=".38"/>
    </g>
  </g>
  <text class="cls-1" transform="translate(17.16 45.49)"><tspan x="0" y="0">80</tspan></text>
</svg>