<?xml version="1.0" encoding="UTF-8"?>
<svg id="Layer_1" data-name="Layer 1" xmlns="http://www.w3.org/2000/svg" viewBox="0 0 73.55 63.52">
  <defs>
    <style>
      .cls-1 {
        font-family: Inter18pt-Medium, 'Inter 18pt';
        font-size: 10px;
      }

      .cls-2 {
        fill: #f1f1f2;
      }

      .cls-3 {
        fill: none;
        stroke: #404041;
        stroke-linecap: round;
        stroke-linejoin: round;
        stroke-width: .35px;
      }
    </style>
  </defs>
  <g>
    <g>
      <path class="cls-2" d="M73.06,15.55c-.08-.27-.08-.58-.04-1.4s.13-2.15,.19-3.99c.07-1.85,.12-4.22,.05-5.9-.06-1.68-.25-2.66-.48-3.24-.06-.16-.13-.28-.23-.38h.02c.98-.01,.98,.26,.98,17.24,0-.85-.05-1.21-.13-1.49-.11-.36-.27-.57-.36-.84Z"/>
      <path class="cls-2" d="M73.02,14.15c-.04,.82-.04,1.13,.04,1.4,.09,.27,.25,.48,.36,.84,.08,.28,.13,.64,.13,1.49,0,.26,0,.57-.01,.94-.02,.85-.07,2.04-.15,3.22h0c-.06,.99-.13,1.97-.21,2.81-.18,1.83-.42,2.88-.69,3.58-.17,.44-.36,.72-.54,.92,.15-9.84,.23-14.05,.32-18.02,.08-3.97,.17-7.71,.05-10.62l.23-.07c.1,.1,.17,.22,.23,.38,.23,.58,.42,1.56,.48,3.24,.07,1.68,.02,4.05-.05,5.9-.06,1.84-.15,3.17-.19,3.99Z"/>
      <path class="cls-2" d="M45.83,0C70.62,0,71.29,.08,71.77,.19c.35,.08,.61,.18,.78,.45l-.23,.07c.12,2.91,.03,6.65-.05,10.62-.09,3.97-.17,8.18-.32,18.02-.09,.11-.18,.19-.27,.25-.24,.16-.43,.18-1.78,.15-1.36-.02-3.88-.09-7.19-.28-3.31-.18-7.4-.49-16.88-.34h-1.24c-9.48-.15-13.57,.16-16.88,.34-3.31,.19-5.83,.26-7.2,.28-1.35,.03-1.53,.01-1.77-.15-.09-.06-.18-.14-.27-.24-.16-9.85-.24-14.06-.33-18.03-.08-3.97-.17-7.71-.05-10.62l-.22-.09c.07-.1,.16-.18,.26-.24,.14-.09,.31-.14,.51-.19C19.12,.08,19.79,0,44.59,0h1.24Z"/>
      <path class="cls-2" d="M18.09,.71c-.12,2.91-.03,6.65,.05,10.62,.09,3.97,.17,8.18,.33,18.03-.18-.2-.37-.49-.54-.93-.27-.7-.5-1.75-.69-3.58-.08-.84-.15-1.82-.22-2.8h0c-.07-1.19-.12-2.38-.15-3.23-.04-1.56,0-2.07,.13-2.43,.1-.36,.28-.57,.36-.84s.08-.58,.04-1.4-.12-2.15-.19-3.99c-.07-1.85-.12-4.22-.05-5.9s.25-2.67,.48-3.24c0-.01,0-.01,0-.02,.07-.16,.14-.28,.22-.38l.22,.09Z"/>
      <path class="cls-2" d="M16.98,50.47c.02-6.17,.04-15.97,.04-28.42,.07,.98,.14,1.96,.22,2.8,.19,1.83,.42,2.88,.69,3.58,.17,.44,.36,.73,.54,.93,.09,.1,.18,.18,.27,.24,.24,.16,.42,.18,1.77,.15,1.37-.02,3.89-.09,7.2-.28,3.31-.18,7.4-.49,16.88-.34h1.24c9.48-.15,13.57,.16,16.88,.34,3.31,.19,5.83,.26,7.19,.28,1.35,.03,1.54,.01,1.78-.15,.09-.06,.18-.14,.27-.25,.18-.2,.37-.48,.54-.92,.27-.7,.51-1.75,.69-3.58,.08-.84,.15-1.82,.21-2.8,0,12.45,.03,22.25,.04,28.42,0,6.18,0,8.72-.03,10.17-.04,1.44-.1,1.8-.26,2.08-.15,.28-.4,.49-.7,.61-.28,.12-.61,.16-2.88,.17s-6.49,0-23.73,0h-1.24c-17.25,0-21.46,.01-23.74,0-2.27,0-2.59-.05-2.88-.17s-.54-.32-.69-.61c-.16-.28-.23-.64-.26-2.08,0-.08,0-.17,0-.26v-.17c0-.16-.01-.33-.01-.52-.02-1.58-.03-4.19-.02-9.22Z"/>
      <path class="cls-2" d="M16.95,61.17h0c-.14,.54-.45,.7-.95,.78-.38,.07-.95,.09-1.32,.1-1.54,.05-3.07,.08-4.61,.1-1.36,.03-3.23,.06-4.6-.02-.44-.03-1.01-.08-1.43-.27-.31-.14-.54-.33-.75-.58-.23-.29-.35-.59-.42-.94-.06-.37-.08-1-.1-1.37l-.06-1.38c-.12-2.74-.22-5.48-.32-8.22-.13-4.1-.23-8.2-.29-12.3-.07-5.12-.1-11.74-.07-16.87,.02-1.86,.04-3.72,.07-5.58s.07-3.72,.09-5.58c.04-2.41,.02-2.77,.02-5.18,0-.29,0-.58,.01-.87s.02-.57,.11-.85c.11-.33,.28-.56,.54-.77,.23-.18,.47-.27,.75-.31,.27-.05,.54-.06,.82-.06h13.21s0,.01,0,.02c-.23,.57-.41,1.56-.48,3.24s-.02,4.05,.05,5.9c.07,1.84,.15,3.17,.19,3.99s.04,1.13-.04,1.4-.26,.48-.36,.84c-.12,.36-.17,.87-.13,2.43,.03,.85,.08,2.04,.15,3.22h0c0,12.46-.02,22.26-.04,28.43,0,5.03,0,7.64,.02,9.22,0,.19,.01,.36,.01,.52v.17c0,.31-.03,.57-.06,.79Z"/>
      <path class="cls-2" d="M.19,36.11c-.06-4.02-.14-7.64-.17-11.8C-.01,20.17,0,15.52,.05,12.41c.05-3.09,.13-4.64,.22-5.8,.08-1.16,.17-1.96,.35-2.66s.46-1.31,.74-1.8c.29-.5,.58-.86,1.02-1.18S3.41,.38,4.74,.38h13.39c-.1,.06-.19,.14-.26,.24-.08,.1-.15,.22-.22,.38H4.44c-.28,0-.55,.01-.82,.06-.28,.04-.52,.13-.75,.31-.26,.21-.43,.44-.54,.77-.09,.28-.1,.56-.11,.85s-.01,.58-.01,.87c0,2.41,.02,2.77-.02,5.18-.02,1.86-.06,3.72-.09,5.58s-.05,3.72-.07,5.58c-.03,5.13,0,11.75,.07,16.87,.06,4.1,.16,8.2,.29,12.3,.1,2.74,.2,5.48,.32,8.22l.06,1.38c.02,.37,.04,1,.1,1.37,.07,.35,.19,.65,.42,.94,.21,.25,.44,.44,.75,.58,.42,.19,.99,.24,1.43,.27,1.37,.08,3.24,.05,4.6,.02,1.54-.02,3.07-.05,4.61-.1,.37-.01,.94-.03,1.32-.1,.5-.08,.81-.24,.95-.77-.12,.84-.39,1.08-.74,1.28-.5,.3-1.14,.5-1.92,.7-.77,.17-1.68,.35-2.81,.41s-2.83,0-3.56-.06c-.72-.06-1.77-.14-2.6-.29-.84-.17-1.46-.42-1.99-.75-.54-.32-.97-.73-1.31-1.24s-.59-1.12-.82-1.97c-.23-.86-.43-1.94-.57-3.71-.14-1.76-.22-4.2-.28-7.61-.05-3.42-.09-7.82-.16-11.83Z"/>
    </g>
    <g>
      <line class="cls-3" x1="45.83" y1="29.13" x2="44.59" y2="29.13"/>
      <line class="cls-3" x1="45.83" y1="0" x2="44.59" y2="0"/>
      <line class="cls-3" x1="45.83" y1="63.5" x2="44.59" y2="63.5"/>
      <path class="cls-3" d="M73.55,17.88c0-16.98,0-17.25-.98-17.25"/>
      <path class="cls-3" d="M45.83,29.13c9.48-.15,13.57,.16,16.88,.34,3.31,.19,5.83,.26,7.19,.28,1.35,.03,1.54,.01,1.78-.15,.09-.06,.18-.14,.27-.25,.18-.2,.37-.48,.54-.92,.27-.7,.51-1.75,.69-3.58,.08-.84,.15-1.82,.21-2.8h0c.08-1.19,.13-2.38,.15-3.23,.01-.37,.01-.68,.01-.94,0-.85-.05-1.21-.13-1.49-.11-.36-.27-.57-.36-.84-.08-.27-.08-.58-.04-1.4s.13-2.15,.19-3.99c.07-1.85,.12-4.22,.05-5.9-.06-1.68-.25-2.66-.48-3.24-.06-.16-.13-.28-.23-.38-.17-.27-.43-.37-.78-.45C71.29,.08,70.62,0,45.83,0"/>
      <path class="cls-3" d="M73.39,22.05c0,12.45,.03,22.25,.04,28.42,0,6.18,0,8.72-.03,10.17-.04,1.44-.1,1.8-.26,2.08-.15,.28-.4,.49-.7,.61-.28,.12-.61,.16-2.88,.17s-6.49,0-23.73,0"/>
      <path class="cls-3" d="M72.32,.71c.12,2.91,.03,6.65-.05,10.62-.09,3.97-.17,8.18-.32,18.02"/>
      <path class="cls-3" d="M18.09,.71c-.12,2.91-.03,6.65,.05,10.62,.09,3.97,.17,8.18,.33,18.03"/>
      <path class="cls-3" d="M4.74,.38c-1.33,0-1.92,.27-2.36,.59s-.73,.68-1.02,1.18c-.28,.49-.56,1.1-.74,1.8s-.27,1.5-.35,2.66c-.09,1.16-.17,2.71-.22,5.8C0,15.52-.01,20.17,.02,24.31c.03,4.16,.11,7.78,.17,11.8,.07,4.01,.11,8.41,.16,11.83,.06,3.41,.14,5.85,.28,7.61,.14,1.77,.34,2.85,.57,3.71,.23,.85,.48,1.46,.82,1.97s.77,.92,1.31,1.24c.53,.33,1.15,.58,1.99,.75,.83,.15,1.88,.23,2.6,.29,.73,.06,2.43,.12,3.56,.06s2.04-.24,2.81-.41c.78-.2,1.42-.4,1.92-.7,.35-.2,.62-.44,.74-1.28h0c.03-.23,.06-.49,.06-.8,0-.05,0-.11,0-.17"/>
      <path class="cls-3" d="M4.44,1c-.28,0-.55,.01-.82,.06-.28,.04-.52,.13-.75,.31-.26,.21-.43,.44-.54,.77-.09,.28-.1,.56-.11,.85s-.01,.58-.01,.87c0,2.41,.02,2.77-.02,5.18-.02,1.86-.06,3.72-.09,5.58s-.05,3.72-.07,5.58c-.03,5.13,0,11.75,.07,16.87,.06,4.1,.16,8.2,.29,12.3,.1,2.74,.2,5.48,.32,8.22l.06,1.38c.02,.37,.04,1,.1,1.37,.07,.35,.19,.65,.42,.94,.21,.25,.44,.44,.75,.58,.42,.19,.99,.24,1.43,.27,1.37,.08,3.24,.05,4.6,.02,1.54-.02,3.07-.05,4.61-.1,.37-.01,.94-.03,1.32-.1,.5-.08,.81-.24,.95-.77"/>
      <line class="cls-3" x1="17.65" y1="1" x2="4.44" y2="1"/>
      <line class="cls-3" x1="18.13" y1=".38" x2="4.74" y2=".38"/>
      <path class="cls-3" d="M17.02,22.04c-.07-1.18-.12-2.37-.15-3.22-.04-1.56,0-2.07,.13-2.43,.1-.36,.28-.57,.36-.84s.08-.58,.04-1.4-.12-2.15-.19-3.99c-.07-1.85-.12-4.22-.05-5.9s.25-2.67,.48-3.24c0-.01,0-.01,0-.02,.07-.16,.14-.28,.22-.38,.07-.1,.16-.18,.26-.24,.14-.09,.31-.14,.51-.19C19.12,.08,19.79,0,44.59,0"/>
      <path class="cls-3" d="M44.59,29.13c-9.48-.15-13.57,.16-16.88,.34-3.31,.19-5.83,.26-7.2,.28-1.35,.03-1.53,.01-1.77-.15-.09-.06-.18-.14-.27-.24-.18-.2-.37-.49-.54-.93-.27-.7-.5-1.75-.69-3.58-.08-.84-.15-1.82-.22-2.8"/>
      <path class="cls-3" d="M17.02,22.04h0c0,12.46-.02,22.26-.04,28.43,0,5.03,0,7.64,.02,9.22,0,.19,.01,.36,.01,.52v.17c0,.09,0,.18,0,.26,.03,1.44,.1,1.8,.26,2.08,.15,.29,.4,.49,.69,.61s.61,.16,2.88,.17c2.28,.01,6.49,0,23.74,0"/>
    </g>
  </g>
  <text class="cls-1" transform="translate(37.39 45.49)"><tspan x="0" y="0">100</tspan></text>
</svg>