<?xml version="1.0" encoding="UTF-8"?>
<svg id="Layer_1" data-name="Layer 1" xmlns="http://www.w3.org/2000/svg" viewBox="0 0 51.03 63.52">
  <defs>
    <style>
      .cls-1 {
        font-family: Inter18pt-Medium, 'Inter 18pt';
        font-size: 10px;
      }

      .cls-2 {
        fill: #f1f1f2;
      }

      .cls-3 {
        fill: none;
        stroke: #404041;
        stroke-linecap: round;
        stroke-linejoin: round;
        stroke-width: .35px;
      }
    </style>
  </defs>
  <g>
    <g>
      <path class="cls-2" d="M51.03,17.78v.1c0,.26,0,.57-.02,.94-.02,.87-.06,2.04-.12,3.23-.06,.98-.12,1.98-.19,2.8-.17,1.84-.38,2.9-.62,3.58-.15,.44-.32,.72-.49,.92,.14-9.84,.22-14.05,.3-18.02,.07-3.97,.15-7.71,.04-10.6l.21-.09c.07,.1,.13,.23,.2,.39,.2,.57,.37,1.55,.43,3.24,.06,1.67,.02,4.05-.05,5.89-.06,1.86-.13,3.17-.17,3.99-.03,.82-.03,1.13,.04,1.41,.07,.27,.22,.48,.32,.84,.07,.26,.12,.61,.12,1.38Z"/>
      <path class="cls-2" d="M51.03,17.78c0-.77-.05-1.12-.12-1.38-.1-.36-.25-.57-.32-.84-.07-.28-.07-.59-.04-1.41,.04-.82,.11-2.13,.17-3.99,.07-1.84,.11-4.22,.05-5.89-.06-1.69-.23-2.67-.43-3.24-.07-.16-.13-.29-.2-.39,.89,0,.89,.28,.89,17.14Z"/>
      <path class="cls-2" d="M49.59,29.35c.17-.2,.34-.48,.49-.92,.24-.68,.45-1.74,.62-3.58,.07-.82,.13-1.82,.19-2.8,0,12.45,.02,22.25,.03,28.43,.01,6.17,0,8.72-.03,10.16-.03,1.46-.09,1.81-.23,2.09s-.36,.48-.62,.6-.56,.16-2.59,.17c-2.05,0-5.83,0-21.31,0h-1.25c-15.49,0-19.27,0-21.31,0s-2.34-.05-2.59-.17c-.26-.12-.49-.32-.63-.6s-.19-.63-.23-2.09c-.02-1.44-.03-3.99-.02-10.16,0-6.18,.02-15.98,.02-28.43h.01c.06,.98,.12,1.98,.19,2.8,.16,1.84,.38,2.9,.61,3.58,.16,.44,.33,.72,.49,.92h0c.09,.11,.17,.19,.24,.25,.22,.16,.39,.18,1.6,.15,1.22-.02,3.49-.09,6.46-.28,2.97-.18,6.64-.49,15.16-.34h1.25c8.51-.15,12.18,.16,15.15,.34,2.97,.19,5.24,.26,6.46,.28,1.22,.03,1.38,0,1.6-.15,.08-.06,.16-.14,.24-.25Z"/>
      <path class="cls-2" d="M1.43,29.35c-.16-.2-.33-.48-.49-.92-.23-.68-.45-1.74-.61-3.58-.07-.82-.13-1.82-.19-2.8-.07-1.19-.12-2.36-.13-3.23-.01-.37-.01-.68-.01-.94,0-.85,.04-1.2,.12-1.48,.09-.36,.24-.57,.32-.84,.07-.28,.07-.59,.03-1.41-.03-.82-.11-2.13-.17-3.99-.06-1.84-.1-4.22-.04-5.89,.05-1.69,.22-2.67,.43-3.24,.05-.16,.12-.28,.2-.38,.16-.27,.39-.37,.7-.45C2.01,.08,2.63,0,24.89,0h1.25C48.39,0,49,.08,49.44,.2c.3,.08,.53,.18,.7,.44l-.21,.09c.11,2.89,.03,6.63-.04,10.6-.08,3.97-.16,8.18-.3,18.02-.08,.11-.16,.19-.24,.25-.22,.16-.38,.18-1.6,.15-1.22-.02-3.49-.09-6.46-.28-2.97-.18-6.64-.49-15.15-.34h-1.25c-8.52-.15-12.19,.16-15.16,.34-2.97,.19-5.24,.26-6.46,.28-1.21,.03-1.38,0-1.6-.15-.07-.06-.15-.14-.24-.24h0Z"/>
      <path class="cls-2" d="M.88,.64h.01c-.08,.11-.15,.23-.2,.39-.21,.57-.38,1.55-.43,3.24-.06,1.67-.02,4.05,.04,5.89,.06,1.86,.14,3.17,.17,3.99,.04,.82,.04,1.13-.03,1.41-.08,.27-.23,.48-.32,.84-.08,.28-.12,.63-.12,1.48C0,.92,0,.64,.88,.64Z"/>
    </g>
    <g>
      <path class="cls-3" d="M51.03,17.88v-.1c0-16.86,0-17.14-.89-17.14"/>
      <path class="cls-3" d="M0,17.88C0,.92,0,.64,.88,.64"/>
      <line class="cls-3" x1="26.14" y1="63.5" x2="24.89" y2="63.5"/>
      <line class="cls-3" x1="26.14" y1="29.13" x2="24.89" y2="29.13"/>
      <line class="cls-3" x1="24.89" y1="0" x2="26.14" y2="0"/>
      <path class="cls-3" d="M1.43,29.35c-.16-.2-.33-.48-.49-.92-.23-.68-.45-1.74-.61-3.58-.07-.82-.13-1.82-.19-2.8-.07-1.19-.12-2.36-.13-3.23-.01-.37-.01-.68-.01-.94,0-.85,.04-1.2,.12-1.48,.09-.36,.24-.57,.32-.84,.07-.28,.07-.59,.03-1.41-.03-.82-.11-2.13-.17-3.99-.06-1.84-.1-4.22-.04-5.89,.05-1.69,.22-2.67,.43-3.24,.05-.16,.12-.28,.2-.38,.16-.27,.39-.37,.7-.45C2.01,.08,2.63,0,24.89,0"/>
      <path class="cls-3" d="M24.89,29.13c-8.52-.15-12.19,.16-15.16,.34-2.97,.19-5.24,.26-6.46,.28-1.21,.03-1.38,0-1.6-.15-.07-.06-.15-.14-.24-.24"/>
      <path class="cls-3" d="M.13,22.05c0,12.45-.02,22.25-.02,28.43,0,6.17,0,8.72,.02,10.16,.04,1.46,.09,1.81,.23,2.09s.37,.48,.63,.6c.25,.12,.55,.16,2.59,.17s5.82,0,21.31,0"/>
      <path class="cls-3" d="M50.89,22.05c0,12.45,.02,22.25,.03,28.43,.01,6.17,0,8.72-.03,10.16-.03,1.46-.09,1.81-.23,2.09s-.36,.48-.62,.6-.56,.16-2.59,.17c-2.05,0-5.83,0-21.31,0"/>
      <path class="cls-3" d="M26.14,29.13c8.51-.15,12.18,.16,15.15,.34,2.97,.19,5.24,.26,6.46,.28,1.22,.03,1.38,0,1.6-.15,.08-.06,.16-.14,.24-.25,.17-.2,.34-.48,.49-.92,.24-.68,.45-1.74,.62-3.58,.07-.82,.13-1.82,.19-2.8,.06-1.19,.1-2.36,.12-3.23,.01-.37,.02-.68,.02-.94"/>
      <path class="cls-3" d="M51.03,17.78c0-.77-.05-1.12-.12-1.38-.1-.36-.25-.57-.32-.84-.07-.28-.07-.59-.04-1.41,.04-.82,.11-2.13,.17-3.99,.07-1.84,.11-4.22,.05-5.89-.06-1.69-.23-2.67-.43-3.24-.07-.16-.13-.29-.2-.39-.17-.26-.4-.36-.7-.44-.44-.12-1.05-.2-23.3-.2"/>
      <path class="cls-3" d="M49.93,.73c.11,2.89,.03,6.63-.04,10.6-.08,3.97-.16,8.18-.3,18.02v.02"/>
      <path class="cls-3" d="M1.1,.73c-.11,2.89-.04,6.63,.04,10.6,.07,3.97,.15,8.19,.29,18.02h0"/>
    </g>
  </g>
  <text class="cls-1" transform="translate(19.2 45.49)"><tspan x="0" y="0">90</tspan></text>
</svg>