<?xml version="1.0" encoding="UTF-8"?>
<svg id="Layer_1" data-name="Layer 1" xmlns="http://www.w3.org/2000/svg" viewBox="0 0 79.22 63.52">
  <defs>
    <style>
      .cls-1 {
        font-family: Inter18pt-Medium, 'Inter 18pt';
        font-size: 10px;
      }

      .cls-2 {
        fill: #f1f1f2;
      }

      .cls-3 {
        fill: none;
        stroke: #404041;
        stroke-linecap: round;
        stroke-linejoin: round;
        stroke-width: .35px;
      }
    </style>
  </defs>
  <g>
    <g>
      <path class="cls-2" d="M79.23,17.9c0,.26,0,.57-.01,.94-.02,.85-.07,2.04-.15,3.22h0c-.06,.99-.14,1.97-.21,2.81-.19,1.83-.43,2.88-.69,3.58-.17,.44-.36,.72-.54,.92,.15-9.84,.23-14.05,.32-18.02,.08-3.97,.17-7.71,.05-10.62l.23-.07c.09,.1,.16,.22,.23,.38,.22,.58,.42,1.56,.47,3.24,.08,1.68,.03,4.05-.04,5.9-.06,1.84-.15,3.17-.19,3.99-.05,.82-.05,1.13,.04,1.4s.24,.48,.36,.84c.08,.28,.13,.64,.13,1.49Z"/>
      <path class="cls-2" d="M79.23,17.9c0-.85-.05-1.21-.13-1.49-.12-.36-.27-.57-.36-.84s-.09-.58-.04-1.4c.04-.82,.13-2.15,.19-3.99,.07-1.85,.12-4.22,.04-5.9-.05-1.68-.25-2.66-.47-3.24-.07-.16-.14-.28-.23-.38h0c.99-.01,.99,.26,.99,17.24Z"/>
      <path class="cls-2" d="M79.11,50.49c0,6.18,0,8.72-.03,10.17-.04,1.44-.1,1.8-.26,2.09-.16,.28-.41,.48-.7,.6-.28,.12-.61,.16-2.88,.17s-6.49,0-23.74,0l-5.52-.02h-1.39c-17.24,0-21.46,.01-23.73,0-2.28,0-2.6-.05-2.89-.17s-.54-.32-.69-.61c-.16-.28-.22-.64-.25-2.08,0-.13,0-.28,0-.43,0-.16-.01-.33-.01-.52-.02-1.58-.03-4.19-.02-9.22,.01-6.17,.04-15.97,.04-28.42,.06,.98,.13,1.96,.21,2.8,.19,1.83,.42,2.88,.69,3.58,.17,.44,.36,.73,.54,.93,.09,.1,.18,.18,.27,.24,.24,.16,.42,.18,1.78,.15,1.36-.02,3.89-.09,7.2-.28,3.31-.18,7.4-.49,16.87-.34h1.39l5.52,.02c9.49-.15,13.58,.16,16.89,.34,3.31,.19,5.83,.26,7.19,.28,1.35,.03,1.54,.01,1.78-.15,.09-.06,.18-.14,.27-.25,.18-.2,.37-.48,.54-.92,.26-.7,.5-1.75,.69-3.58,.07-.84,.15-1.82,.21-2.8,0,12.45,.03,22.25,.04,28.42Z"/>
      <path class="cls-2" d="M78.23,.66l-.23,.07c.12,2.91,.03,6.65-.05,10.62-.09,3.97-.17,8.18-.32,18.02-.09,.11-.18,.19-.27,.25-.24,.16-.43,.18-1.78,.15-1.36-.02-3.88-.09-7.19-.28-3.31-.18-7.4-.49-16.89-.34l-5.52-.02h-1.39c-9.47-.15-13.56,.16-16.87,.34-3.31,.19-5.84,.26-7.2,.28-1.36,.03-1.54,.01-1.78-.15-.09-.06-.18-.14-.27-.24-.16-9.85-.24-14.06-.33-18.03-.08-3.97-.17-7.71-.05-10.62l-.22-.09c.07-.1,.16-.18,.26-.24,.14-.09,.31-.14,.51-.19C19.12,.08,19.8,0,44.59,0h1.39l5.52,.02c24.8,0,25.47,.08,25.95,.19,.35,.08,.6,.18,.78,.45Z"/>
      <path class="cls-2" d="M18.14,11.33c.09,3.97,.17,8.18,.33,18.03-.18-.2-.37-.49-.54-.93-.27-.7-.5-1.75-.69-3.58-.08-.84-.15-1.82-.21-2.8h0c-.07-1.19-.12-2.38-.15-3.23-.04-1.56,0-2.07,.12-2.43s.28-.57,.36-.84,.08-.58,.04-1.4-.12-2.15-.19-3.99c-.07-1.85-.12-4.22-.05-5.9s.25-2.67,.48-3.24c0-.01,.01-.01,.01-.02,.07-.16,.14-.28,.22-.38l.22,.09c-.12,2.91-.03,6.65,.05,10.62Z"/>
      <path class="cls-2" d="M4.74,.38h13.39c-.1,.06-.19,.14-.26,.24-.08,.1-.15,.22-.22,.38H4.44c-.27,0-.54,.01-.82,.06-.28,.04-.52,.13-.74,.31-.26,.21-.44,.44-.54,.77-.09,.28-.1,.56-.11,.85s-.01,.58-.01,.87c0,2.41,.01,2.77-.02,5.18-.02,1.86-.06,3.72-.1,5.58-.03,1.86-.05,3.72-.06,5.58-.03,5.13,0,11.75,.07,16.87,.05,4.1,.15,8.2,.29,12.3,.09,2.74,.2,5.48,.32,8.22,.02,.46,.03,.92,.05,1.38,.02,.37,.04,1,.11,1.37,.07,.35,.18,.65,.41,.94,.21,.25,.45,.44,.75,.58,.43,.19,.99,.24,1.44,.27,1.37,.08,3.23,.05,4.6,.02,1.53-.02,3.07-.05,4.6-.1,.38-.01,.95-.03,1.32-.1,.5-.08,.81-.24,.96-.77-.12,.84-.39,1.08-.74,1.28-.51,.3-1.15,.5-1.93,.7-.77,.17-1.67,.35-2.81,.41-1.13,.06-2.82,0-3.55-.06s-1.77-.14-2.6-.29c-.85-.17-1.47-.42-2-.75-.53-.32-.96-.73-1.3-1.24s-.6-1.12-.83-1.97c-.23-.86-.43-1.94-.57-3.71-.14-1.76-.22-4.2-.28-7.61-.05-3.42-.09-7.82-.16-11.83-.06-4.02-.14-7.64-.17-11.8C-.01,20.17,0,15.52,.05,12.41c.05-3.09,.13-4.64,.22-5.8,.08-1.16,.17-1.96,.35-2.66s.46-1.31,.74-1.8c.3-.5,.59-.86,1.03-1.18S3.41,.38,4.74,.38Z"/>
      <path class="cls-2" d="M17.65,1s-.01,.01-.01,.02c-.23,.57-.41,1.56-.48,3.24s-.02,4.05,.05,5.9c.07,1.84,.15,3.17,.19,3.99s.04,1.13-.04,1.4-.25,.48-.36,.84-.16,.87-.12,2.43c.03,.85,.08,2.04,.15,3.22h0c0,12.46-.03,22.26-.04,28.43,0,5.03,0,7.64,.02,9.22,0,.19,.01,.36,.01,.52,0,.39-.02,.7-.06,.96h0c-.15,.54-.46,.7-.96,.78-.37,.07-.94,.09-1.32,.1-1.53,.05-3.07,.08-4.6,.1-1.37,.03-3.23,.06-4.6-.02-.45-.03-1.01-.08-1.44-.27-.3-.14-.54-.33-.75-.58-.23-.29-.34-.59-.41-.94-.07-.37-.09-1-.11-1.37-.02-.46-.03-.92-.05-1.38-.12-2.74-.23-5.48-.32-8.22-.14-4.1-.24-8.2-.29-12.3-.07-5.12-.1-11.74-.07-16.87,0-1.86,.03-3.72,.06-5.58,.04-1.86,.08-3.72,.1-5.58,.03-2.41,.02-2.77,.02-5.18,0-.29,0-.58,.01-.87s.02-.57,.11-.85c.1-.33,.28-.56,.54-.77,.22-.18,.46-.27,.74-.31,.28-.05,.55-.06,.82-.06h13.21Z"/>
    </g>
    <g>
      <line class="cls-3" x1="51.5" y1="63.52" x2="45.98" y2="63.5"/>
      <line class="cls-3" x1="51.5" y1="29.15" x2="45.98" y2="29.13"/>
      <line class="cls-3" x1="51.5" y1=".02" x2="45.98" y2="0"/>
      <path class="cls-3" d="M78,.73c.12,2.91,.03,6.65-.05,10.62-.09,3.97-.17,8.18-.32,18.02"/>
      <path class="cls-3" d="M79.07,22.07c0,12.45,.03,22.25,.04,28.42,0,6.18,0,8.72-.03,10.17-.04,1.44-.1,1.8-.26,2.09-.16,.28-.41,.48-.7,.6-.28,.12-.61,.16-2.88,.17s-6.49,0-23.74,0"/>
      <path class="cls-3" d="M51.5,29.15c9.49-.15,13.58,.16,16.89,.34,3.31,.19,5.83,.26,7.19,.28,1.35,.03,1.54,.01,1.78-.15,.09-.06,.18-.14,.27-.25,.18-.2,.37-.48,.54-.92,.26-.7,.5-1.75,.69-3.58,.07-.84,.15-1.82,.21-2.8h0c.08-1.19,.13-2.38,.15-3.23,.01-.37,.01-.68,.01-.94,0-.85-.05-1.21-.13-1.49-.12-.36-.27-.57-.36-.84s-.09-.58-.04-1.4c.04-.82,.13-2.15,.19-3.99,.07-1.85,.12-4.22,.04-5.9-.05-1.68-.25-2.66-.47-3.24-.07-.16-.14-.28-.23-.38-.18-.27-.43-.37-.78-.45-.48-.11-1.15-.19-25.95-.19"/>
      <path class="cls-3" d="M79.23,17.9c0-16.98,0-17.25-.99-17.25"/>
      <path class="cls-3" d="M17.03,22.04h0c0,12.46-.03,22.26-.04,28.43,0,5.03,0,7.64,.02,9.22,0,.19,.01,.36,.01,.52,0,.15,0,.3,0,.43,.03,1.44,.09,1.8,.25,2.08,.15,.29,.4,.49,.69,.61s.61,.16,2.89,.17c2.27,.01,6.49,0,23.73,0"/>
      <path class="cls-3" d="M44.59,29.13c-9.47-.15-13.56,.16-16.87,.34-3.31,.19-5.84,.26-7.2,.28-1.36,.03-1.54,.01-1.78-.15-.09-.06-.18-.14-.27-.24-.18-.2-.37-.49-.54-.93-.27-.7-.5-1.75-.69-3.58-.08-.84-.15-1.82-.21-2.8"/>
      <path class="cls-3" d="M17.03,22.04c-.07-1.18-.12-2.37-.15-3.22-.04-1.56,0-2.07,.12-2.43s.28-.57,.36-.84,.08-.58,.04-1.4-.12-2.15-.19-3.99c-.07-1.85-.12-4.22-.05-5.9s.25-2.67,.48-3.24c0-.01,.01-.01,.01-.02,.07-.16,.14-.28,.22-.38,.07-.1,.16-.18,.26-.24,.14-.09,.31-.14,.51-.19C19.12,.08,19.8,0,44.59,0"/>
      <line class="cls-3" x1="44.59" y1="0" x2="45.98" y2="0"/>
      <line class="cls-3" x1="45.98" y1="29.13" x2="44.59" y2="29.13"/>
      <line class="cls-3" x1="45.98" y1="63.5" x2="44.59" y2="63.5"/>
      <line class="cls-3" x1="18.13" y1=".38" x2="4.74" y2=".38"/>
      <line class="cls-3" x1="17.65" y1="1" x2="4.44" y2="1"/>
      <path class="cls-3" d="M4.44,1c-.27,0-.54,.01-.82,.06-.28,.04-.52,.13-.74,.31-.26,.21-.44,.44-.54,.77-.09,.28-.1,.56-.11,.85s-.01,.58-.01,.87c0,2.41,.01,2.77-.02,5.18-.02,1.86-.06,3.72-.1,5.58-.03,1.86-.05,3.72-.06,5.58-.03,5.13,0,11.75,.07,16.87,.05,4.1,.15,8.2,.29,12.3,.09,2.74,.2,5.48,.32,8.22,.02,.46,.03,.92,.05,1.38,.02,.37,.04,1,.11,1.37,.07,.35,.18,.65,.41,.94,.21,.25,.45,.44,.75,.58,.43,.19,.99,.24,1.44,.27,1.37,.08,3.23,.05,4.6,.02,1.53-.02,3.07-.05,4.6-.1,.38-.01,.95-.03,1.32-.1,.5-.08,.81-.24,.96-.77"/>
      <path class="cls-3" d="M4.74,.38c-1.33,0-1.91,.27-2.35,.59s-.73,.68-1.03,1.18c-.28,.49-.56,1.1-.74,1.8s-.27,1.5-.35,2.66c-.09,1.16-.17,2.71-.22,5.8C0,15.52-.01,20.17,.02,24.31c.03,4.16,.11,7.78,.17,11.8,.07,4.01,.11,8.41,.16,11.83,.06,3.41,.14,5.85,.28,7.61,.14,1.77,.34,2.85,.57,3.71,.23,.85,.49,1.46,.83,1.97s.77,.92,1.3,1.24c.53,.33,1.15,.58,2,.75,.83,.15,1.87,.23,2.6,.29s2.42,.12,3.55,.06c1.14-.06,2.04-.24,2.81-.41,.78-.2,1.42-.4,1.93-.7,.35-.2,.62-.44,.74-1.28h0c.04-.27,.06-.58,.06-.97"/>
      <path class="cls-3" d="M18.09,.71c-.12,2.91-.03,6.65,.05,10.62,.09,3.97,.17,8.18,.33,18.03"/>
    </g>
  </g>
  <text class="cls-1" transform="translate(41.48 45.49)"><tspan x="0" y="0">110</tspan></text>
</svg>