<?xml version="1.0" encoding="UTF-8"?>
<svg id="Layer_1" data-name="Layer 1" xmlns="http://www.w3.org/2000/svg" viewBox="0 0 45.35 63.52">
  <defs>
    <style>
      .cls-1 {
        font-family: Inter18pt-Medium, 'Inter 18pt';
        font-size: 10px;
      }

      .cls-2 {
        fill: #f1f1f2;
      }

      .cls-3 {
        fill: none;
        stroke: #404041;
        stroke-linecap: round;
        stroke-linejoin: round;
        stroke-width: .35px;
      }
    </style>
  </defs>
  <g>
    <g>
      <path class="cls-2" d="M45.35,17.78v.1c0,.26-.01,.57-.01,.94-.02,.87-.06,2.04-.12,3.23-.04,.98-.1,1.98-.16,2.8-.16,1.84-.34,2.9-.56,3.58-.13,.45-.28,.74-.43,.94,.13-9.85,.19-14.07,.27-18.04,.06-3.97,.13-7.71,.04-10.6l.18-.09c.06,.1,.12,.23,.18,.39,.18,.57,.32,1.55,.38,3.24,.06,1.67,.02,4.05-.04,5.89-.06,1.86-.12,3.17-.15,3.99s-.03,1.13,.03,1.41c.06,.27,.2,.48,.29,.84,.06,.26,.1,.61,.1,1.38Z"/>
      <path class="cls-2" d="M45.35,17.78c0-.77-.04-1.12-.1-1.38-.09-.36-.23-.57-.29-.84-.06-.28-.06-.59-.03-1.41s.09-2.13,.15-3.99c.06-1.84,.1-4.22,.04-5.89-.06-1.69-.2-2.67-.38-3.24-.06-.16-.12-.29-.18-.39,.79,0,.79,.28,.79,17.14Z"/>
      <path class="cls-2" d="M45.26,50.48c0,6.17,0,8.72-.04,10.16-.02,1.46-.07,1.81-.2,2.09-.12,.28-.32,.48-.55,.6s-.49,.16-2.3,.17c-1.82,0-5.18,0-18.94,0h-1.11c-13.76,0-17.13,0-18.94,0s-2.08-.05-2.3-.17c-.23-.12-.43-.32-.56-.6-.12-.28-.17-.63-.2-2.09-.03-1.44-.03-3.99-.03-10.16,.01-6.18,.03-15.98,.03-28.43h.01c.04,.98,.1,1.98,.16,2.8,.15,1.84,.34,2.9,.55,3.58,.14,.44,.29,.73,.43,.93,.08,.1,.15,.18,.22,.24,.19,.16,.34,.18,1.42,.15,1.08-.02,3.1-.09,5.74-.28,2.64-.18,5.9-.49,13.47-.34h1.11c7.56-.15,10.82,.16,13.47,.34,2.64,.19,4.65,.26,5.74,.28,1.08,.03,1.22,0,1.42-.15,.07-.06,.14-.13,.21-.23,.15-.2,.3-.49,.43-.94,.22-.68,.4-1.74,.56-3.58,.06-.82,.12-1.82,.16-2.8,0,12.45,.03,22.25,.04,28.43Z"/>
      <path class="cls-2" d="M1.27,29.36c-.14-.2-.29-.49-.43-.93-.21-.68-.4-1.74-.55-3.58-.06-.82-.12-1.82-.16-2.8-.07-1.19-.11-2.36-.12-3.23-.01-.37-.01-.68-.01-.94,0-.85,.04-1.2,.1-1.48,.09-.36,.22-.57,.29-.84,.06-.28,.06-.59,.03-1.41s-.1-2.13-.15-3.99c-.06-1.84-.1-4.22-.04-5.89,.05-1.69,.2-2.67,.38-3.24,.05-.16,.11-.28,.18-.38,.14-.27,.34-.37,.62-.45C1.79,.08,2.33,0,22.12,0h1.11C43.01,0,43.55,.08,43.94,.2c.27,.08,.47,.18,.62,.44l-.18,.09c.09,2.89,.02,6.63-.04,10.6-.08,3.97-.14,8.19-.27,18.04-.07,.1-.14,.17-.21,.23-.2,.16-.34,.18-1.42,.15-1.09-.02-3.1-.09-5.74-.28-2.65-.18-5.91-.49-13.47-.34h-1.11c-7.57-.15-10.83,.16-13.47,.34-2.64,.19-4.66,.26-5.74,.28-1.08,.03-1.23,0-1.42-.15-.07-.06-.14-.14-.22-.24Z"/>
      <path class="cls-2" d="M.78,.64h.01c-.07,.11-.13,.23-.18,.39-.18,.57-.33,1.55-.38,3.24-.06,1.67-.02,4.05,.04,5.89,.05,1.86,.12,3.17,.15,3.99s.03,1.13-.03,1.41c-.07,.27-.2,.48-.29,.84-.06,.28-.1,.63-.1,1.48C0,.92,0,.64,.78,.64Z"/>
    </g>
    <g>
      <path class="cls-3" d="M45.35,17.88v-.1c0-16.86,0-17.14-.79-17.14"/>
      <path class="cls-3" d="M0,17.88C0,.92,0,.64,.78,.64"/>
      <line class="cls-3" x1="23.23" y1="63.5" x2="22.12" y2="63.5"/>
      <line class="cls-3" x1="23.23" y1="29.13" x2="22.12" y2="29.13"/>
      <line class="cls-3" x1="22.12" y1="0" x2="23.23" y2="0"/>
      <path class="cls-3" d="M22.12,29.13c-7.57-.15-10.83,.16-13.47,.34-2.64,.19-4.66,.26-5.74,.28-1.08,.03-1.23,0-1.42-.15-.07-.06-.14-.14-.22-.24-.14-.2-.29-.49-.43-.93-.21-.68-.4-1.74-.55-3.58-.06-.82-.12-1.82-.16-2.8-.07-1.19-.11-2.36-.12-3.23-.01-.37-.01-.68-.01-.94,0-.85,.04-1.2,.1-1.48,.09-.36,.22-.57,.29-.84,.06-.28,.06-.59,.03-1.41s-.1-2.13-.15-3.99c-.06-1.84-.1-4.22-.04-5.89,.05-1.69,.2-2.67,.38-3.24,.05-.16,.11-.28,.18-.38,.14-.27,.34-.37,.62-.45C1.79,.08,2.33,0,22.12,0"/>
      <path class="cls-3" d="M.12,22.05c0,12.45-.02,22.25-.03,28.43,0,6.17,0,8.72,.03,10.16,.03,1.46,.08,1.81,.2,2.09,.13,.28,.33,.48,.56,.6,.22,.12,.49,.16,2.3,.17s5.18,0,18.94,0"/>
      <path class="cls-3" d="M45.22,22.05c0,12.45,.03,22.25,.04,28.43,0,6.17,0,8.72-.04,10.16-.02,1.46-.07,1.81-.2,2.09-.12,.28-.32,.48-.55,.6s-.49,.16-2.3,.17c-1.82,0-5.18,0-18.94,0"/>
      <path class="cls-3" d="M23.23,29.13c7.56-.15,10.82,.16,13.47,.34,2.64,.19,4.65,.26,5.74,.28,1.08,.03,1.22,0,1.42-.15,.07-.06,.14-.13,.21-.23,.15-.2,.3-.49,.43-.94,.22-.68,.4-1.74,.56-3.58,.06-.82,.12-1.82,.16-2.8,.06-1.19,.1-2.36,.12-3.23,0-.37,.01-.68,.01-.94"/>
      <path class="cls-3" d="M45.35,17.78c0-.77-.04-1.12-.1-1.38-.09-.36-.23-.57-.29-.84-.06-.28-.06-.59-.03-1.41s.09-2.13,.15-3.99c.06-1.84,.1-4.22,.04-5.89-.06-1.69-.2-2.67-.38-3.24-.06-.16-.12-.29-.18-.39-.15-.26-.35-.36-.62-.44-.39-.12-.93-.2-20.71-.2"/>
      <path class="cls-3" d="M.97,.73c-.09,2.89-.03,6.63,.04,10.6s.14,8.19,.26,18.03"/>
      <path class="cls-3" d="M44.38,.73c.09,2.89,.02,6.63-.04,10.6-.08,3.97-.14,8.19-.27,18.04"/>
    </g>
  </g>
  <text class="cls-1" transform="translate(16.37 45.49)"><tspan x="0" y="0">80</tspan></text>
</svg>