<?xml version="1.0" encoding="UTF-8"?>
<svg id="Layer_1" data-name="Layer 1" xmlns="http://www.w3.org/2000/svg" viewBox="0 0 34.89 63.52">
  <defs>
    <style>
      .cls-1 {
        font-family: Inter18pt-Medium, 'Inter 18pt';
        font-size: 10px;
      }

      .cls-2 {
        fill: #f1f1f2;
      }

      .cls-3 {
        fill: none;
        stroke: #404041;
        stroke-linecap: round;
        stroke-linejoin: round;
        stroke-width: .35px;
      }
    </style>
  </defs>
  <g>
    <path class="cls-2" d="M34.88,61.74v.17c0,.06,0,.1-.01,.16-.08,.38-.45,.64-.78,.72-.15,.04-.31,.05-.46,.05-.09,.01-.18,.01-.27,.02l-.54,.03c-.34,.02-.69,.04-1.03,.06-.64,.05-1.28,.08-1.91,.13-.79,.04-1.56,.1-2.34,.15l-.69,.03c-.87,.05-1.75,.09-2.62,.14-1.89,.09-3.77,.11-5.66,.11h-2.59c-1.8,0-3.61-.02-5.41-.11-.88-.05-1.76-.09-2.63-.14l-.69-.03c-.77-.05-1.55-.11-2.33-.15-.64-.05-1.28-.08-1.92-.13-.34-.02-.69-.04-1.03-.06-.17-.01-.36-.02-.54-.03-.09-.01-.18-.01-.27-.02-.15,0-.3-.01-.46-.05-.33-.08-.7-.33-.78-.72-.01-.06-.01-.1-.01-.16V1.59c0-.06,0-.1,.01-.16C0,1.05,.37,.8,.7,.72c.16-.03,.31-.05,.46-.05,.09-.01,.18-.01,.27-.02,.18-.01,.37-.02,.54-.03,.34-.01,.69-.04,1.03-.06,.64-.05,1.28-.08,1.92-.13,.78-.04,1.56-.09,2.33-.15l.69-.03c.87-.04,1.75-.09,2.63-.12C12.37,0,14.18,0,15.98,0h2.59C20.46,0,22.34,0,24.23,.12c.87,.03,1.75,.08,2.62,.12l.69,.03c.78,.06,1.55,.11,2.34,.15,.63,.05,1.27,.08,1.91,.13,.34,.02,.69,.05,1.03,.06l.54,.03c.09,.01,.18,.01,.27,.02,.15,0,.31,.02,.46,.05,.33,.08,.7,.33,.78,.72,.01,.06,.01,.1,.01,.16V61.74Z"/>
    <g>
      <line class="cls-3" x1="34.88" y1="30.31" x2="34.88" y2="33.19"/>
      <line class="cls-3" x1="-.09" y1="30.31" x2="-.09" y2="33.19"/>
      <path class="cls-3" d="M16.22,0h-.24C14.18,0,12.37,0,10.57,.12c-.88,.03-1.76,.08-2.63,.12l-.69,.03c-.77,.06-1.55,.11-2.33,.15-.64,.05-1.28,.08-1.92,.13-.34,.02-.69,.05-1.03,.06-.17,.01-.36,.02-.54,.03-.09,.01-.18,.01-.27,.02-.15,0-.3,.02-.46,.05C.37,.8,0,1.05-.08,1.43c-.01,.06-.01,.1-.01,.16V30.31"/>
      <path class="cls-3" d="M18.57,0C20.46,0,22.34,0,24.23,.12c.87,.03,1.75,.08,2.62,.12l.69,.03c.78,.06,1.55,.11,2.34,.15,.63,.05,1.27,.08,1.91,.13,.34,.02,.69,.05,1.03,.06l.54,.03c.09,.01,.18,.01,.27,.02,.15,0,.31,.02,.46,.05,.33,.08,.7,.33,.78,.72,.01,.06,.01,.1,.01,.16V30.31"/>
      <line class="cls-3" x1="16.46" y1="0" x2="18.57" y2="0"/>
      <line class="cls-3" x1="16.22" y1="0" x2="16.46" y2="0"/>
      <path class="cls-3" d="M16.22,63.51h-.24c-1.8,0-3.61-.02-5.41-.11-.88-.05-1.76-.09-2.63-.14l-.69-.03c-.77-.05-1.55-.11-2.33-.15-.64-.05-1.28-.08-1.92-.13-.34-.02-.69-.04-1.03-.06-.17-.01-.36-.02-.54-.03-.09-.01-.18-.01-.27-.02-.15,0-.3-.01-.46-.05-.33-.08-.7-.33-.78-.72-.01-.06-.01-.1-.01-.16v-28.72"/>
      <path class="cls-3" d="M18.57,63.51c1.89,0,3.77-.02,5.66-.11,.87-.05,1.75-.09,2.62-.14l.69-.03c.78-.05,1.55-.11,2.34-.15,.63-.05,1.27-.08,1.91-.13,.34-.02,.69-.04,1.03-.06l.54-.03c.09-.01,.18-.01,.27-.02,.15,0,.31-.01,.46-.05,.33-.08,.7-.33,.78-.72,.01-.06,.01-.1,.01-.16v-28.72"/>
      <line class="cls-3" x1="16.46" y1="63.51" x2="18.57" y2="63.51"/>
      <line class="cls-3" x1="16.22" y1="63.51" x2="16.46" y2="63.51"/>
    </g>
  </g>
  <text class="cls-1" transform="translate(11.08 45.49)"><tspan x="0" y="0">60</tspan></text>
</svg>