<?xml version="1.0" encoding="UTF-8"?>
<svg id="Layer_1" data-name="Layer 1" xmlns="http://www.w3.org/2000/svg" viewBox="0 0 63.67 63.52">
  <defs>
    <style>
      .cls-1 {
        font-family: Inter18pt-Medium, 'Inter 18pt';
        font-size: 10px;
      }

      .cls-2 {
        fill: #f1f1f2;
      }

      .cls-3 {
        fill: none;
        stroke: #404041;
        stroke-linecap: round;
        stroke-linejoin: round;
        stroke-width: .35px;
      }
    </style>
  </defs>
  <g>
    <g>
      <path class="cls-2" d="M63.66,2.26V38.73h-.01c0-21.07-.07-21.65-.18-22.05-.09-.29-.19-.5-.44-.67-.1-.06-.23-.12-.39-.18-.57-.2-1.56-.36-3.24-.41-1.67-.06-4.05-.02-5.86,.04-1.8,.05-3.03,.12-3.86,.15-.99,.05-1.37,.05-1.67-.06,.09-.12,.19-.25,.3-.38L63,.66c.41,.41,.66,.98,.66,1.6Z"/>
      <path class="cls-2" d="M49.51,63.03c.83,.04,2.14,.11,3.98,.16,1.86,.06,4.24,.1,5.91,.05,1.68-.06,2.67-.22,3.24-.42,.16-.05,.29-.11,.39-.18,0,.77-.24,.83-13.52,.84h-3.73c.85,0,1.22-.04,1.49-.11,.35-.09,.57-.23,.84-.3,.26-.08,.58-.08,1.4-.04Z"/>
      <path class="cls-2" d="M48.02,10.1c.06-1.8,.1-4.18,.04-5.85-.05-1.69-.21-2.67-.41-3.24-.06-.16-.12-.29-.18-.39,.79,0,.84,.25,.84,14.55-.11,.13-.21,.26-.3,.38-.04,.03-.06,.06-.08,.09-.11-.3-.11-.68-.06-1.69,.03-.81,.1-2.04,.15-3.85Z"/>
      <path class="cls-2" d="M24.75,0H61.38c.64,0,1.21,.25,1.62,.66l-14.69,14.51c0-14.3-.05-14.55-.84-14.55-.17-.25-.38-.35-.67-.44-.4-.11-.99-.18-22.05-.18Z"/>
      <path class="cls-2" d="M53.49,63.19c-1.84-.05-3.15-.12-3.98-.16-.82-.04-1.14-.04-1.4,.04-.27,.07-.49,.21-.84,.3-.27,.07-.64,.11-1.49,.11h-.15c-.23,0-.49,0-.79-.01-1.56-.04-4.19-.15-6.02-.31-1.85-.15-2.9-.35-3.58-.58-.44-.14-.73-.3-.93-.45-.11-.08-.19-.16-.25-.23-.16-.21-.18-.37-.14-2.06,.01-.4,.03-.89,.05-1.49,.06-1.6,.15-3.22,.23-4.82,.08-1.62,.13-3.22,.16-4.83h0c.06-4.51,.01-8.99-.15-13.44l-.32-3.48c-.08-.88,1.3-2.96,4.1-6.21,.07-.06,.15-.12,.22-.19l9.34-9.27c.13-.15,.25-.31,.38-.47,.02-.03,.04-.06,.08-.09,.3,.11,.68,.11,1.67,.06,.83-.03,2.06-.1,3.86-.15,1.81-.06,4.19-.1,5.86-.04,1.68,.05,2.67,.21,3.24,.41,.16,.06,.29,.12,.39,.18,.25,.17,.35,.38,.44,.67,.11,.4,.18,.98,.18,22.05v1.19c0,21.08-.07,21.65-.18,22.06-.09,.29-.19,.5-.44,.66-.1,.07-.23,.13-.39,.18-.57,.2-1.56,.36-3.24,.42-1.67,.05-4.05,.01-5.91-.05Z"/>
      <path class="cls-2" d="M0,18.81v-.95c0-.84,.04-1.21,.1-1.48,.1-.35,.24-.57,.31-.84,.08-.27,.08-.58,.04-1.41-.04-.82-.11-2.13-.16-3.99-.06-1.84-.1-4.22-.05-5.89,.06-1.68,.22-2.67,.42-3.24,.05-.16,.11-.29,.18-.39,.16-.25,.37-.35,.66-.44C1.91,.07,2.48,0,23.56,0h1.19C45.81,0,46.4,.07,46.8,.18c.29,.09,.5,.19,.67,.44,.06,.1,.12,.23,.18,.39,.2,.57,.36,1.55,.41,3.24,.06,1.67,.02,4.05-.04,5.85-.05,1.81-.12,3.04-.15,3.85-.05,1.01-.05,1.39,.06,1.69-.13,.16-.25,.32-.38,.47l-9.34,9.27c-.07,.07-.15,.13-.22,.19-3.3,2.86-5.4,4.27-6.29,4.17l-3.48-.31c-4.45-.16-8.93-.21-13.44-.15-1.61,.02-3.21,.09-4.83,.16-1.6,.08-3.22,.18-4.82,.23-.6,.03-1.1,.04-1.5,.05-1.68,.04-1.84,.03-2.05-.13-.07-.06-.15-.14-.23-.25-.15-.2-.31-.49-.45-.93-.23-.68-.43-1.73-.58-3.58-.07-.74-.12-1.62-.17-2.51v-.07c-.08-1.27-.12-2.54-.15-3.44Z"/>
      <path class="cls-2" d="M45.63,63.48H27.71c-17.24,0-21.46,0-23.72,0-2.28-.01-2.61-.05-2.9-.17-.28-.12-.53-.32-.69-.6-.15-.28-.21-.63-.25-2.08-.03-1.45-.04-3.99-.03-10.17,0-6.13,.03-15.83,.03-28.14,.05,.89,.1,1.77,.17,2.51,.15,1.85,.35,2.9,.58,3.58,.14,.44,.3,.73,.45,.93,.08,.11,.16,.19,.23,.25,.21,.16,.37,.17,2.05,.13,.4-.01,.9-.02,1.5-.05,1.6-.05,3.22-.15,4.82-.23,1.62-.07,3.22-.14,4.83-.16,4.51-.06,8.99,0,13.44,.15l3.48,.31c.89,.1,2.99-1.31,6.29-4.17-2.8,3.25-4.18,5.33-4.1,6.21l.32,3.48c.16,4.45,.21,8.93,.15,13.43h0c-.03,1.62-.08,3.22-.16,4.84-.08,1.6-.17,3.22-.23,4.82-.02,.6-.04,1.09-.05,1.49-.04,1.69-.02,1.85,.14,2.06,.06,.07,.14,.15,.25,.23,.2,.15,.49,.31,.93,.45,.68,.23,1.73,.43,3.58,.58,1.83,.16,4.46,.27,6.02,.31,.3,.01,.56,.01,.79,.01Z"/>
      <path class="cls-2" d="M.24,4.25c-.05,1.67-.01,4.05,.05,5.89,.05,1.86,.12,3.17,.16,3.99,.04,.83,.04,1.14-.04,1.41-.07,.27-.21,.49-.31,.84-.06,.27-.1,.64-.1,1.48C0,.9,0,.62,.84,.62c-.07,.1-.13,.23-.18,.39-.2,.57-.36,1.56-.42,3.24Z"/>
    </g>
    <g>
      <path class="cls-3" d="M62.94,62.44c-2.9,.11-6.64,.03-10.61-.04s-8.18-.14-18.02-.27"/>
      <path class="cls-3" d="M1.04,.71c-.11,2.9-.03,6.64,.04,10.61s.14,8.18,.27,18.02"/>
      <line class="cls-3" x1="29.11" y1="63.48" x2="27.71" y2="63.48"/>
      <path class="cls-3" d="M.15,22.32c0,12.31-.03,22.01-.03,28.14-.01,6.18,0,8.72,.03,10.17,.04,1.45,.1,1.8,.25,2.08,.16,.28,.41,.48,.69,.6,.29,.12,.62,.16,2.9,.17,2.26,0,6.48,0,23.72,0"/>
      <path class="cls-3" d="M.15,22.04v.21"/>
      <path class="cls-3" d="M0,17.86C0,.9,0,.62,.84,.62"/>
      <line class="cls-3" x1="23.56" y1="0" x2="24.75" y2="0"/>
      <line class="cls-3" x1="24.75" y1="0" x2="61.38" y2="0"/>
      <line class="cls-3" x1="63.66" y1="38.73" x2="63.66" y2="2.26"/>
      <path class="cls-3" d="M61.38,0c.64,0,1.21,.25,1.62,.66s.66,.98,.66,1.6"/>
      <line class="cls-3" x1="63" y1=".66" x2="48.31" y2="15.17"/>
      <polyline class="cls-3" points="53.02 63.48 52.84 63.48 49.51 63.48 45.78 63.48 45.63 63.48 29.11 63.48"/>
      <line class="cls-3" x1="38.21" y1="25.38" x2="47.55" y2="16.11"/>
      <path class="cls-3" d="M47.55,16.11c.13-.15,.25-.31,.38-.47,.02-.03,.04-.06,.08-.09,.09-.12,.19-.25,.3-.38"/>
      <path class="cls-3" d="M47.93,15.64c-.11-.3-.11-.68-.06-1.69,.03-.81,.1-2.04,.15-3.85,.06-1.8,.1-4.18,.04-5.85-.05-1.69-.21-2.67-.41-3.24-.06-.16-.12-.29-.18-.39-.17-.25-.38-.35-.67-.44-.4-.11-.99-.18-22.05-.18"/>
      <path class="cls-3" d="M48.31,15.17c0-14.3-.05-14.55-.84-14.55"/>
      <path class="cls-3" d="M31.7,29.74c.89,.1,2.99-1.31,6.29-4.17,.07-.06,.15-.12,.22-.19"/>
      <line class="cls-3" x1="28.22" y1="29.43" x2="31.7" y2="29.74"/>
      <path class="cls-3" d="M14.78,29.28c4.51-.06,8.99,0,13.44,.15"/>
      <path class="cls-3" d="M5.13,29.67c-.6,.03-1.1,.04-1.5,.05-1.68,.04-1.84,.03-2.05-.13-.07-.06-.15-.14-.23-.25-.15-.2-.31-.49-.45-.93-.23-.68-.43-1.73-.58-3.58-.07-.74-.12-1.62-.17-2.51v-.07c-.08-1.27-.12-2.54-.15-3.44v-.95c0-.84,.04-1.21,.1-1.48,.1-.35,.24-.57,.31-.84,.08-.27,.08-.58,.04-1.41-.04-.82-.11-2.13-.16-3.99-.06-1.84-.1-4.22-.05-5.89,.06-1.68,.22-2.67,.42-3.24,.05-.16,.11-.29,.18-.39,.16-.25,.37-.35,.66-.44C1.91,.07,2.48,0,23.56,0"/>
      <path class="cls-3" d="M5.13,29.67c1.6-.05,3.22-.15,4.82-.23,1.62-.07,3.22-.14,4.83-.16"/>
      <path class="cls-3" d="M49.51,63.48c13.28-.01,13.52-.07,13.52-.84"/>
      <line class="cls-3" x1="63.65" y1="39.92" x2="63.65" y2="38.73"/>
      <path class="cls-3" d="M48.01,15.55c.3,.11,.68,.11,1.67,.06,.83-.03,2.06-.1,3.86-.15,1.81-.06,4.19-.1,5.86-.04,1.68,.05,2.67,.21,3.24,.41,.16,.06,.29,.12,.39,.18,.25,.17,.35,.38,.44,.67,.11,.4,.18,.98,.18,22.05"/>
      <path class="cls-3" d="M48.48,15.17c14.3,0,14.55,.05,14.55,.84"/>
      <path class="cls-3" d="M33.89,31.78c-.08-.88,1.3-2.96,4.1-6.21,.09-.1,.18-.2,.27-.31"/>
      <line class="cls-3" x1="34.21" y1="35.26" x2="33.89" y2="31.78"/>
      <path class="cls-3" d="M34.36,48.69c.06-4.5,.01-8.98-.15-13.43"/>
      <path class="cls-3" d="M33.97,58.35c-.02,.6-.04,1.09-.05,1.49-.04,1.69-.02,1.85,.14,2.06,.06,.07,.14,.15,.25,.23,.2,.15,.49,.31,.93,.45,.68,.23,1.73,.43,3.58,.58,1.83,.16,4.46,.27,6.02,.31,.3,.01,.56,.01,.79,.01"/>
      <path class="cls-3" d="M45.78,63.48c.85,0,1.22-.04,1.49-.11,.35-.09,.57-.23,.84-.3,.26-.08,.58-.08,1.4-.04,.83,.04,2.14,.11,3.98,.16,1.86,.06,4.24,.1,5.91,.05,1.68-.06,2.67-.22,3.24-.42,.16-.05,.29-.11,.39-.18,.25-.16,.35-.37,.44-.66,.11-.41,.18-.98,.18-22.06"/>
      <path class="cls-3" d="M33.97,58.35c.06-1.6,.15-3.22,.23-4.82,.08-1.62,.13-3.22,.16-4.83"/>
    </g>
  </g>
  <text class="cls-1" transform="translate(15.69 45.49)"><tspan x="0" y="0">R</tspan></text>
</svg>