<?xml version="1.0" encoding="UTF-8"?>
<svg id="Layer_1" data-name="Layer 1" xmlns="http://www.w3.org/2000/svg" viewBox="0 0 79.28 63.52">
  <defs>
    <style>
      .cls-1 {
        font-family: Inter18pt-Medium, 'Inter 18pt';
        font-size: 10px;
      }

      .cls-2 {
        fill: #f1f1f2;
      }

      .cls-3 {
        fill: none;
        stroke: #404041;
        stroke-linecap: round;
        stroke-linejoin: round;
        stroke-width: .35px;
      }
    </style>
  </defs>
  <g>
    <g>
      <path class="cls-2" d="M79.26,3.5c.03,2.09,.04,5.9,0,25.51v5.48c.05,19.61,.04,23.43,0,25.52-.04,2.07-.1,2.43-.26,2.71-.15,.29-.4,.49-.69,.61s-.61,.16-2.89,.17-6.49,0-23.73,0H22.97c-13.31,0-16.94,.01-18.99,0-2.26,0-2.59-.05-2.88-.17-.28-.12-.54-.32-.7-.61-.15-.28-.22-.64-.25-2.08-.03-1.45-.04-3.99-.03-10.17,0-6.17,.03-15.97,.03-28.42,.07,.98,.14,1.96,.22,2.8,.18,1.83,.42,2.88,.69,3.58,.17,.44,.36,.72,.54,.92h0c.1,.11,.19,.19,.27,.25,.24,.16,.42,.18,1.78,.15,1.36-.02,3.88-.09,7.19-.28,2.7-.15,5.91-.38,12.13-.38h6.3c5.43,.03,8.39,.24,10.9,.38,3.31,.19,5.83,.26,7.19,.28,1.36,.03,1.54,.01,1.78-.15,.08-.06,.17-.14,.27-.24h0c.18-.21,.37-.49,.54-.93,.27-.7,.5-1.75,.69-3.58,.19-1.84,.32-4.47,.36-6.03,0-.37,0-.68,0-.94h.01c0-7.39,0-11.61-.08-14.03v-.35c.04-2.09,.1-2.45,.26-2.72,.15-.28,.4-.49,.69-.61,.28-.12,.61-.15,2.89-.16,.61-.01,1.35-.01,2.45-.01C69.52,0,73.32,0,75.42,.01c2.28,.01,2.6,.04,2.89,.16s.54,.33,.69,.61c.16,.27,.22,.63,.26,2.72Z"/>
      <path class="cls-2" d="M50.94,3.85c.08,2.42,.08,6.64,.08,14.03h-.01c0-.85-.04-1.21-.12-1.49-.11-.36-.28-.57-.36-.84-.09-.27-.09-.58-.04-1.4,.04-.82,.12-2.15,.19-3.99,.06-1.85,.11-4.22,.05-5.9-.07-1.68-.25-2.66-.5-3.24-.06-.16-.13-.29-.21-.39,.57,0,.81,.09,.92,3.18v.04Z"/>
      <path class="cls-2" d="M51.01,17.88c0,.26,0,.57,0,.94-.04,1.56-.17,4.19-.36,6.03-.19,1.83-.42,2.88-.69,3.58-.17,.44-.36,.72-.54,.92,.16-9.84,.24-14.05,.32-18.02,.09-3.97,.18-7.71,.06-10.62l.23-.08c.08,.1,.15,.23,.21,.39,.25,.58,.43,1.56,.5,3.24,.06,1.68,.01,4.05-.05,5.9-.07,1.84-.15,3.17-.19,3.99-.05,.82-.05,1.13,.04,1.4,.08,.27,.25,.48,.36,.84,.08,.28,.12,.64,.12,1.49Z"/>
      <path class="cls-2" d="M1.6,29.35c-.18-.2-.37-.48-.54-.92-.27-.7-.51-1.75-.69-3.58-.08-.84-.15-1.82-.22-2.8H.15c-.07-1.19-.12-2.38-.14-3.23,0-.31,0-.59,0-.82v-.12c0-.85,.05-1.2,.13-1.49,.1-.36,.27-.57,.35-.84,.09-.27,.09-.58,.05-1.4-.05-.82-.13-2.15-.2-3.99-.06-1.85-.11-4.22-.05-5.9,.07-1.68,.25-2.66,.5-3.24,.06-.16,.12-.29,.21-.39,.19-.26,.44-.36,.78-.44C2.22,.09,2.84,.01,22.97,0h6.3c18.93,.02,19.53,.09,19.97,.19,.34,.08,.59,.18,.78,.44l-.23,.08c.12,2.91,.03,6.65-.06,10.62-.08,3.97-.16,8.18-.32,18.02h0c-.1,.11-.19,.19-.27,.25-.24,.16-.42,.18-1.78,.15-1.36-.02-3.88-.09-7.19-.28-2.51-.14-5.47-.35-10.9-.38h-6.3c-6.22,0-9.43,.23-12.13,.38-3.31,.19-5.83,.26-7.19,.28-1.36,.03-1.54,.01-1.78-.15-.08-.06-.17-.14-.27-.24h0Z"/>
      <path class="cls-2" d="M.98,.63h.01c-.09,.1-.15,.23-.21,.39-.25,.58-.43,1.56-.5,3.24-.06,1.68-.01,4.05,.05,5.9,.07,1.84,.15,3.17,.2,3.99,.04,.82,.04,1.13-.05,1.4-.08,.27-.25,.48-.35,.84C.05,16.68,0,17.03,0,17.88-.01,.9-.01,.63,.98,.63Z"/>
    </g>
    <g>
      <line class="cls-3" x1="22.97" y1="63.5" x2="29.27" y2="63.5"/>
      <line class="cls-3" x1="22.97" y1="29.09" x2="29.27" y2="29.09"/>
      <line class="cls-3" x1="22.97" y1="0" x2="29.27" y2="0"/>
      <path class="cls-3" d="M50.94,3.81c-.11-3.09-.35-3.18-.92-3.18"/>
      <path class="cls-3" d="M51.02,17.88c0-7.39,0-11.61-.08-14.03"/>
      <path class="cls-3" d="M79.25,34.49c.05,19.61,.04,23.43,0,25.52-.04,2.07-.1,2.43-.26,2.71-.15,.29-.4,.49-.69,.61s-.61,.16-2.89,.17-6.49,0-23.73,0"/>
      <line class="cls-3" x1="79.25" y1="29.01" x2="79.25" y2="34.49"/>
      <path class="cls-3" d="M50.94,3.85v-.35c.04-2.09,.1-2.45,.26-2.72,.15-.28,.4-.49,.69-.61,.28-.12,.61-.15,2.89-.16,.61-.01,1.35-.01,2.45-.01"/>
      <path class="cls-3" d="M79.25,29.01c.05-19.61,.04-23.42,0-25.51-.04-2.09-.1-2.45-.26-2.72-.15-.28-.4-.49-.69-.61s-.61-.15-2.89-.16c-2.1-.02-5.9-.01-18.19-.01"/>
      <path class="cls-3" d="M49.79,.71c.12,2.91,.03,6.65-.06,10.62-.08,3.97-.16,8.18-.32,18.02"/>
      <path class="cls-3" d="M29.27,29.09c5.43,.03,8.39,.24,10.9,.38,3.31,.19,5.83,.26,7.19,.28,1.36,.03,1.54,.01,1.78-.15,.08-.06,.17-.14,.27-.24h0c.18-.21,.37-.49,.54-.93,.27-.7,.5-1.75,.69-3.58,.19-1.84,.32-4.47,.36-6.03,0-.37,0-.68,0-.94,0-.85-.04-1.21-.12-1.49-.11-.36-.28-.57-.36-.84-.09-.27-.09-.58-.04-1.4,.04-.82,.12-2.15,.19-3.99,.06-1.85,.11-4.22,.05-5.9-.07-1.68-.25-2.66-.5-3.24-.06-.16-.13-.29-.21-.39-.19-.26-.44-.36-.78-.44-.44-.1-1.04-.17-19.97-.19"/>
      <line class="cls-3" x1="29.27" y1="63.5" x2="51.69" y2="63.5"/>
      <path class="cls-3" d="M1.23,.71c-.13,2.91-.04,6.65,.05,10.62,.08,3.97,.16,8.18,.32,18.02"/>
      <path class="cls-3" d="M.15,22.04H.15c0,12.46-.02,22.26-.03,28.43-.01,6.18,0,8.72,.03,10.17,.03,1.44,.1,1.8,.25,2.08,.16,.29,.42,.49,.7,.61,.29,.12,.62,.16,2.88,.17,2.05,.01,5.68,0,18.99,0"/>
      <path class="cls-3" d="M22.97,29.09c-6.22,0-9.43,.23-12.13,.38-3.31,.19-5.83,.26-7.19,.28-1.36,.03-1.54,.01-1.78-.15-.08-.06-.17-.14-.27-.24h0c-.18-.21-.37-.49-.54-.93-.27-.7-.51-1.75-.69-3.58-.08-.84-.15-1.82-.22-2.8"/>
      <path class="cls-3" d="M0,17.88c0-.85,.05-1.2,.13-1.49,.1-.36,.27-.57,.35-.84,.09-.27,.09-.58,.05-1.4-.05-.82-.13-2.15-.2-3.99-.06-1.85-.11-4.22-.05-5.9,.07-1.68,.25-2.66,.5-3.24,.06-.16,.12-.29,.21-.39,.19-.26,.44-.36,.78-.44C2.22,.09,2.84,.01,22.97,0"/>
      <path class="cls-3" d="M.15,22.04c-.07-1.18-.12-2.37-.14-3.22,0-.31,0-.59,0-.82"/>
      <path class="cls-3" d="M0,18v-.12C-.01,.9-.01,.63,.98,.63"/>
    </g>
  </g>
  <text class="cls-1" transform="translate(19.09 45.49)"><tspan x="0" y="0">90</tspan></text>
</svg>