<?xml version="1.0" encoding="UTF-8"?>
<svg id="Layer_1" data-name="Layer 1" xmlns="http://www.w3.org/2000/svg" viewBox="0 0 84.99 63.52">
  <defs>
    <style>
      .cls-1 {
        font-family: Inter18pt-Medium, 'Inter 18pt';
        font-size: 10px;
      }

      .cls-2 {
        fill: #f1f1f2;
      }

      .cls-3 {
        fill: none;
        stroke: #404041;
        stroke-linecap: round;
        stroke-linejoin: round;
        stroke-width: .35px;
      }
    </style>
  </defs>
  <g>
    <g>
      <path class="cls-2" d="M28.35,3.85c-.08,2.42-.08,6.64-.08,14.03,0-.85,.05-1.21,.13-1.49,.11-.36,.28-.57,.36-.84,.09-.27,.09-.58,.04-1.4-.04-.82-.12-2.15-.19-3.99-.06-1.85-.11-4.22-.05-5.9,.07-1.68,.25-2.66,.49-3.24,.06-.16,.13-.29,.21-.39-.56,0-.8,.09-.91,3.18v.04Z"/>
      <path class="cls-2" d="M29.87,29.35c-.16-9.84-.24-14.05-.32-18.02-.09-3.97-.18-7.71-.06-10.62l-.23-.08c-.08,.1-.15,.23-.21,.39-.24,.58-.42,1.56-.49,3.24-.06,1.68-.01,4.05,.05,5.9,.07,1.84,.15,3.17,.19,3.99,.05,.82,.05,1.13-.04,1.4-.08,.27-.25,.48-.36,.84-.08,.28-.13,.64-.13,1.49,0,.26,0,.57,.02,.94,.04,1.56,.17,4.19,.36,6.03,.18,1.83,.41,2.88,.68,3.58,.17,.44,.36,.72,.54,.92Z"/>
      <path class="cls-2" d="M81.33,29.75c1.36,.03,1.54,.01,1.78-.15,.08-.06,.17-.14,.27-.24h0c.18-.21,.37-.49,.54-.93,.27-.7,.51-1.75,.69-3.58,.08-.84,.15-1.82,.22-2.8h0c.07-1.19,.12-2.38,.14-3.23,.01-.37,.01-.68,.01-.94,0-.85-.05-1.2-.13-1.49-.1-.36-.27-.57-.35-.84-.09-.27-.09-.58-.05-1.4,.05-.82,.13-2.15,.2-3.99,.06-1.85,.11-4.22,.05-5.9-.07-1.68-.25-2.66-.5-3.24-.06-.16-.12-.29-.21-.39-.19-.26-.44-.36-.78-.44C82.73,.08,82.05,0,57.26,0h-1.27C31.2,0,30.52,.08,30.04,.19c-.34,.08-.59,.18-.78,.44l.23,.08c-.12,2.91-.03,6.65,.06,10.62,.08,3.97,.16,8.18,.32,18.02h0c.1,.11,.19,.19,.27,.25,.24,.16,.42,.18,1.79,.15,1.35-.02,3.87-.09,7.18-.28,3.31-.18,7.4-.49,16.88-.34h1.27c9.48-.15,13.57,.16,16.88,.34,3.31,.19,5.83,.26,7.19,.28Z"/>
      <path class="cls-2" d="M57.26,29.13h-1.27c-9.48-.15-13.57,.16-16.88,.34-3.31,.19-5.83,.26-7.18,.28-1.37,.03-1.55,.01-1.79-.15-.08-.06-.17-.14-.27-.24h0c-.18-.21-.37-.49-.54-.93-.27-.7-.5-1.75-.68-3.58-.19-1.84-.32-4.47-.36-6.03-.02-.37-.02-.68-.02-.94,0-7.39,0-11.61,.08-14.03v-.35c-.04-2.09-.1-2.45-.26-2.72-.15-.28-.41-.49-.7-.61-.28-.12-.61-.15-2.88-.16C23.89,0,23.15,0,22.05,0,9.76,0,5.97,0,3.86,.01,1.59,.02,1.27,.05,.97,.17c-.29,.12-.54,.33-.69,.61C.12,1.05,.06,1.41,.02,3.5c-.03,2.09-.04,5.9,.01,25.51v5.48C-.02,54.1,0,57.92,.02,60.01c.04,2.07,.1,2.43,.26,2.71,.15,.29,.4,.49,.69,.61,.3,.12,.62,.16,2.89,.17,2.28,.01,6.49,0,23.73,0h29.67c17.25,0,21.46,.01,23.74,0,2.26,0,2.59-.05,2.88-.17,.28-.12,.54-.32,.7-.61,.15-.28,.22-.64,.25-2.08,.03-1.45,.04-3.99,.03-10.17-.01-6.17-.03-15.97-.03-28.42-.07,.98-.14,1.96-.22,2.8-.18,1.83-.42,2.88-.69,3.58-.17,.44-.36,.72-.54,.92h0c-.1,.11-.19,.19-.27,.25-.24,.16-.42,.18-1.78,.15-1.36-.02-3.88-.09-7.19-.28-3.31-.18-7.4-.49-16.88-.34Z"/>
      <path class="cls-2" d="M83.99,.63c.09,.1,.15,.23,.21,.39,.25,.58,.43,1.56,.5,3.24,.06,1.68,.01,4.05-.05,5.9-.07,1.84-.15,3.17-.2,3.99-.04,.82-.04,1.13,.05,1.4,.08,.27,.25,.48,.35,.84,.08,.29,.13,.64,.13,1.49h0c0-16.98,0-17.25-1-17.25Z"/>
    </g>
    <g>
      <line class="cls-3" x1="55.99" y1="63.5" x2="57.26" y2="63.5"/>
      <line class="cls-3" x1="55.99" y1="29.13" x2="57.26" y2="29.13"/>
      <line class="cls-3" x1="55.99" y1="0" x2="57.26" y2="0"/>
      <path class="cls-3" d="M84.99,17.88c0-16.98,0-17.25-1-17.25"/>
      <path class="cls-3" d="M84.83,22.04c.07-1.18,.12-2.37,.14-3.22,.01-.37,.01-.68,.01-.94,0-.85-.05-1.2-.13-1.49-.1-.36-.27-.57-.35-.84-.09-.27-.09-.58-.05-1.4,.05-.82,.13-2.15,.2-3.99,.06-1.85,.11-4.22,.05-5.9-.07-1.68-.25-2.66-.5-3.24-.06-.16-.12-.29-.21-.39-.19-.26-.44-.36-.78-.44C82.73,.08,82.05,0,57.26,0"/>
      <path class="cls-3" d="M83.38,29.35c.18-.2,.37-.48,.54-.92,.27-.7,.51-1.75,.69-3.58,.08-.84,.15-1.82,.22-2.8"/>
      <path class="cls-3" d="M57.26,29.13c9.48-.15,13.57,.16,16.88,.34,3.31,.19,5.83,.26,7.19,.28,1.36,.03,1.54,.01,1.78-.15,.08-.06,.17-.14,.27-.24"/>
      <path class="cls-3" d="M84.83,22.04h0c0,12.46,.02,22.26,.03,28.43,.01,6.18,0,8.72-.03,10.17-.03,1.44-.1,1.8-.25,2.08-.16,.29-.42,.49-.7,.61-.29,.12-.62,.16-2.88,.17-2.28,.01-6.49,0-23.74,0"/>
      <path class="cls-3" d="M83.75,.71c.13,2.91,.04,6.65-.05,10.62-.08,3.97-.16,8.18-.32,18.02h0"/>
      <path class="cls-3" d="M29.49,.71c-.12,2.91-.03,6.65,.06,10.62,.08,3.97,.16,8.18,.32,18.02"/>
      <path class="cls-3" d="M.03,29.01C-.02,9.4,0,5.59,.02,3.5,.06,1.41,.12,1.05,.28,.78c.15-.28,.4-.49,.69-.61C1.27,.05,1.59,.02,3.86,.01,5.97,0,9.76,0,22.05,0"/>
      <path class="cls-3" d="M28.35,3.85v-.35c-.04-2.09-.1-2.45-.26-2.72-.15-.28-.41-.49-.7-.61-.28-.12-.61-.15-2.88-.16C23.89,0,23.15,0,22.05,0"/>
      <line class="cls-3" x1=".03" y1="29.01" x2=".03" y2="34.49"/>
      <path class="cls-3" d="M.03,34.49C-.02,54.1,0,57.92,.02,60.01c.04,2.07,.1,2.43,.26,2.71,.15,.29,.4,.49,.69,.61,.3,.12,.62,.16,2.89,.17,2.28,.01,6.49,0,23.73,0"/>
      <line class="cls-3" x1="55.99" y1="63.5" x2="27.59" y2="63.5"/>
      <path class="cls-3" d="M55.99,29.13c-9.48-.15-13.57,.16-16.88,.34-3.31,.19-5.83,.26-7.18,.28-1.37,.03-1.55,.01-1.79-.15-.08-.06-.17-.14-.27-.24h0c-.18-.21-.37-.49-.54-.93-.27-.7-.5-1.75-.68-3.58-.19-1.84-.32-4.47-.36-6.03-.02-.37-.02-.68-.02-.94,0-.85,.05-1.21,.13-1.49,.11-.36,.28-.57,.36-.84,.09-.27,.09-.58,.04-1.4-.04-.82-.12-2.15-.19-3.99-.06-1.85-.11-4.22-.05-5.9,.07-1.68,.25-2.66,.49-3.24,.06-.16,.13-.29,.21-.39,.19-.26,.44-.36,.78-.44C30.52,.08,31.2,0,55.99,0"/>
      <path class="cls-3" d="M28.27,17.88c0-7.39,0-11.61,.08-14.03"/>
      <path class="cls-3" d="M28.35,3.81c.11-3.09,.35-3.18,.91-3.18"/>
    </g>
  </g>
  <text class="cls-1" transform="translate(47.37 45.49)"><tspan x="0" y="0">100</tspan></text>
</svg>