<?xml version="1.0" encoding="UTF-8"?>
<svg id="Layer_1" data-name="Layer 1" xmlns="http://www.w3.org/2000/svg" viewBox="0 0 79.28 63.52">
  <defs>
    <style>
      .cls-1 {
        font-family: Inter18pt-Medium, 'Inter 18pt';
        font-size: 10px;
      }

      .cls-2 {
        fill: #f1f1f2;
      }

      .cls-3 {
        fill: none;
        stroke: #404041;
        stroke-linecap: round;
        stroke-linejoin: round;
        stroke-width: .35px;
      }
    </style>
  </defs>
  <g>
    <g>
      <path class="cls-2" d="M28.35,3.85c-.08,2.42-.08,6.64-.08,14.03h.01c0-.85,.04-1.21,.12-1.49,.11-.36,.28-.57,.36-.84,.09-.27,.09-.58,.04-1.4-.04-.82-.12-2.15-.19-3.99-.06-1.85-.11-4.22-.05-5.9,.07-1.68,.25-2.66,.49-3.24,.07-.16,.14-.29,.22-.39-.57,0-.81,.09-.92,3.18v.04Z"/>
      <path class="cls-2" d="M29.27,.63c-.08,.1-.15,.23-.22,.39-.24,.58-.42,1.56-.49,3.24-.06,1.68-.01,4.05,.05,5.9,.07,1.84,.15,3.17,.19,3.99,.05,.82,.05,1.13-.04,1.4-.08,.27-.25,.48-.36,.84-.08,.28-.12,.64-.12,1.49,0,.26,0,.57,0,.94,.04,1.56,.17,4.19,.36,6.03,.19,1.83,.42,2.88,.69,3.58,.17,.44,.36,.72,.54,.92-.16-9.84-.24-14.05-.32-18.02-.09-3.97-.18-7.71-.06-10.62l-.23-.08Z"/>
      <path class="cls-2" d="M79.01,4.26c-.07-1.68-.25-2.66-.5-3.24-.06-.16-.12-.29-.21-.39-.19-.26-.44-.36-.78-.44-.45-.1-1.07-.18-21.2-.19h-6.3C31.09,.02,30.49,.09,30.05,.19c-.34,.08-.59,.18-.78,.44l.23,.08c-.12,2.91-.03,6.65,.06,10.62,.08,3.97,.16,8.18,.32,18.02h0c.1,.11,.19,.19,.27,.25,.24,.16,.42,.18,1.78,.15,1.36-.02,3.88-.09,7.19-.28,2.51-.14,5.47-.35,10.9-.38h6.3c6.22,0,9.43,.23,12.13,.38,3.31,.19,5.83,.26,7.19,.28,1.36,.03,1.54,.01,1.78-.15,.08-.06,.17-.14,.27-.24h0c.18-.21,.37-.49,.54-.93,.27-.7,.51-1.75,.69-3.58,.08-.84,.15-1.82,.22-2.8h0c.07-1.19,.12-2.38,.14-3.23,0-.31,0-.59,0-.82v-.12c0-.85-.05-1.2-.13-1.49-.1-.36-.27-.57-.35-.84-.09-.27-.09-.58-.05-1.4,.05-.82,.13-2.15,.2-3.99,.06-1.85,.11-4.22,.05-5.9Z"/>
      <path class="cls-2" d="M77.42,29.6c-.24,.16-.42,.18-1.78,.15-1.36-.02-3.88-.09-7.19-.28-2.7-.15-5.91-.38-12.13-.38h-6.3c-5.43,.03-8.39,.24-10.9,.38-3.31,.19-5.83,.26-7.19,.28-1.36,.03-1.54,.01-1.78-.15-.08-.06-.17-.14-.27-.24h0c-.18-.21-.37-.49-.54-.93-.27-.7-.5-1.75-.69-3.58-.19-1.84-.32-4.47-.36-6.03,0-.37,0-.68,0-.94h-.01c0-7.39,0-11.61,.08-14.03v-.35c-.04-2.09-.1-2.45-.26-2.72-.15-.28-.4-.49-.69-.61-.28-.12-.61-.15-2.89-.16C23.9,0,23.16,0,22.06,0,9.77,0,5.97,0,3.87,.01,1.59,.02,1.27,.05,.98,.17S.44,.5,.29,.78C.13,1.05,.07,1.41,.03,3.5,0,5.59-.01,9.4,.04,29.01v5.48C-.01,54.1,0,57.92,.03,60.01c.04,2.07,.1,2.43,.26,2.71,.15,.29,.4,.49,.69,.61s.61,.16,2.89,.17,6.49,0,23.73,0h28.72c13.31,0,16.94,.01,18.99,0,2.26,0,2.59-.05,2.88-.17,.28-.12,.54-.32,.7-.61,.15-.28,.22-.64,.25-2.08,.03-1.45,.04-3.99,.03-10.17-.01-6.17-.03-15.97-.03-28.42-.07,.98-.14,1.96-.22,2.8-.18,1.83-.42,2.88-.69,3.58-.17,.44-.36,.72-.54,.92h0c-.1,.11-.19,.19-.27,.25Z"/>
      <path class="cls-2" d="M78.51,1.02c.25,.58,.43,1.56,.5,3.24,.06,1.68,0,4.05-.05,5.9-.07,1.84-.15,3.17-.2,3.99-.04,.82-.04,1.13,.05,1.4,.08,.27,.25,.48,.35,.84,.08,.29,.13,.64,.13,1.49,.01-16.98,.01-17.25-.98-17.25h-.01c.09,.1,.15,.23,.21,.39Z"/>
    </g>
    <g>
      <line class="cls-3" x1="56.32" y1="63.5" x2="50.02" y2="63.5"/>
      <line class="cls-3" x1="56.32" y1="29.09" x2="50.02" y2="29.09"/>
      <line class="cls-3" x1="56.32" y1="0" x2="50.02" y2="0"/>
      <path class="cls-3" d="M28.35,3.81c.11-3.09,.35-3.18,.92-3.18"/>
      <path class="cls-3" d="M28.27,17.88c0-7.39,0-11.61,.08-14.03"/>
      <path class="cls-3" d="M.04,34.49C-.01,54.1,0,57.92,.03,60.01c.04,2.07,.1,2.43,.26,2.71,.15,.29,.4,.49,.69,.61s.61,.16,2.89,.17,6.49,0,23.73,0"/>
      <line class="cls-3" x1=".04" y1="29.01" x2=".04" y2="34.49"/>
      <path class="cls-3" d="M28.35,3.85v-.35c-.04-2.09-.1-2.45-.26-2.72-.15-.28-.4-.49-.69-.61-.28-.12-.61-.15-2.89-.16C23.9,0,23.16,0,22.06,0"/>
      <path class="cls-3" d="M.04,29.01C-.01,9.4,0,5.59,.03,3.5,.07,1.41,.13,1.05,.29,.78c.15-.28,.4-.49,.69-.61S1.59,.02,3.87,.01C5.97,0,9.77,0,22.06,0"/>
      <path class="cls-3" d="M29.5,.71c-.12,2.91-.03,6.65,.06,10.62,.08,3.97,.16,8.18,.32,18.02"/>
      <path class="cls-3" d="M50.02,29.09c-5.43,.03-8.39,.24-10.9,.38-3.31,.19-5.83,.26-7.19,.28-1.36,.03-1.54,.01-1.78-.15-.08-.06-.17-.14-.27-.24h0c-.18-.21-.37-.49-.54-.93-.27-.7-.5-1.75-.69-3.58-.19-1.84-.32-4.47-.36-6.03,0-.37,0-.68,0-.94,0-.85,.04-1.21,.12-1.49,.11-.36,.28-.57,.36-.84,.09-.27,.09-.58,.04-1.4-.04-.82-.12-2.15-.19-3.99-.06-1.85-.11-4.22-.05-5.9,.07-1.68,.25-2.66,.49-3.24,.07-.16,.14-.29,.22-.39,.19-.26,.44-.36,.78-.44C30.49,.09,31.09,.02,50.02,0"/>
      <line class="cls-3" x1="50.02" y1="63.5" x2="27.6" y2="63.5"/>
      <path class="cls-3" d="M78.06,.71c.13,2.91,.04,6.65-.05,10.62-.08,3.97-.16,8.18-.32,18.02"/>
      <path class="cls-3" d="M79.14,22.04h0c0,12.46,.02,22.26,.03,28.43,.01,6.18,0,8.72-.03,10.17-.03,1.44-.1,1.8-.25,2.08-.16,.29-.42,.49-.7,.61-.29,.12-.62,.16-2.88,.17-2.05,.01-5.68,0-18.99,0"/>
      <path class="cls-3" d="M56.32,29.09c6.22,0,9.43,.23,12.13,.38,3.31,.19,5.83,.26,7.19,.28,1.36,.03,1.54,.01,1.78-.15,.08-.06,.17-.14,.27-.24h0c.18-.21,.37-.49,.54-.93,.27-.7,.51-1.75,.69-3.58,.08-.84,.15-1.82,.22-2.8"/>
      <path class="cls-3" d="M79.29,17.88c0-.85-.05-1.2-.13-1.49-.1-.36-.27-.57-.35-.84-.09-.27-.09-.58-.05-1.4,.05-.82,.13-2.15,.2-3.99,.06-1.85,.11-4.22,.05-5.9-.07-1.68-.25-2.66-.5-3.24-.06-.16-.12-.29-.21-.39-.19-.26-.44-.36-.78-.44-.45-.1-1.07-.18-21.2-.19"/>
      <path class="cls-3" d="M79.14,22.04c.07-1.18,.12-2.37,.14-3.22,0-.31,0-.59,0-.82"/>
      <path class="cls-3" d="M79.29,18v-.12c.01-16.98,.01-17.25-.98-17.25"/>
    </g>
  </g>
  <text class="cls-1" transform="translate(47.18 45.49)"><tspan x="0" y="0">90</tspan></text>
</svg>