<?xml version="1.0" encoding="UTF-8"?>
<svg id="Layer_1" data-name="Layer 1" xmlns="http://www.w3.org/2000/svg" viewBox="0 0 73.62 63.52">
  <defs>
    <style>
      .cls-1 {
        font-family: Inter18pt-Medium, 'Inter 18pt';
        font-size: 10px;
      }

      .cls-2 {
        fill: #f1f1f2;
      }

      .cls-3 {
        fill: none;
        stroke: #404041;
        stroke-linecap: round;
        stroke-linejoin: round;
        stroke-width: .35px;
      }
    </style>
  </defs>
  <g>
    <g>
      <path class="cls-2" d="M.02,3.5c-.03,2.09-.04,5.9,.01,25.51v5.48c-.05,19.61-.04,23.43-.01,25.52,.04,2.07,.1,2.43,.26,2.71,.16,.29,.41,.49,.7,.61s.61,.16,2.88,.17c2.28,.01,6.49,0,23.74,0h23.05c13.32,0,16.94,.01,18.99,0,2.27,0,2.6-.05,2.89-.17,.28-.12,.53-.32,.69-.61,.15-.28,.22-.64,.25-2.08,.03-1.45,.04-3.99,.03-10.17-.01-6.17-.03-15.97-.03-28.42-.07,.98-.14,1.96-.22,2.8-.18,1.83-.41,2.88-.68,3.58-.17,.44-.36,.72-.54,.92h0c-.1,.11-.19,.19-.27,.25-.24,.16-.42,.18-1.79,.15-1.35-.02-3.88-.09-7.19-.28-2.69-.15-5.91-.38-12.13-.38h-.64c-5.42,.03-8.38,.24-10.89,.38-3.31,.19-5.84,.26-7.19,.28-1.37,.03-1.55,.01-1.79-.15-.08-.06-.17-.14-.27-.24h0c-.18-.21-.37-.49-.54-.93-.27-.7-.5-1.75-.68-3.58-.19-1.84-.32-4.47-.36-6.03-.01-.37-.01-.68-.01-.94h-.01c0-7.39,0-11.61,.08-14.03v-.35c-.04-2.09-.1-2.45-.26-2.72-.15-.28-.4-.49-.69-.61s-.62-.15-2.89-.16C23.9,0,23.15,0,22.05,0,9.76,0,5.97,0,3.86,.01,1.59,.02,1.27,.05,.98,.17S.44,.5,.28,.78C.12,1.05,.06,1.41,.02,3.5Z"/>
      <path class="cls-2" d="M28.35,3.85c-.08,2.42-.08,6.64-.08,14.03h.01c0-.85,.04-1.21,.12-1.49,.11-.36,.28-.57,.36-.84,.09-.27,.09-.58,.04-1.4-.04-.82-.12-2.15-.19-3.99-.06-1.85-.11-4.22-.05-5.9,.07-1.68,.25-2.66,.49-3.24,.06-.16,.13-.29,.21-.39-.56,0-.8,.09-.91,3.18v.04Z"/>
      <path class="cls-2" d="M28.28,17.88c0,.26,0,.57,.01,.94,.04,1.56,.17,4.19,.36,6.03,.18,1.83,.41,2.88,.68,3.58,.17,.44,.36,.72,.54,.92-.16-9.84-.24-14.05-.32-18.02-.09-3.97-.18-7.71-.06-10.62l-.23-.08c-.08,.1-.15,.23-.21,.39-.24,.58-.42,1.56-.49,3.24-.06,1.68-.01,4.05,.05,5.9,.07,1.84,.15,3.17,.19,3.99,.05,.82,.05,1.13-.04,1.4-.08,.27-.25,.48-.36,.84-.08,.28-.12,.64-.12,1.49Z"/>
      <path class="cls-2" d="M72.03,29.35c.18-.2,.37-.48,.54-.92,.27-.7,.5-1.75,.68-3.58,.08-.84,.15-1.82,.22-2.8h0c.07-1.19,.12-2.38,.14-3.23,.01-.31,.01-.59,.01-.82v-.12c0-.85-.05-1.2-.13-1.49-.1-.36-.27-.57-.35-.84-.09-.27-.09-.58-.05-1.4,.05-.82,.13-2.15,.2-3.99,.06-1.85,.11-4.22,.05-5.9-.07-1.68-.25-2.66-.49-3.24-.06-.16-.13-.29-.21-.39-.19-.26-.44-.36-.78-.44-.45-.1-1.07-.18-21.21-.19h-.64C31.09,.02,30.48,.09,30.04,.19c-.34,.08-.59,.18-.78,.44l.23,.08c-.12,2.91-.03,6.65,.06,10.62,.08,3.97,.16,8.18,.32,18.02h0c.1,.11,.19,.19,.27,.25,.24,.16,.42,.18,1.79,.15,1.35-.02,3.88-.09,7.19-.28,2.51-.14,5.47-.35,10.89-.38h.64c6.22,0,9.44,.23,12.13,.38,3.31,.19,5.84,.26,7.19,.28,1.37,.03,1.55,.01,1.79-.15,.08-.06,.17-.14,.27-.24h0Z"/>
      <path class="cls-2" d="M72.64,.63c.08,.1,.15,.23,.21,.39,.24,.58,.42,1.56,.49,3.24,.06,1.68,.01,4.05-.05,5.9-.07,1.84-.15,3.17-.2,3.99-.04,.82-.04,1.13,.05,1.4,.08,.27,.25,.48,.35,.84,.08,.29,.13,.64,.13,1.49,0-16.98,0-17.25-.98-17.25Z"/>
    </g>
    <g>
      <line class="cls-3" x1="50.65" y1="0" x2="50.01" y2="0"/>
      <line class="cls-3" x1="50.65" y1="29.09" x2="50.01" y2="29.09"/>
      <line class="cls-3" x1="50.65" y1="63.5" x2="50.01" y2="63.5"/>
      <path class="cls-3" d="M72.4,.71c.13,2.91,.04,6.65-.05,10.62-.08,3.97-.16,8.18-.32,18.02"/>
      <path class="cls-3" d="M73.47,22.04h0c0,12.46,.02,22.26,.03,28.43,.01,6.18,0,8.72-.03,10.17-.03,1.44-.1,1.8-.25,2.08-.16,.29-.41,.49-.69,.61-.29,.12-.62,.16-2.89,.17-2.05,.01-5.67,0-18.99,0"/>
      <path class="cls-3" d="M50.65,29.09c6.22,0,9.44,.23,12.13,.38,3.31,.19,5.84,.26,7.19,.28,1.37,.03,1.55,.01,1.79-.15,.08-.06,.17-.14,.27-.24h0c.18-.21,.37-.49,.54-.93,.27-.7,.5-1.75,.68-3.58,.08-.84,.15-1.82,.22-2.8"/>
      <path class="cls-3" d="M73.62,17.88c0-.85-.05-1.2-.13-1.49-.1-.36-.27-.57-.35-.84-.09-.27-.09-.58-.05-1.4,.05-.82,.13-2.15,.2-3.99,.06-1.85,.11-4.22,.05-5.9-.07-1.68-.25-2.66-.49-3.24-.06-.16-.13-.29-.21-.39-.19-.26-.44-.36-.78-.44-.45-.1-1.07-.18-21.21-.19"/>
      <path class="cls-3" d="M73.47,22.04c.07-1.18,.12-2.37,.14-3.22,.01-.31,.01-.59,.01-.82"/>
      <path class="cls-3" d="M73.62,18v-.12c0-16.98,0-17.25-.98-17.25"/>
      <path class="cls-3" d="M28.35,3.81c.11-3.09,.35-3.18,.91-3.18"/>
      <path class="cls-3" d="M28.27,17.88c0-7.39,0-11.61,.08-14.03"/>
      <path class="cls-3" d="M.03,34.49c-.05,19.61-.04,23.43-.01,25.52,.04,2.07,.1,2.43,.26,2.71,.16,.29,.41,.49,.7,.61s.61,.16,2.88,.17c2.28,.01,6.49,0,23.74,0"/>
      <line class="cls-3" x1=".03" y1="29.01" x2=".03" y2="34.49"/>
      <path class="cls-3" d="M28.35,3.85v-.35c-.04-2.09-.1-2.45-.26-2.72-.15-.28-.4-.49-.69-.61s-.62-.15-2.89-.16C23.9,0,23.15,0,22.05,0"/>
      <path class="cls-3" d="M.03,29.01C-.02,9.4,0,5.59,.02,3.5,.06,1.41,.12,1.05,.28,.78c.16-.28,.41-.49,.7-.61S1.59,.02,3.86,.01C5.97,0,9.76,0,22.05,0"/>
      <path class="cls-3" d="M29.49,.71c-.12,2.91-.03,6.65,.06,10.62,.08,3.97,.16,8.18,.32,18.02"/>
      <path class="cls-3" d="M50.01,29.09c-5.42,.03-8.38,.24-10.89,.38-3.31,.19-5.84,.26-7.19,.28-1.37,.03-1.55,.01-1.79-.15-.08-.06-.17-.14-.27-.24h0c-.18-.21-.37-.49-.54-.93-.27-.7-.5-1.75-.68-3.58-.19-1.84-.32-4.47-.36-6.03-.01-.37-.01-.68-.01-.94,0-.85,.04-1.21,.12-1.49,.11-.36,.28-.57,.36-.84,.09-.27,.09-.58,.04-1.4-.04-.82-.12-2.15-.19-3.99-.06-1.85-.11-4.22-.05-5.9,.07-1.68,.25-2.66,.49-3.24,.06-.16,.13-.29,.21-.39,.19-.26,.44-.36,.78-.44C30.48,.09,31.09,.02,50.01,0"/>
      <line class="cls-3" x1="50.01" y1="63.5" x2="27.6" y2="63.5"/>
    </g>
  </g>
  <text class="cls-1" transform="translate(45.39 45.49)"><tspan x="0" y="0">80</tspan></text>
</svg>