<svg width="68" height="68" viewBox="0 0 68 68" fill="none" xmlns="http://www.w3.org/2000/svg">
<rect width="68" height="68" rx="34" fill="black"/>
<path d="M38.2365 29C38.1607 28.053 37.8056 27.3144 37.1712 26.7841C36.5462 26.2538 35.5945 25.9886 34.3161 25.9886C33.5017 25.9886 32.834 26.0881 32.3132 26.2869C31.8018 26.4763 31.4231 26.7367 31.1768 27.0682C30.9306 27.3996 30.8028 27.7784 30.7933 28.2045C30.7744 28.5549 30.8359 28.8722 30.978 29.1562C31.1295 29.4309 31.3662 29.6818 31.6882 29.9091C32.0102 30.1269 32.4221 30.3258 32.924 30.5057C33.4259 30.6856 34.0225 30.8466 34.7138 30.9886L37.1001 31.5C38.71 31.8409 40.0878 32.2907 41.2337 32.8494C42.3795 33.4081 43.317 34.0663 44.0462 34.8239C44.7753 35.572 45.3104 36.4148 45.6513 37.3523C46.0017 38.2898 46.1816 39.3125 46.1911 40.4205C46.1816 42.3333 45.7034 43.9527 44.7564 45.2784C43.8094 46.6042 42.4553 47.6127 40.6939 48.304C38.942 48.9953 36.835 49.3409 34.3729 49.3409C31.8445 49.3409 29.638 48.9669 27.7536 48.2188C25.8786 47.4706 24.4202 46.3201 23.3786 44.767C22.3464 43.2045 21.8255 41.2064 21.8161 38.7727H29.3161C29.3634 39.6629 29.5859 40.411 29.9837 41.017C30.3814 41.6231 30.9401 42.0824 31.6598 42.3949C32.389 42.7074 33.2554 42.8636 34.2592 42.8636C35.102 42.8636 35.8075 42.7595 36.3757 42.5511C36.9439 42.3428 37.3748 42.054 37.6683 41.6847C37.9619 41.3153 38.1134 40.8939 38.1229 40.4205C38.1134 39.9754 37.9666 39.5871 37.6825 39.2557C37.4079 38.9148 36.9534 38.6117 36.3189 38.3466C35.6844 38.072 34.8274 37.8163 33.7479 37.5795L30.8501 36.9545C28.2744 36.3958 26.2431 35.4631 24.7564 34.1562C23.2791 32.84 22.5452 31.0455 22.5547 28.7727C22.5452 26.9261 23.0376 25.3116 24.032 23.929C25.0357 22.5369 26.4231 21.4527 28.1939 20.6761C29.9742 19.8996 32.0149 19.5114 34.3161 19.5114C36.6645 19.5114 38.6958 19.9044 40.4098 20.6903C42.1238 21.4763 43.4448 22.5843 44.3729 24.0142C45.3104 25.4347 45.7839 27.0966 45.7933 29H38.2365Z" fill="white"/>
</svg>
