<?xml version="1.0" encoding="UTF-8"?>
<svg id="Layer_1" data-name="Layer 1" xmlns="http://www.w3.org/2000/svg" viewBox="0 0 112.65 24.39">
  <defs>
    <style>
      .cls-1 {
        fill: #fff;
      }

      .cls-2 {
        fill: none;
      }
    </style>
  </defs>
  <rect class="cls-2" x="-238.79" y="-408.7" width="595.28" height="841.89"/>
  <g>
    <path class="cls-1" d="M21.45,15.36h-1c-3.33,0-4.99-.97-4.99-2.9v-.11h3.43c.06,.77,.74,1.15,2.05,1.15h.1c.42,0,.77-.02,1.04-.06,.28-.04,.48-.1,.62-.18,.13-.08,.22-.16,.27-.24,.05-.08,.07-.18,.07-.29h0c0-.17-.04-.29-.12-.38-.08-.09-.26-.17-.55-.24-.29-.07-.71-.11-1.26-.13l-1.52-.04c-2.68-.07-4.02-.89-4.02-2.46v-.1c0-.29,.04-.54,.12-.78,.08-.23,.23-.46,.44-.68,.21-.22,.49-.4,.84-.55,.34-.15,.8-.27,1.36-.36,.56-.09,1.21-.14,1.95-.14h.98c3.31,0,4.97,.86,4.97,2.58v.09h-3.4c-.07-.58-.73-.87-1.98-.87h-.11c-.51,0-.91,.03-1.19,.09-.28,.06-.45,.13-.52,.21-.07,.08-.1,.18-.1,.3h0c0,.14,.04,.24,.12,.32,.08,.08,.25,.15,.52,.21,.27,.06,.65,.1,1.14,.1l1.47,.03c1.55,.04,2.65,.26,3.32,.64,.67,.39,1,.99,1,1.82v.15c0,.3-.04,.57-.11,.82-.07,.25-.22,.5-.44,.75-.22,.25-.51,.47-.87,.64-.36,.17-.85,.31-1.47,.42-.62,.11-1.34,.16-2.17,.16Z"/>
    <path class="cls-1" d="M30.34,7.02V15.21h-3.11V7.02h3.11Z"/>
    <path class="cls-1" d="M31.39,7.02h3.5l4.75,4.65V7.02h3.1V15.21h-3.12l-5.13-4.96v4.96h-3.1V7.02Z"/>
    <path class="cls-1" d="M49.3,15.36h-.25c-.86,0-1.62-.09-2.29-.27-.67-.18-1.2-.41-1.59-.68-.4-.28-.72-.6-.98-.98-.26-.38-.43-.74-.52-1.1-.09-.36-.14-.72-.14-1.09v-.31c0-.39,.04-.76,.13-1.11,.09-.35,.26-.71,.52-1.08,.26-.37,.6-.69,1.01-.96,.41-.27,.98-.49,1.68-.66,.71-.17,1.52-.26,2.45-.26h.43c.95,0,1.79,.08,2.51,.23,.72,.15,1.28,.33,1.67,.55,.39,.22,.71,.48,.96,.78,.25,.3,.4,.58,.48,.83,.07,.25,.11,.5,.12,.78h0s-3.26,.01-3.26,.01c-.01-.07-.04-.13-.07-.19-.03-.06-.11-.15-.23-.26-.12-.11-.26-.2-.43-.28s-.43-.15-.76-.21c-.34-.06-.72-.09-1.16-.09-1.88,0-2.83,.67-2.83,2.02v.12c0,.58,.23,1.07,.69,1.47,.46,.4,1.17,.6,2.11,.6,.4,0,.77-.03,1.1-.08s.6-.12,.8-.2c.2-.08,.37-.17,.52-.26,.14-.09,.24-.18,.3-.26,.06-.08,.08-.15,.08-.21h-2.87v-1.59h6.06v4.61h-1.97c-.09-.43-.22-.81-.39-1.13-.78,.86-2.08,1.29-3.89,1.29Z"/>
    <path class="cls-1" d="M56.41,10.93v-3.91h3.14v3.66c0,.28,.04,.54,.11,.78s.19,.47,.36,.69c.17,.22,.43,.4,.78,.53s.77,.2,1.26,.2,.9-.07,1.24-.2c.34-.13,.6-.31,.78-.53,.17-.22,.29-.45,.37-.69s.11-.5,.11-.78v-3.66h3.12v3.91c0,.37-.04,.73-.11,1.08-.07,.35-.23,.74-.46,1.16s-.54,.78-.91,1.09c-.37,.31-.9,.57-1.57,.78s-1.45,.31-2.33,.31h-.44c-.91,0-1.71-.1-2.39-.31-.68-.21-1.21-.47-1.59-.78-.38-.31-.68-.67-.91-1.09-.23-.42-.38-.81-.45-1.15-.07-.34-.1-.7-.1-1.08Z"/>
    <path class="cls-1" d="M68.64,7.02h3.12v5.84h5.68v2.34h-8.8V7.02Z"/>
    <path class="cls-1" d="M86.8,15.21l-.64-1.32h-4.67l-.63,1.32h-3.17l4.05-8.18h4.2l4.28,8.18h-3.42Zm-1.64-3.37l-1.38-2.82-1.34,2.82h2.72Z"/>
    <path class="cls-1" d="M93.7,12.4v2.8h-3.12V7.02h7.44c2.3,0,3.44,.7,3.44,2.1v.12c0,.28-.05,.53-.17,.76-.11,.23-.25,.41-.43,.55-.18,.14-.36,.25-.53,.33-.17,.08-.35,.14-.52,.19,.52,.12,.93,.34,1.23,.68,.3,.33,.45,.76,.45,1.27v1.21c0,.42,.05,.73,.15,.92v.05h-3.19c-.07-.07-.1-.22-.1-.43v-.96c0-.48-.13-.84-.38-1.07-.25-.23-.68-.35-1.28-.35h-2.99Zm0-3.39v1.41h3.59c.63,0,.95-.23,.95-.7h0c0-.47-.32-.7-.95-.7h-3.59Z"/>
  </g>
</svg>