<svg width="87" height="12" viewBox="0 0 87 12" fill="none" xmlns="http://www.w3.org/2000/svg">
<g clip-path="url(#clip0_2192_63)">
<path d="M6.45094 10.3572H5.45094C2.12094 10.3572 0.460938 9.38719 0.460938 7.45719V7.34719H3.89094C3.95094 8.11719 4.63094 8.49719 5.94094 8.49719H6.04094C6.46094 8.49719 6.81094 8.47719 7.08094 8.43719C7.36094 8.39719 7.56094 8.33719 7.70094 8.25719C7.83094 8.17719 7.92094 8.09719 7.97094 8.01719C8.02094 7.93719 8.04094 7.83719 8.04094 7.72719C8.04094 7.55719 8.00094 7.43719 7.92094 7.34719C7.84094 7.25719 7.66094 7.17719 7.37094 7.10719C7.08094 7.03719 6.66094 6.99719 6.11094 6.97719L4.59094 6.93719C1.91094 6.86719 0.570937 6.04719 0.570937 4.47719V4.37719C0.570937 4.08719 0.610937 3.83719 0.690937 3.59719C0.770937 3.36719 0.920937 3.13719 1.13094 2.91719C1.34094 2.69719 1.62094 2.51719 1.97094 2.36719C2.31094 2.21719 2.77094 2.09719 3.33094 2.00719C3.89094 1.91719 4.54094 1.86719 5.28094 1.86719H6.26094C9.57094 1.86719 11.2309 2.72719 11.2309 4.44719V4.53719H7.83094C7.76094 3.95719 7.10094 3.66719 5.85094 3.66719H5.74094C5.23094 3.66719 4.83094 3.69719 4.55094 3.75719C4.27094 3.81719 4.10094 3.88719 4.03094 3.96719C3.96094 4.04719 3.93094 4.14719 3.93094 4.26719C3.93094 4.40719 3.97094 4.50719 4.05094 4.58719C4.13094 4.66719 4.30094 4.73719 4.57094 4.79719C4.84094 4.85719 5.22094 4.89719 5.71094 4.89719L7.18094 4.92719C8.73094 4.96719 9.83094 5.18719 10.5009 5.56719C11.1709 5.95719 11.5009 6.55719 11.5009 7.38719V7.53719C11.5009 7.83719 11.4609 8.10719 11.3909 8.35719C11.3209 8.60719 11.1709 8.85719 10.9509 9.10719C10.7309 9.35719 10.4409 9.57719 10.0809 9.74719C9.72094 9.91719 9.23094 10.0572 8.61094 10.1672C7.99094 10.2772 7.27094 10.3272 6.44094 10.3272L6.45094 10.3572Z" fill="#1D1D1B"/>
<path d="M15.3444 2.01562V10.2056H12.2344V2.01562H15.3444Z" fill="#1D1D1B"/>
<path d="M16.3906 2.01562H19.8906L24.6406 6.66563V2.01562H27.7406V10.2056H24.6206L19.4906 5.24563V10.2056H16.3906V2.01562Z" fill="#1D1D1B"/>
<path d="M34.3013 10.3594H34.0513C33.1913 10.3594 32.4312 10.2694 31.7612 10.0894C31.0912 9.90937 30.5612 9.67937 30.1712 9.40937C29.7712 9.12937 29.4512 8.80938 29.1912 8.42938C28.9312 8.04938 28.7612 7.68937 28.6712 7.32937C28.5812 6.96937 28.5312 6.60937 28.5312 6.23937V5.92938C28.5312 5.53938 28.5713 5.16937 28.6613 4.81937C28.7513 4.46937 28.9213 4.10937 29.1813 3.73937C29.4413 3.36937 29.7812 3.04938 30.1912 2.77938C30.6012 2.50938 31.1713 2.28937 31.8713 2.11937C32.5813 1.94937 33.3913 1.85938 34.3213 1.85938H34.7513C35.7013 1.85938 36.5412 1.93938 37.2612 2.08938C37.9812 2.23938 38.5413 2.41937 38.9313 2.63937C39.3213 2.85937 39.6413 3.11937 39.8913 3.41937C40.1413 3.71937 40.2913 3.99937 40.3713 4.24937C40.4413 4.49937 40.4813 4.74937 40.4913 5.02937L37.2313 5.03937C37.2213 4.96937 37.1913 4.90938 37.1613 4.84938C37.1313 4.78938 37.0513 4.69938 36.9313 4.58938C36.8113 4.47938 36.6713 4.38938 36.5013 4.30938C36.3313 4.22938 36.0713 4.15938 35.7413 4.09938C35.4013 4.03938 35.0213 4.00938 34.5813 4.00938C32.7013 4.00938 31.7513 4.67937 31.7513 6.02937V6.14937C31.7513 6.72937 31.9812 7.21937 32.4412 7.61937C32.9012 8.01937 33.6113 8.21938 34.5513 8.21938C34.9513 8.21938 35.3213 8.18938 35.6513 8.13938C35.9813 8.08938 36.2513 8.01937 36.4513 7.93937C36.6513 7.85937 36.8213 7.76938 36.9713 7.67938C37.1113 7.58938 37.2113 7.49937 37.2713 7.41937C37.3313 7.33937 37.3512 7.26937 37.3512 7.20937H34.4813V5.61937H40.5413V10.2294H38.5713C38.4813 9.79937 38.3513 9.41938 38.1813 9.09938C37.4013 9.95938 36.1013 10.3894 34.2913 10.3894L34.3013 10.3594Z" fill="#1D1D1B"/>
<path d="M41.4141 5.92563V2.01562H44.5541V5.67563C44.5541 5.95563 44.5941 6.21563 44.6641 6.45563C44.7341 6.69563 44.8541 6.92562 45.0241 7.14562C45.1941 7.36562 45.4541 7.54563 45.8041 7.67563C46.1541 7.80563 46.5741 7.87563 47.0641 7.87563C47.5541 7.87563 47.9641 7.80563 48.3041 7.67563C48.6441 7.54563 48.9041 7.36562 49.0841 7.14562C49.2541 6.92562 49.3741 6.69563 49.4541 6.45563C49.5341 6.21563 49.5641 5.95563 49.5641 5.67563V2.01562H52.6841V5.92563C52.6841 6.29563 52.6441 6.65563 52.5741 7.00563C52.5041 7.35563 52.3441 7.74563 52.1141 8.16563C51.8841 8.58563 51.5741 8.94563 51.2041 9.25563C50.8341 9.56563 50.3041 9.82563 49.6341 10.0356C48.9641 10.2456 48.1841 10.3456 47.3041 10.3456H46.8641C45.9541 10.3456 45.1541 10.2456 44.4741 10.0356C43.7941 9.82563 43.2641 9.56563 42.8841 9.25563C42.5041 8.94563 42.2041 8.58563 41.9741 8.16563C41.7441 7.74563 41.5941 7.35563 41.5241 7.01563C41.4541 6.67563 41.4241 6.31562 41.4241 5.93562L41.4141 5.92563Z" fill="#1D1D1B"/>
<path d="M53.6406 2.01562H56.7606V7.85562H62.4406V10.1956H53.6406V2.01562Z" fill="#1D1D1B"/>
<path d="M71.7975 10.2113L71.1575 8.89125H66.4875L65.8575 10.2113H62.6875L66.7375 2.03125H70.9375L75.2175 10.2113H71.7975ZM70.1575 6.84125L68.7775 4.02125L67.4375 6.84125H70.1575Z" fill="#1D1D1B"/>
<path d="M78.6981 7.39562V10.1956H75.5781V2.01562H83.0181C85.3181 2.01562 86.4581 2.71562 86.4581 4.11562V4.23562C86.4581 4.51562 86.4081 4.76563 86.2881 4.99563C86.1781 5.22563 86.0381 5.40563 85.8581 5.54563C85.6781 5.68563 85.4981 5.79563 85.3281 5.87563C85.1581 5.95563 84.9781 6.01562 84.8081 6.06562C85.3281 6.18562 85.7381 6.40563 86.0381 6.74563C86.3381 7.07563 86.4881 7.50563 86.4881 8.01563V9.22562C86.4881 9.64562 86.5381 9.95562 86.6381 10.1456V10.1956H83.4481C83.3781 10.1256 83.3481 9.97563 83.3481 9.76563V8.80563C83.3481 8.32563 83.2181 7.96562 82.9681 7.73562C82.7181 7.50562 82.2881 7.38563 81.6881 7.38563H78.6981V7.39562ZM78.6981 4.00563V5.41563H82.2881C82.9181 5.41563 83.2381 5.18563 83.2381 4.71563C83.2381 4.24563 82.9181 4.01563 82.2881 4.01563H78.6981V4.00563Z" fill="#1D1D1B"/>
</g>
<defs>
<clipPath id="clip0_2192_63">
<rect width="87" height="12" fill="white"/>
</clipPath>
</defs>
</svg>
